<mxfile host="65bd71144e" pages="5">
    <diagram id="_Geo2xHs5iCF7STFEmC-" name="Vertical Slice">
        <mxGraphModel dx="1941" dy="-201" grid="1" gridSize="10" guides="1" tooltips="1" connect="1" arrows="1" fold="1" page="0" pageScale="1" pageWidth="840" pageHeight="1100" math="0" shadow="0">
            <root>
                <mxCell id="NRFoNHu8XifHmaJofXyo-0"/>
                <mxCell id="NRFoNHu8XifHmaJofXyo-1" parent="NRFoNHu8XifHmaJofXyo-0"/>
                <mxCell id="2Ei6t0j3schyepPZUMK0-47" value="Shipments Management" style="rounded=1;whiteSpace=wrap;html=1;sketch=0;fillColor=default;fontSize=13;align=center;verticalAlign=top;fontStyle=1;dashed=1;fontColor=default;strokeColor=default;arcSize=7;" vertex="1" parent="NRFoNHu8XifHmaJofXyo-1">
                    <mxGeometry x="1770" y="1280" width="530" height="310" as="geometry"/>
                </mxCell>
                <mxCell id="2Ei6t0j3schyepPZUMK0-46" value="Create Shipment" style="rounded=1;whiteSpace=wrap;html=1;sketch=0;fillColor=default;fontSize=13;align=center;verticalAlign=top;fontStyle=1;dashed=1;fontColor=default;strokeColor=default;arcSize=7;" vertex="1" parent="NRFoNHu8XifHmaJofXyo-1">
                    <mxGeometry x="1780" y="1320" width="310" height="260" as="geometry"/>
                </mxCell>
                <mxCell id="2Ei6t0j3schyepPZUMK0-22" value="" style="rounded=0;whiteSpace=wrap;html=1;sketch=0;strokeColor=default;fillColor=default;fontSize=13;fontColor=default;align=center;dashed=1;" vertex="1" parent="NRFoNHu8XifHmaJofXyo-1">
                    <mxGeometry x="1780" y="1780" width="310" height="40" as="geometry"/>
                </mxCell>
                <mxCell id="2Ei6t0j3schyepPZUMK0-23" value="" style="rounded=0;whiteSpace=wrap;html=1;sketch=0;strokeColor=default;fillColor=default;fontSize=13;fontColor=default;align=center;dashed=1;" vertex="1" parent="NRFoNHu8XifHmaJofXyo-1">
                    <mxGeometry x="1780" y="1840" width="310" height="40" as="geometry"/>
                </mxCell>
                <mxCell id="2Ei6t0j3schyepPZUMK0-24" value="" style="rounded=0;whiteSpace=wrap;html=1;sketch=0;strokeColor=default;fillColor=default;fontSize=13;fontColor=default;align=center;dashed=1;" vertex="1" parent="NRFoNHu8XifHmaJofXyo-1">
                    <mxGeometry x="1780" y="1900" width="310" height="40" as="geometry"/>
                </mxCell>
                <mxCell id="mXEPQpgxA3Jt67eOJuLf-15" value="" style="rounded=0;whiteSpace=wrap;html=1;sketch=0;strokeColor=default;fillColor=default;fontSize=13;fontColor=default;align=center;dashed=1;" parent="NRFoNHu8XifHmaJofXyo-1" vertex="1">
                    <mxGeometry x="-310" y="1330" width="20" height="40" as="geometry"/>
                </mxCell>
                <mxCell id="mXEPQpgxA3Jt67eOJuLf-16" value="" style="rounded=0;whiteSpace=wrap;html=1;sketch=0;strokeColor=default;fillColor=default;fontSize=13;fontColor=default;align=center;dashed=1;" parent="NRFoNHu8XifHmaJofXyo-1" vertex="1">
                    <mxGeometry x="-310" y="1390" width="20" height="40" as="geometry"/>
                </mxCell>
                <mxCell id="mXEPQpgxA3Jt67eOJuLf-17" value="" style="rounded=0;whiteSpace=wrap;html=1;sketch=0;strokeColor=default;fillColor=default;fontSize=13;fontColor=default;align=center;dashed=1;" parent="NRFoNHu8XifHmaJofXyo-1" vertex="1">
                    <mxGeometry x="-310" y="1450" width="20" height="40" as="geometry"/>
                </mxCell>
                <mxCell id="NRFoNHu8XifHmaJofXyo-23" value="Remove stocks" style="rounded=1;whiteSpace=wrap;html=1;sketch=0;fillColor=default;fontSize=13;align=center;verticalAlign=top;fontStyle=1;dashed=1;fontColor=default;strokeColor=default;" parent="NRFoNHu8XifHmaJofXyo-1" vertex="1">
                    <mxGeometry x="440" y="1320" width="130" height="240" as="geometry"/>
                </mxCell>
                <mxCell id="NRFoNHu8XifHmaJofXyo-22" value="Add stocks" style="rounded=1;whiteSpace=wrap;html=1;sketch=0;fillColor=default;fontSize=13;align=center;verticalAlign=top;fontStyle=1;dashed=1;fontColor=default;strokeColor=default;" parent="NRFoNHu8XifHmaJofXyo-1" vertex="1">
                    <mxGeometry x="300" y="1320" width="130" height="240" as="geometry"/>
                </mxCell>
                <mxCell id="NRFoNHu8XifHmaJofXyo-21" value="List all products" style="rounded=1;whiteSpace=wrap;html=1;sketch=0;fillColor=default;fontSize=13;align=center;verticalAlign=top;fontStyle=1;dashed=1;fontColor=default;strokeColor=default;" parent="NRFoNHu8XifHmaJofXyo-1" vertex="1">
                    <mxGeometry x="90" y="1320" width="200" height="240" as="geometry"/>
                </mxCell>
                <mxCell id="NRFoNHu8XifHmaJofXyo-2" value="600 px MAX width" style="rounded=0;whiteSpace=wrap;html=1;fontSize=12;align=center;fontStyle=1" parent="NRFoNHu8XifHmaJofXyo-1" vertex="1">
                    <mxGeometry x="1780" y="1680" width="600" height="40" as="geometry"/>
                </mxCell>
                <mxCell id="NRFoNHu8XifHmaJofXyo-4" value="ListAllProducts" style="rounded=0;whiteSpace=wrap;html=1;labelBackgroundColor=none;sketch=0;fontSize=11;strokeColor=default;fillStyle=hachure;fontStyle=0;shadow=0;glass=0;fontColor=default;fillColor=default;" parent="NRFoNHu8XifHmaJofXyo-1" vertex="1">
                    <mxGeometry x="100" y="1410" width="180" height="40" as="geometry"/>
                </mxCell>
                <mxCell id="NRFoNHu8XifHmaJofXyo-5" value="ProductsController" style="rounded=0;whiteSpace=wrap;html=1;labelBackgroundColor=none;sketch=0;fontSize=11;strokeColor=default;fillStyle=hachure;fontStyle=0;shadow=0;glass=0;fontColor=default;fillColor=default;" parent="NRFoNHu8XifHmaJofXyo-1" vertex="1">
                    <mxGeometry x="100" y="1350" width="180" height="40" as="geometry"/>
                </mxCell>
                <mxCell id="NRFoNHu8XifHmaJofXyo-6" value="" style="endArrow=classic;html=1;shadow=0;fontFamily=Helvetica;fontSize=13;fontColor=default;strokeColor=default;" parent="NRFoNHu8XifHmaJofXyo-1" edge="1">
                    <mxGeometry width="50" height="50" relative="1" as="geometry">
                        <mxPoint x="200" y="1390" as="sourcePoint"/>
                        <mxPoint x="200" y="1410" as="targetPoint"/>
                    </mxGeometry>
                </mxCell>
                <mxCell id="NRFoNHu8XifHmaJofXyo-7" value="AddStocks" style="rounded=0;whiteSpace=wrap;html=1;labelBackgroundColor=none;sketch=0;fontSize=11;strokeColor=default;fillStyle=hachure;fontStyle=0;shadow=0;glass=0;fontColor=default;fillColor=default;" parent="NRFoNHu8XifHmaJofXyo-1" vertex="1">
                    <mxGeometry x="310" y="1410" width="110" height="40" as="geometry"/>
                </mxCell>
                <mxCell id="NRFoNHu8XifHmaJofXyo-8" value="" style="endArrow=classic;html=1;shadow=0;fontFamily=Helvetica;fontSize=13;fontColor=default;strokeColor=default;" parent="NRFoNHu8XifHmaJofXyo-1" edge="1">
                    <mxGeometry width="50" height="50" relative="1" as="geometry">
                        <mxPoint x="364.86" y="1450" as="sourcePoint"/>
                        <mxPoint x="364.86" y="1470" as="targetPoint"/>
                    </mxGeometry>
                </mxCell>
                <mxCell id="NRFoNHu8XifHmaJofXyo-9" value="StocksController" style="rounded=0;whiteSpace=wrap;html=1;labelBackgroundColor=none;sketch=0;fontSize=11;strokeColor=default;fillStyle=hachure;fontStyle=0;shadow=0;glass=0;fontColor=default;fillColor=default;" parent="NRFoNHu8XifHmaJofXyo-1" vertex="1">
                    <mxGeometry x="310" y="1350" width="250" height="40" as="geometry"/>
                </mxCell>
                <mxCell id="NRFoNHu8XifHmaJofXyo-10" value="" style="endArrow=classic;html=1;shadow=0;fontFamily=Helvetica;fontSize=13;fontColor=default;strokeColor=default;" parent="NRFoNHu8XifHmaJofXyo-1" edge="1">
                    <mxGeometry width="50" height="50" relative="1" as="geometry">
                        <mxPoint x="364.86" y="1390" as="sourcePoint"/>
                        <mxPoint x="364.86" y="1410" as="targetPoint"/>
                    </mxGeometry>
                </mxCell>
                <mxCell id="NRFoNHu8XifHmaJofXyo-11" value="" style="endArrow=classic;html=1;shadow=0;fontFamily=Helvetica;fontSize=13;fontColor=default;strokeColor=default;" parent="NRFoNHu8XifHmaJofXyo-1" edge="1">
                    <mxGeometry width="50" height="50" relative="1" as="geometry">
                        <mxPoint x="199.82999999999993" y="1450" as="sourcePoint"/>
                        <mxPoint x="199.82999999999993" y="1470" as="targetPoint"/>
                    </mxGeometry>
                </mxCell>
                <mxCell id="NRFoNHu8XifHmaJofXyo-12" value="Figure 15.2" style="text;html=1;align=center;verticalAlign=middle;resizable=0;points=[];autosize=1;fontSize=12;fontColor=default;strokeColor=default;" parent="NRFoNHu8XifHmaJofXyo-1" vertex="1">
                    <mxGeometry x="290" y="1600" width="80" height="20" as="geometry"/>
                </mxCell>
                <mxCell id="NRFoNHu8XifHmaJofXyo-13" value="RemoveStocks" style="rounded=0;whiteSpace=wrap;html=1;labelBackgroundColor=none;sketch=0;fontSize=11;strokeColor=default;fillStyle=hachure;fontStyle=0;shadow=0;glass=0;fontColor=default;fillColor=default;" parent="NRFoNHu8XifHmaJofXyo-1" vertex="1">
                    <mxGeometry x="450" y="1410" width="110" height="40" as="geometry"/>
                </mxCell>
                <mxCell id="NRFoNHu8XifHmaJofXyo-14" value="" style="endArrow=classic;html=1;shadow=0;fontFamily=Helvetica;fontSize=13;fontColor=default;strokeColor=default;" parent="NRFoNHu8XifHmaJofXyo-1" edge="1">
                    <mxGeometry width="50" height="50" relative="1" as="geometry">
                        <mxPoint x="504.86" y="1450" as="sourcePoint"/>
                        <mxPoint x="504.86" y="1470" as="targetPoint"/>
                    </mxGeometry>
                </mxCell>
                <mxCell id="NRFoNHu8XifHmaJofXyo-15" value="" style="endArrow=classic;html=1;shadow=0;fontFamily=Helvetica;fontSize=13;fontColor=default;strokeColor=default;" parent="NRFoNHu8XifHmaJofXyo-1" edge="1">
                    <mxGeometry width="50" height="50" relative="1" as="geometry">
                        <mxPoint x="504.86" y="1390" as="sourcePoint"/>
                        <mxPoint x="504.86" y="1410" as="targetPoint"/>
                    </mxGeometry>
                </mxCell>
                <mxCell id="NRFoNHu8XifHmaJofXyo-18" value="Data" style="rounded=0;whiteSpace=wrap;html=1;labelBackgroundColor=none;sketch=0;fillColor=default;fontSize=13;strokeColor=default;fontStyle=1;fontColor=default;gradientColor=none;" parent="NRFoNHu8XifHmaJofXyo-1" vertex="1">
                    <mxGeometry x="100" y="1470" width="460" height="40" as="geometry"/>
                </mxCell>
                <mxCell id="NRFoNHu8XifHmaJofXyo-19" value="Model (Product)" style="rounded=0;whiteSpace=wrap;html=1;labelBackgroundColor=none;sketch=0;fillColor=default;fontSize=11;strokeColor=default;fontColor=default;fontStyle=0" parent="NRFoNHu8XifHmaJofXyo-1" vertex="1">
                    <mxGeometry x="100" y="1510" width="230" height="30" as="geometry"/>
                </mxCell>
                <mxCell id="NRFoNHu8XifHmaJofXyo-20" value="Persistence (DbContext)" style="rounded=0;whiteSpace=wrap;html=1;labelBackgroundColor=none;sketch=0;fillColor=default;fontSize=11;strokeColor=default;fontColor=default;spacing=2;fontStyle=0" parent="NRFoNHu8XifHmaJofXyo-1" vertex="1">
                    <mxGeometry x="330" y="1510" width="230" height="30" as="geometry"/>
                </mxCell>
                <mxCell id="NRFoNHu8XifHmaJofXyo-24" value="Figure 15.4" style="text;html=1;align=center;verticalAlign=middle;resizable=0;points=[];autosize=1;fontSize=12;fontColor=#333333;" parent="NRFoNHu8XifHmaJofXyo-1" vertex="1">
                    <mxGeometry x="870" y="1640" width="80" height="20" as="geometry"/>
                </mxCell>
                <mxCell id="HMKlNcfsrmp8i-vNm9QX-9" value="Figure 15.5" style="text;html=1;align=center;verticalAlign=middle;resizable=0;points=[];autosize=1;fontSize=12;fontColor=#333333;" parent="NRFoNHu8XifHmaJofXyo-1" vertex="1">
                    <mxGeometry x="870" y="1410" width="80" height="20" as="geometry"/>
                </mxCell>
                <mxCell id="HMKlNcfsrmp8i-vNm9QX-10" value="Request&amp;nbsp;" style="rounded=0;whiteSpace=wrap;html=1;labelBackgroundColor=none;sketch=0;fontSize=11;strokeColor=default;fillStyle=hachure;fontStyle=1;shadow=0;glass=0;fontColor=default;fillColor=default;align=right;" parent="NRFoNHu8XifHmaJofXyo-1" vertex="1">
                    <mxGeometry x="760" y="1250" width="90" height="40" as="geometry"/>
                </mxCell>
                <mxCell id="HMKlNcfsrmp8i-vNm9QX-11" value="Validator&amp;nbsp;" style="rounded=0;whiteSpace=wrap;html=1;labelBackgroundColor=none;sketch=0;fontSize=11;strokeColor=default;fillStyle=hachure;fontStyle=1;shadow=0;glass=0;fontColor=default;fillColor=default;align=right;" parent="NRFoNHu8XifHmaJofXyo-1" vertex="1">
                    <mxGeometry x="930" y="1250" width="90" height="40" as="geometry"/>
                </mxCell>
                <mxCell id="HMKlNcfsrmp8i-vNm9QX-12" value="&amp;nbsp;Handler" style="rounded=0;whiteSpace=wrap;html=1;labelBackgroundColor=none;sketch=0;fontSize=11;strokeColor=default;fillStyle=hachure;fontStyle=1;shadow=0;glass=0;fontColor=default;fillColor=default;align=left;" parent="NRFoNHu8XifHmaJofXyo-1" vertex="1">
                    <mxGeometry x="880" y="1320" width="90" height="40" as="geometry"/>
                </mxCell>
                <mxCell id="HMKlNcfsrmp8i-vNm9QX-13" value="Input" style="ellipse;whiteSpace=wrap;html=1;aspect=fixed;sketch=0;strokeColor=default;fillColor=default;fontSize=11;fontColor=default;align=center;rounded=0;shadow=0;fontStyle=0;glass=0;fillStyle=hachure;" parent="NRFoNHu8XifHmaJofXyo-1" vertex="1">
                    <mxGeometry x="720" y="1240" width="60" height="60" as="geometry"/>
                </mxCell>
                <mxCell id="HMKlNcfsrmp8i-vNm9QX-14" value="Validation" style="ellipse;whiteSpace=wrap;html=1;aspect=fixed;sketch=0;strokeColor=default;fillColor=default;fontSize=11;fontColor=default;align=center;rounded=0;shadow=0;fontStyle=0;glass=0;fillStyle=hachure;" parent="NRFoNHu8XifHmaJofXyo-1" vertex="1">
                    <mxGeometry x="880" y="1240" width="60" height="60" as="geometry"/>
                </mxCell>
                <mxCell id="HMKlNcfsrmp8i-vNm9QX-15" value="Logic" style="ellipse;whiteSpace=wrap;html=1;aspect=fixed;sketch=0;strokeColor=default;fillColor=default;fontSize=11;fontColor=default;align=center;rounded=0;shadow=0;fontStyle=0;glass=0;fillStyle=hachure;" parent="NRFoNHu8XifHmaJofXyo-1" vertex="1">
                    <mxGeometry x="960" y="1310" width="60" height="60" as="geometry"/>
                </mxCell>
                <mxCell id="HMKlNcfsrmp8i-vNm9QX-16" value="" style="endArrow=classic;html=1;shadow=0;fontFamily=Helvetica;fontSize=13;fontColor=#666666;strokeColor=default;" parent="NRFoNHu8XifHmaJofXyo-1" source="HMKlNcfsrmp8i-vNm9QX-10" target="HMKlNcfsrmp8i-vNm9QX-14" edge="1">
                    <mxGeometry width="50" height="50" relative="1" as="geometry">
                        <mxPoint x="770.0000000000003" y="1300" as="sourcePoint"/>
                        <mxPoint x="770.0000000000003" y="1320" as="targetPoint"/>
                    </mxGeometry>
                </mxCell>
                <mxCell id="HMKlNcfsrmp8i-vNm9QX-17" value="" style="endArrow=classic;html=1;shadow=0;fontFamily=Helvetica;fontSize=13;fontColor=#666666;strokeColor=default;exitX=1;exitY=0.5;exitDx=0;exitDy=0;entryX=1;entryY=0.5;entryDx=0;entryDy=0;rounded=0;" parent="NRFoNHu8XifHmaJofXyo-1" source="HMKlNcfsrmp8i-vNm9QX-11" target="HMKlNcfsrmp8i-vNm9QX-15" edge="1">
                    <mxGeometry width="50" height="50" relative="1" as="geometry">
                        <mxPoint x="900" y="1280" as="sourcePoint"/>
                        <mxPoint x="930" y="1280" as="targetPoint"/>
                        <Array as="points">
                            <mxPoint x="1050" y="1270"/>
                            <mxPoint x="1050" y="1340"/>
                        </Array>
                    </mxGeometry>
                </mxCell>
                <mxCell id="HMKlNcfsrmp8i-vNm9QX-18" value="" style="endArrow=classic;html=1;shadow=0;fontFamily=Helvetica;fontSize=13;fontColor=#666666;strokeColor=default;" parent="NRFoNHu8XifHmaJofXyo-1" source="HMKlNcfsrmp8i-vNm9QX-12" target="HMKlNcfsrmp8i-vNm9QX-21" edge="1">
                    <mxGeometry width="50" height="50" relative="1" as="geometry">
                        <mxPoint x="910" y="1340" as="sourcePoint"/>
                        <mxPoint x="1199.9999999999986" y="1259.5" as="targetPoint"/>
                    </mxGeometry>
                </mxCell>
                <mxCell id="HMKlNcfsrmp8i-vNm9QX-19" value="" style="endArrow=classic;html=1;shadow=0;fontFamily=Helvetica;fontSize=13;fontColor=#666666;strokeColor=default;" parent="NRFoNHu8XifHmaJofXyo-1" edge="1">
                    <mxGeometry width="50" height="50" relative="1" as="geometry">
                        <mxPoint x="690" y="1269.86" as="sourcePoint"/>
                        <mxPoint x="719.9999999999986" y="1269.86" as="targetPoint"/>
                    </mxGeometry>
                </mxCell>
                <mxCell id="HMKlNcfsrmp8i-vNm9QX-20" value="&amp;nbsp;Result&amp;nbsp;" style="rounded=0;whiteSpace=wrap;html=1;labelBackgroundColor=none;sketch=0;fontSize=11;strokeColor=default;fillStyle=hachure;fontStyle=1;shadow=0;glass=0;fontColor=default;fillColor=default;align=left;" parent="NRFoNHu8XifHmaJofXyo-1" vertex="1">
                    <mxGeometry x="720" y="1320" width="80" height="40" as="geometry"/>
                </mxCell>
                <mxCell id="HMKlNcfsrmp8i-vNm9QX-21" value="Output" style="ellipse;whiteSpace=wrap;html=1;aspect=fixed;sketch=0;strokeColor=default;fillColor=default;fontSize=11;fontColor=default;align=center;rounded=0;shadow=0;fontStyle=0;glass=0;fillStyle=hachure;" parent="NRFoNHu8XifHmaJofXyo-1" vertex="1">
                    <mxGeometry x="790" y="1310" width="60" height="60" as="geometry"/>
                </mxCell>
                <mxCell id="HMKlNcfsrmp8i-vNm9QX-24" value="Request&amp;nbsp;" style="rounded=0;whiteSpace=wrap;html=1;labelBackgroundColor=none;sketch=0;fontSize=11;strokeColor=default;fillStyle=hachure;fontStyle=1;shadow=0;glass=0;fontColor=default;fillColor=default;align=right;" parent="NRFoNHu8XifHmaJofXyo-1" vertex="1">
                    <mxGeometry x="760" y="1490" width="90" height="40" as="geometry"/>
                </mxCell>
                <mxCell id="HMKlNcfsrmp8i-vNm9QX-27" value="Input" style="ellipse;whiteSpace=wrap;html=1;aspect=fixed;sketch=0;strokeColor=default;fillColor=default;fontSize=11;fontColor=default;align=center;rounded=0;shadow=0;fontStyle=0;glass=0;fillStyle=hachure;" parent="NRFoNHu8XifHmaJofXyo-1" vertex="1">
                    <mxGeometry x="720" y="1480" width="60" height="60" as="geometry"/>
                </mxCell>
                <mxCell id="HMKlNcfsrmp8i-vNm9QX-30" value="" style="endArrow=classic;html=1;shadow=0;fontFamily=Helvetica;fontSize=13;fontColor=#666666;strokeColor=default;entryX=0.5;entryY=0;entryDx=0;entryDy=0;edgeStyle=orthogonalEdgeStyle;rounded=0;" parent="NRFoNHu8XifHmaJofXyo-1" source="HMKlNcfsrmp8i-vNm9QX-24" target="HMKlNcfsrmp8i-vNm9QX-36" edge="1">
                    <mxGeometry width="50" height="50" relative="1" as="geometry">
                        <mxPoint x="770.0000000000003" y="1540" as="sourcePoint"/>
                        <mxPoint x="880" y="1510" as="targetPoint"/>
                    </mxGeometry>
                </mxCell>
                <mxCell id="HMKlNcfsrmp8i-vNm9QX-33" value="" style="endArrow=classic;html=1;shadow=0;fontFamily=Helvetica;fontSize=13;fontColor=#666666;strokeColor=default;" parent="NRFoNHu8XifHmaJofXyo-1" edge="1">
                    <mxGeometry width="50" height="50" relative="1" as="geometry">
                        <mxPoint x="690" y="1509.86" as="sourcePoint"/>
                        <mxPoint x="719.9999999999986" y="1509.86" as="targetPoint"/>
                    </mxGeometry>
                </mxCell>
                <mxCell id="HMKlNcfsrmp8i-vNm9QX-34" value="" style="endArrow=classic;html=1;shadow=0;fontFamily=Helvetica;fontSize=13;fontColor=#666666;strokeColor=default;" parent="NRFoNHu8XifHmaJofXyo-1" source="HMKlNcfsrmp8i-vNm9QX-20" edge="1">
                    <mxGeometry width="50" height="50" relative="1" as="geometry">
                        <mxPoint x="680" y="1339.43" as="sourcePoint"/>
                        <mxPoint x="690" y="1339" as="targetPoint"/>
                    </mxGeometry>
                </mxCell>
                <mxCell id="HMKlNcfsrmp8i-vNm9QX-35" value="&amp;nbsp;Handler" style="rounded=0;whiteSpace=wrap;html=1;labelBackgroundColor=none;sketch=0;fontSize=11;strokeColor=default;fillStyle=hachure;fontStyle=1;shadow=0;glass=0;fontColor=default;fillColor=default;align=left;" parent="NRFoNHu8XifHmaJofXyo-1" vertex="1">
                    <mxGeometry x="880" y="1560" width="90" height="40" as="geometry"/>
                </mxCell>
                <mxCell id="HMKlNcfsrmp8i-vNm9QX-36" value="Logic" style="ellipse;whiteSpace=wrap;html=1;aspect=fixed;sketch=0;strokeColor=default;fillColor=default;fontSize=11;fontColor=default;align=center;rounded=0;shadow=0;fontStyle=0;glass=0;fillStyle=hachure;" parent="NRFoNHu8XifHmaJofXyo-1" vertex="1">
                    <mxGeometry x="960" y="1550" width="60" height="60" as="geometry"/>
                </mxCell>
                <mxCell id="HMKlNcfsrmp8i-vNm9QX-37" value="" style="endArrow=classic;html=1;shadow=0;fontFamily=Helvetica;fontSize=13;fontColor=#666666;strokeColor=default;" parent="NRFoNHu8XifHmaJofXyo-1" source="HMKlNcfsrmp8i-vNm9QX-35" target="HMKlNcfsrmp8i-vNm9QX-39" edge="1">
                    <mxGeometry width="50" height="50" relative="1" as="geometry">
                        <mxPoint x="910" y="1580" as="sourcePoint"/>
                        <mxPoint x="1199.9999999999986" y="1499.5" as="targetPoint"/>
                    </mxGeometry>
                </mxCell>
                <mxCell id="HMKlNcfsrmp8i-vNm9QX-38" value="&amp;nbsp;Result&amp;nbsp;" style="rounded=0;whiteSpace=wrap;html=1;labelBackgroundColor=none;sketch=0;fontSize=11;strokeColor=default;fillStyle=hachure;fontStyle=1;shadow=0;glass=0;fontColor=default;fillColor=default;align=left;" parent="NRFoNHu8XifHmaJofXyo-1" vertex="1">
                    <mxGeometry x="720" y="1560" width="80" height="40" as="geometry"/>
                </mxCell>
                <mxCell id="HMKlNcfsrmp8i-vNm9QX-39" value="Output" style="ellipse;whiteSpace=wrap;html=1;aspect=fixed;sketch=0;strokeColor=default;fillColor=default;fontSize=11;fontColor=default;align=center;rounded=0;shadow=0;fontStyle=0;glass=0;fillStyle=hachure;" parent="NRFoNHu8XifHmaJofXyo-1" vertex="1">
                    <mxGeometry x="790" y="1550" width="60" height="60" as="geometry"/>
                </mxCell>
                <mxCell id="HMKlNcfsrmp8i-vNm9QX-40" value="" style="endArrow=classic;html=1;shadow=0;fontFamily=Helvetica;fontSize=13;fontColor=#666666;strokeColor=default;" parent="NRFoNHu8XifHmaJofXyo-1" source="HMKlNcfsrmp8i-vNm9QX-38" edge="1">
                    <mxGeometry width="50" height="50" relative="1" as="geometry">
                        <mxPoint x="680" y="1579.43" as="sourcePoint"/>
                        <mxPoint x="690" y="1579" as="targetPoint"/>
                    </mxGeometry>
                </mxCell>
                <mxCell id="HMKlNcfsrmp8i-vNm9QX-52" value="Features" style="rounded=1;whiteSpace=wrap;html=1;fillColor=default;fontSize=13;align=center;verticalAlign=top;fontStyle=1;dashed=1;strokeColor=default;fontColor=default;fillStyle=auto;opacity=50;" parent="NRFoNHu8XifHmaJofXyo-1" vertex="1">
                    <mxGeometry x="1110" y="1280" width="140" height="360" as="geometry"/>
                </mxCell>
                <mxCell id="HMKlNcfsrmp8i-vNm9QX-54" value="Groups" style="rounded=1;whiteSpace=wrap;html=1;fillColor=default;fontSize=13;align=center;verticalAlign=top;fontStyle=1;dashed=1;strokeColor=default;fontColor=default;fillStyle=auto;opacity=50;" parent="NRFoNHu8XifHmaJofXyo-1" vertex="1">
                    <mxGeometry x="1260" y="1280" width="130" height="360" as="geometry"/>
                </mxCell>
                <mxCell id="HMKlNcfsrmp8i-vNm9QX-55" value="Features" style="rounded=1;whiteSpace=wrap;html=1;fillColor=default;fontSize=13;align=center;verticalAlign=top;fontStyle=1;dashed=1;strokeColor=default;fontColor=default;fillStyle=auto;opacity=50;" parent="NRFoNHu8XifHmaJofXyo-1" vertex="1">
                    <mxGeometry x="1400" y="1280" width="140" height="360" as="geometry"/>
                </mxCell>
                <mxCell id="HMKlNcfsrmp8i-vNm9QX-56" value="Components" style="rounded=1;whiteSpace=wrap;html=1;fillColor=default;fontSize=13;align=center;verticalAlign=top;fontStyle=1;dashed=1;strokeColor=default;fontColor=default;fillStyle=auto;opacity=50;" parent="NRFoNHu8XifHmaJofXyo-1" vertex="1">
                    <mxGeometry x="1550" y="1280" width="140" height="360" as="geometry"/>
                </mxCell>
                <mxCell id="HMKlNcfsrmp8i-vNm9QX-81" style="edgeStyle=elbowEdgeStyle;rounded=0;orthogonalLoop=1;jettySize=auto;html=1;fontSize=13;fontColor=#666666;" parent="NRFoNHu8XifHmaJofXyo-1" source="HMKlNcfsrmp8i-vNm9QX-57" target="HMKlNcfsrmp8i-vNm9QX-59" edge="1">
                    <mxGeometry relative="1" as="geometry">
                        <mxPoint x="1210" y="1518" as="sourcePoint"/>
                        <Array as="points">
                            <mxPoint x="1240" y="1510"/>
                            <mxPoint x="1240" y="1518"/>
                        </Array>
                    </mxGeometry>
                </mxCell>
                <mxCell id="HMKlNcfsrmp8i-vNm9QX-82" style="edgeStyle=elbowEdgeStyle;rounded=0;orthogonalLoop=1;jettySize=auto;html=1;fontSize=13;fontColor=#666666;" parent="NRFoNHu8XifHmaJofXyo-1" source="HMKlNcfsrmp8i-vNm9QX-57" target="HMKlNcfsrmp8i-vNm9QX-58" edge="1">
                    <mxGeometry relative="1" as="geometry">
                        <Array as="points">
                            <mxPoint x="1240" y="1510"/>
                            <mxPoint x="1240" y="1568"/>
                        </Array>
                    </mxGeometry>
                </mxCell>
                <mxCell id="HMKlNcfsrmp8i-vNm9QX-57" value="Features" style="aspect=fixed;html=1;points=[];align=center;image;fontSize=11;image=img/lib/azure2/general/Folder_Blank.svg;dashed=1;sketch=0;strokeColor=#B3B3B3;fillColor=#FFFFFF;fontColor=default;fontStyle=0;labelBackgroundColor=none;" parent="NRFoNHu8XifHmaJofXyo-1" vertex="1">
                    <mxGeometry x="1145.5" y="1484" width="69" height="56.00000000000001" as="geometry"/>
                </mxCell>
                <mxCell id="HMKlNcfsrmp8i-vNm9QX-58" value="..." style="aspect=fixed;html=1;points=[];align=center;image;fontSize=11;image=img/lib/azure2/general/Folder_Blank.svg;dashed=1;sketch=0;strokeColor=#B3B3B3;fillColor=#FFFFFF;fontColor=default;fontStyle=0;labelBackgroundColor=none;" parent="NRFoNHu8XifHmaJofXyo-1" vertex="1">
                    <mxGeometry x="1290.5" y="1540" width="69" height="56.00000000000001" as="geometry"/>
                </mxCell>
                <mxCell id="HMKlNcfsrmp8i-vNm9QX-75" style="edgeStyle=orthogonalEdgeStyle;rounded=0;orthogonalLoop=1;jettySize=auto;html=1;fontSize=13;fontColor=#666666;" parent="NRFoNHu8XifHmaJofXyo-1" source="HMKlNcfsrmp8i-vNm9QX-59" target="HMKlNcfsrmp8i-vNm9QX-60" edge="1">
                    <mxGeometry relative="1" as="geometry">
                        <mxPoint x="1369" y="1455.009708737864" as="sourcePoint"/>
                        <mxPoint x="1439.5000000000002" y="1370" as="targetPoint"/>
                        <Array as="points">
                            <mxPoint x="1394" y="1455"/>
                            <mxPoint x="1394" y="1370"/>
                        </Array>
                    </mxGeometry>
                </mxCell>
                <mxCell id="HMKlNcfsrmp8i-vNm9QX-76" style="edgeStyle=orthogonalEdgeStyle;rounded=0;orthogonalLoop=1;jettySize=auto;html=1;fontSize=13;fontColor=#666666;entryX=0;entryY=0.5;entryDx=0;entryDy=0;" parent="NRFoNHu8XifHmaJofXyo-1" source="HMKlNcfsrmp8i-vNm9QX-59" target="HMKlNcfsrmp8i-vNm9QX-62" edge="1">
                    <mxGeometry relative="1" as="geometry">
                        <mxPoint x="1369" y="1455" as="sourcePoint"/>
                        <mxPoint x="1419.5000000000002" y="1445" as="targetPoint"/>
                        <Array as="points">
                            <mxPoint x="1394" y="1455"/>
                            <mxPoint x="1394" y="1445"/>
                        </Array>
                    </mxGeometry>
                </mxCell>
                <mxCell id="HMKlNcfsrmp8i-vNm9QX-77" style="edgeStyle=elbowEdgeStyle;rounded=0;orthogonalLoop=1;jettySize=auto;html=1;fontSize=13;fontColor=#666666;" parent="NRFoNHu8XifHmaJofXyo-1" source="HMKlNcfsrmp8i-vNm9QX-59" target="HMKlNcfsrmp8i-vNm9QX-63" edge="1">
                    <mxGeometry relative="1" as="geometry">
                        <mxPoint x="1369" y="1455" as="sourcePoint"/>
                        <mxPoint x="1419.5000000000002" y="1485" as="targetPoint"/>
                        <Array as="points">
                            <mxPoint x="1394" y="1485"/>
                        </Array>
                    </mxGeometry>
                </mxCell>
                <mxCell id="HMKlNcfsrmp8i-vNm9QX-78" style="edgeStyle=orthogonalEdgeStyle;rounded=0;orthogonalLoop=1;jettySize=auto;html=1;fontSize=13;fontColor=#666666;" parent="NRFoNHu8XifHmaJofXyo-1" source="HMKlNcfsrmp8i-vNm9QX-59" target="HMKlNcfsrmp8i-vNm9QX-65" edge="1">
                    <mxGeometry relative="1" as="geometry">
                        <mxPoint x="1369" y="1455" as="sourcePoint"/>
                        <mxPoint x="1420" y="1524.9999999999998" as="targetPoint"/>
                        <Array as="points">
                            <mxPoint x="1394" y="1455"/>
                            <mxPoint x="1394" y="1525"/>
                        </Array>
                    </mxGeometry>
                </mxCell>
                <mxCell id="HMKlNcfsrmp8i-vNm9QX-59" value="Shipments" style="aspect=fixed;html=1;points=[];align=center;image;fontSize=11;image=img/lib/azure2/general/Folder_Blank.svg;dashed=1;sketch=0;strokeColor=#B3B3B3;fillColor=#FFFFFF;fontColor=default;fontStyle=0;labelBackgroundColor=none;" parent="NRFoNHu8XifHmaJofXyo-1" vertex="1">
                    <mxGeometry x="1290.5" y="1427.19" width="69" height="56.00000000000001" as="geometry"/>
                </mxCell>
                <mxCell id="HMKlNcfsrmp8i-vNm9QX-71" style="edgeStyle=elbowEdgeStyle;rounded=0;orthogonalLoop=1;jettySize=auto;html=1;fontSize=13;fontColor=#666666;" parent="NRFoNHu8XifHmaJofXyo-1" source="HMKlNcfsrmp8i-vNm9QX-60" target="HMKlNcfsrmp8i-vNm9QX-67" edge="1">
                    <mxGeometry relative="1" as="geometry">
                        <Array as="points">
                            <mxPoint x="1535" y="1370"/>
                        </Array>
                    </mxGeometry>
                </mxCell>
                <mxCell id="HMKlNcfsrmp8i-vNm9QX-72" style="edgeStyle=orthogonalEdgeStyle;rounded=0;orthogonalLoop=1;jettySize=auto;html=1;fontSize=13;fontColor=#666666;" parent="NRFoNHu8XifHmaJofXyo-1" source="HMKlNcfsrmp8i-vNm9QX-60" target="HMKlNcfsrmp8i-vNm9QX-68" edge="1">
                    <mxGeometry relative="1" as="geometry">
                        <Array as="points">
                            <mxPoint x="1535" y="1370"/>
                            <mxPoint x="1535" y="1388"/>
                        </Array>
                    </mxGeometry>
                </mxCell>
                <mxCell id="HMKlNcfsrmp8i-vNm9QX-73" style="edgeStyle=elbowEdgeStyle;rounded=0;orthogonalLoop=1;jettySize=auto;html=1;fontSize=13;fontColor=#666666;" parent="NRFoNHu8XifHmaJofXyo-1" source="HMKlNcfsrmp8i-vNm9QX-60" target="HMKlNcfsrmp8i-vNm9QX-69" edge="1">
                    <mxGeometry relative="1" as="geometry">
                        <Array as="points">
                            <mxPoint x="1535" y="1410"/>
                        </Array>
                    </mxGeometry>
                </mxCell>
                <mxCell id="HMKlNcfsrmp8i-vNm9QX-74" style="edgeStyle=elbowEdgeStyle;rounded=0;orthogonalLoop=1;jettySize=auto;html=1;fontSize=13;fontColor=#666666;" parent="NRFoNHu8XifHmaJofXyo-1" source="HMKlNcfsrmp8i-vNm9QX-60" target="HMKlNcfsrmp8i-vNm9QX-70" edge="1">
                    <mxGeometry relative="1" as="geometry">
                        <Array as="points">
                            <mxPoint x="1535" y="1420"/>
                        </Array>
                    </mxGeometry>
                </mxCell>
                <mxCell id="HMKlNcfsrmp8i-vNm9QX-60" value="Create" style="aspect=fixed;html=1;points=[];align=center;image;fontSize=11;image=img/lib/azure2/general/Folder_Blank.svg;dashed=1;sketch=0;strokeColor=#B3B3B3;fillColor=#FFFFFF;fontColor=default;fontStyle=0;labelBackgroundColor=none;" parent="NRFoNHu8XifHmaJofXyo-1" vertex="1">
                    <mxGeometry x="1435" y="1341.6000000000001" width="70" height="56.81" as="geometry"/>
                </mxCell>
                <mxCell id="HMKlNcfsrmp8i-vNm9QX-62" value="Exceptions" style="rounded=0;whiteSpace=wrap;html=1;sketch=0;strokeColor=default;fillColor=default;fontSize=11;align=center;fontColor=default;" parent="NRFoNHu8XifHmaJofXyo-1" vertex="1">
                    <mxGeometry x="1420" y="1430" width="110" height="30" as="geometry"/>
                </mxCell>
                <mxCell id="HMKlNcfsrmp8i-vNm9QX-63" value="Helpers" style="rounded=0;whiteSpace=wrap;html=1;sketch=0;strokeColor=default;fillColor=default;fontSize=11;align=center;fontColor=default;" parent="NRFoNHu8XifHmaJofXyo-1" vertex="1">
                    <mxGeometry x="1420" y="1470" width="110" height="30" as="geometry"/>
                </mxCell>
                <mxCell id="HMKlNcfsrmp8i-vNm9QX-65" value="..." style="rounded=0;whiteSpace=wrap;html=1;sketch=0;strokeColor=default;fillColor=default;fontSize=11;align=center;fontColor=default;" parent="NRFoNHu8XifHmaJofXyo-1" vertex="1">
                    <mxGeometry x="1420" y="1510" width="110" height="30" as="geometry"/>
                </mxCell>
                <mxCell id="HMKlNcfsrmp8i-vNm9QX-67" value="Handlers" style="rounded=0;whiteSpace=wrap;html=1;sketch=0;strokeColor=default;fillColor=default;fontSize=11;align=center;fontColor=default;" parent="NRFoNHu8XifHmaJofXyo-1" vertex="1">
                    <mxGeometry x="1570" y="1333.19" width="110" height="30" as="geometry"/>
                </mxCell>
                <mxCell id="HMKlNcfsrmp8i-vNm9QX-68" value="Exceptions" style="rounded=0;whiteSpace=wrap;html=1;sketch=0;strokeColor=default;fillColor=default;fontSize=11;align=center;fontColor=default;" parent="NRFoNHu8XifHmaJofXyo-1" vertex="1">
                    <mxGeometry x="1570" y="1373.19" width="110" height="30" as="geometry"/>
                </mxCell>
                <mxCell id="HMKlNcfsrmp8i-vNm9QX-69" value="Views" style="rounded=0;whiteSpace=wrap;html=1;sketch=0;strokeColor=default;fillColor=default;fontSize=11;align=center;fontColor=default;" parent="NRFoNHu8XifHmaJofXyo-1" vertex="1">
                    <mxGeometry x="1570" y="1413.19" width="110" height="30" as="geometry"/>
                </mxCell>
                <mxCell id="HMKlNcfsrmp8i-vNm9QX-70" value="Commands" style="rounded=0;whiteSpace=wrap;html=1;sketch=0;strokeColor=default;fillColor=default;fontSize=11;align=center;fontColor=default;" parent="NRFoNHu8XifHmaJofXyo-1" vertex="1">
                    <mxGeometry x="1570" y="1453.19" width="110" height="30" as="geometry"/>
                </mxCell>
                <mxCell id="HMKlNcfsrmp8i-vNm9QX-85" value="Figure 15.11" style="text;html=1;align=center;verticalAlign=middle;resizable=0;points=[];autosize=1;fontSize=12;fontColor=default;" parent="NRFoNHu8XifHmaJofXyo-1" vertex="1">
                    <mxGeometry x="1350" y="1750" width="80" height="20" as="geometry"/>
                </mxCell>
                <mxCell id="HMKlNcfsrmp8i-vNm9QX-86" value="Figure 15.12" style="text;html=1;align=center;verticalAlign=middle;resizable=0;points=[];autosize=1;fontSize=12;fontColor=#333333;" parent="NRFoNHu8XifHmaJofXyo-1" vertex="1">
                    <mxGeometry x="2040" y="1640" width="80" height="20" as="geometry"/>
                </mxCell>
                <mxCell id="HMKlNcfsrmp8i-vNm9QX-87" value="Step N Slice" style="rounded=1;whiteSpace=wrap;html=1;sketch=0;fillColor=default;fontSize=13;align=center;verticalAlign=top;fontStyle=1;fontColor=default;strokeColor=default;" parent="NRFoNHu8XifHmaJofXyo-1" vertex="1">
                    <mxGeometry x="1990" y="1360" width="90" height="210" as="geometry"/>
                </mxCell>
                <mxCell id="HMKlNcfsrmp8i-vNm9QX-88" value="Step 2 Slice" style="rounded=1;whiteSpace=wrap;html=1;sketch=0;fillColor=default;fontSize=13;align=center;verticalAlign=top;fontStyle=1;fontColor=default;strokeColor=default;" parent="NRFoNHu8XifHmaJofXyo-1" vertex="1">
                    <mxGeometry x="1890" y="1360" width="90" height="210" as="geometry"/>
                </mxCell>
                <mxCell id="HMKlNcfsrmp8i-vNm9QX-89" value="Step 1 Slice" style="rounded=1;whiteSpace=wrap;html=1;sketch=0;fillColor=default;fontSize=13;align=center;verticalAlign=top;fontStyle=1;fontColor=default;strokeColor=default;" parent="NRFoNHu8XifHmaJofXyo-1" vertex="1">
                    <mxGeometry x="1790" y="1360" width="90" height="210" as="geometry"/>
                </mxCell>
                <mxCell id="HMKlNcfsrmp8i-vNm9QX-90" value="Shared Create Shipment Code" style="rounded=0;whiteSpace=wrap;html=1;labelBackgroundColor=none;sketch=0;fontSize=12;strokeColor=default;fillStyle=hachure;fontStyle=2;shadow=0;glass=0;fontColor=default;fillColor=default;" parent="NRFoNHu8XifHmaJofXyo-1" vertex="1">
                    <mxGeometry x="1800" y="1450" width="270" height="40" as="geometry"/>
                </mxCell>
                <mxCell id="HMKlNcfsrmp8i-vNm9QX-91" value="Step 1&lt;br&gt;Code" style="rounded=0;whiteSpace=wrap;html=1;labelBackgroundColor=none;sketch=0;fontSize=12;strokeColor=default;fillStyle=hachure;fontStyle=0;shadow=0;glass=0;fontColor=default;fillColor=default;" parent="NRFoNHu8XifHmaJofXyo-1" vertex="1">
                    <mxGeometry x="1800" y="1390" width="70" height="40" as="geometry"/>
                </mxCell>
                <mxCell id="HMKlNcfsrmp8i-vNm9QX-92" value="" style="endArrow=classic;html=1;shadow=0;fontFamily=Helvetica;fontSize=11;fontColor=#666666;strokeColor=default;" parent="NRFoNHu8XifHmaJofXyo-1" edge="1">
                    <mxGeometry width="50" height="50" relative="1" as="geometry">
                        <mxPoint x="1840.17" y="1430" as="sourcePoint"/>
                        <mxPoint x="1840.17" y="1450" as="targetPoint"/>
                    </mxGeometry>
                </mxCell>
                <mxCell id="HMKlNcfsrmp8i-vNm9QX-93" value="Step 2&lt;br&gt;Code" style="rounded=0;whiteSpace=wrap;html=1;labelBackgroundColor=none;sketch=0;fontSize=12;strokeColor=default;fillStyle=hachure;fontStyle=0;shadow=0;glass=0;fontColor=default;fillColor=default;" parent="NRFoNHu8XifHmaJofXyo-1" vertex="1">
                    <mxGeometry x="1900" y="1390" width="70" height="40" as="geometry"/>
                </mxCell>
                <mxCell id="HMKlNcfsrmp8i-vNm9QX-94" value="" style="endArrow=classic;html=1;shadow=0;fontFamily=Helvetica;fontSize=11;fontColor=#666666;strokeColor=default;" parent="NRFoNHu8XifHmaJofXyo-1" edge="1">
                    <mxGeometry width="50" height="50" relative="1" as="geometry">
                        <mxPoint x="1934.8000000000002" y="1490" as="sourcePoint"/>
                        <mxPoint x="1934.8000000000002" y="1510" as="targetPoint"/>
                    </mxGeometry>
                </mxCell>
                <mxCell id="HMKlNcfsrmp8i-vNm9QX-96" value="" style="endArrow=classic;html=1;shadow=0;fontFamily=Helvetica;fontSize=11;fontColor=#666666;strokeColor=default;" parent="NRFoNHu8XifHmaJofXyo-1" edge="1">
                    <mxGeometry width="50" height="50" relative="1" as="geometry">
                        <mxPoint x="1934.8000000000002" y="1430" as="sourcePoint"/>
                        <mxPoint x="1934.8000000000002" y="1450" as="targetPoint"/>
                    </mxGeometry>
                </mxCell>
                <mxCell id="HMKlNcfsrmp8i-vNm9QX-97" value="" style="endArrow=classic;html=1;shadow=0;fontFamily=Helvetica;fontSize=11;fontColor=#666666;strokeColor=default;" parent="NRFoNHu8XifHmaJofXyo-1" edge="1">
                    <mxGeometry width="50" height="50" relative="1" as="geometry">
                        <mxPoint x="1840" y="1490" as="sourcePoint"/>
                        <mxPoint x="1840" y="1510" as="targetPoint"/>
                    </mxGeometry>
                </mxCell>
                <mxCell id="HMKlNcfsrmp8i-vNm9QX-98" value="Step N&lt;br&gt;Code" style="rounded=0;whiteSpace=wrap;html=1;labelBackgroundColor=none;sketch=0;fontSize=12;strokeColor=default;fillStyle=hachure;fontStyle=0;shadow=0;glass=0;fontColor=default;fillColor=default;" parent="NRFoNHu8XifHmaJofXyo-1" vertex="1">
                    <mxGeometry x="2000" y="1390" width="70" height="40" as="geometry"/>
                </mxCell>
                <mxCell id="HMKlNcfsrmp8i-vNm9QX-99" value="" style="endArrow=classic;html=1;shadow=0;fontFamily=Helvetica;fontSize=11;fontColor=#666666;strokeColor=default;" parent="NRFoNHu8XifHmaJofXyo-1" edge="1">
                    <mxGeometry width="50" height="50" relative="1" as="geometry">
                        <mxPoint x="2034.8300000000002" y="1490" as="sourcePoint"/>
                        <mxPoint x="2034.8300000000002" y="1510" as="targetPoint"/>
                    </mxGeometry>
                </mxCell>
                <mxCell id="HMKlNcfsrmp8i-vNm9QX-100" value="" style="endArrow=classic;html=1;shadow=0;fontFamily=Helvetica;fontSize=11;fontColor=#666666;strokeColor=default;" parent="NRFoNHu8XifHmaJofXyo-1" edge="1">
                    <mxGeometry width="50" height="50" relative="1" as="geometry">
                        <mxPoint x="2034.8300000000002" y="1430" as="sourcePoint"/>
                        <mxPoint x="2034.8300000000002" y="1450" as="targetPoint"/>
                    </mxGeometry>
                </mxCell>
                <mxCell id="HMKlNcfsrmp8i-vNm9QX-104" value="Other Slices and Features" style="rounded=1;whiteSpace=wrap;html=1;sketch=0;fillColor=default;fontSize=13;align=center;verticalAlign=middle;fontStyle=1;dashed=1;fontColor=default;strokeColor=default;horizontal=0;" parent="NRFoNHu8XifHmaJofXyo-1" vertex="1">
                    <mxGeometry x="2310" y="1280" width="40" height="310" as="geometry"/>
                </mxCell>
                <mxCell id="HMKlNcfsrmp8i-vNm9QX-106" value="List Slice" style="rounded=1;whiteSpace=wrap;html=1;sketch=0;fillColor=default;fontSize=13;align=center;verticalAlign=top;fontStyle=1;fontColor=default;strokeColor=default;" parent="NRFoNHu8XifHmaJofXyo-1" vertex="1">
                    <mxGeometry x="2100" y="1320" width="90" height="260" as="geometry"/>
                </mxCell>
                <mxCell id="HMKlNcfsrmp8i-vNm9QX-107" value="List&lt;br&gt;Code" style="rounded=0;whiteSpace=wrap;html=1;labelBackgroundColor=none;sketch=0;fontSize=12;strokeColor=default;fillStyle=hachure;fontStyle=0;shadow=0;glass=0;fontColor=default;fillColor=default;" parent="NRFoNHu8XifHmaJofXyo-1" vertex="1">
                    <mxGeometry x="2110" y="1450" width="70" height="40" as="geometry"/>
                </mxCell>
                <mxCell id="HMKlNcfsrmp8i-vNm9QX-108" value="" style="endArrow=classic;html=1;shadow=0;fontFamily=Helvetica;fontSize=11;fontColor=#666666;strokeColor=default;" parent="NRFoNHu8XifHmaJofXyo-1" edge="1">
                    <mxGeometry width="50" height="50" relative="1" as="geometry">
                        <mxPoint x="2144.8800000000006" y="1490" as="sourcePoint"/>
                        <mxPoint x="2144.8800000000006" y="1510" as="targetPoint"/>
                    </mxGeometry>
                </mxCell>
                <mxCell id="HMKlNcfsrmp8i-vNm9QX-109" value="Details Slice" style="rounded=1;whiteSpace=wrap;html=1;sketch=0;fillColor=default;fontSize=13;align=center;verticalAlign=top;fontStyle=1;fontColor=default;strokeColor=default;" parent="NRFoNHu8XifHmaJofXyo-1" vertex="1">
                    <mxGeometry x="2200" y="1320" width="90" height="260" as="geometry"/>
                </mxCell>
                <mxCell id="HMKlNcfsrmp8i-vNm9QX-110" value="Details&lt;br&gt;Code" style="rounded=0;whiteSpace=wrap;html=1;labelBackgroundColor=none;sketch=0;fontSize=12;strokeColor=default;fillStyle=hachure;fontStyle=0;shadow=0;glass=0;fontColor=default;fillColor=default;" parent="NRFoNHu8XifHmaJofXyo-1" vertex="1">
                    <mxGeometry x="2210" y="1450" width="70" height="40" as="geometry"/>
                </mxCell>
                <mxCell id="HMKlNcfsrmp8i-vNm9QX-111" value="" style="endArrow=classic;html=1;shadow=0;fontFamily=Helvetica;fontSize=11;fontColor=#666666;strokeColor=default;" parent="NRFoNHu8XifHmaJofXyo-1" edge="1">
                    <mxGeometry width="50" height="50" relative="1" as="geometry">
                        <mxPoint x="2244.880000000001" y="1490" as="sourcePoint"/>
                        <mxPoint x="2244.880000000001" y="1510" as="targetPoint"/>
                    </mxGeometry>
                </mxCell>
                <mxCell id="HMKlNcfsrmp8i-vNm9QX-105" value="Shared Shipments Management Code" style="rounded=0;whiteSpace=wrap;html=1;labelBackgroundColor=none;sketch=0;fontSize=12;strokeColor=default;fillStyle=hachure;fontStyle=2;shadow=0;glass=0;fontColor=default;fillColor=default;" parent="NRFoNHu8XifHmaJofXyo-1" vertex="1">
                    <mxGeometry x="1800" y="1510" width="480" height="40" as="geometry"/>
                </mxCell>
                <mxCell id="AJzGv6gR3b77Z1c38zc2-0" value="" style="endArrow=none;html=1;" parent="NRFoNHu8XifHmaJofXyo-1" edge="1">
                    <mxGeometry width="50" height="50" relative="1" as="geometry">
                        <mxPoint x="-1040" y="1300" as="sourcePoint"/>
                        <mxPoint x="-800" y="1060" as="targetPoint"/>
                    </mxGeometry>
                </mxCell>
                <mxCell id="AJzGv6gR3b77Z1c38zc2-1" value="" style="endArrow=none;html=1;" parent="NRFoNHu8XifHmaJofXyo-1" edge="1">
                    <mxGeometry width="50" height="50" relative="1" as="geometry">
                        <mxPoint x="5130" y="2510" as="sourcePoint"/>
                        <mxPoint x="5370" y="2190" as="targetPoint"/>
                    </mxGeometry>
                </mxCell>
                <mxCell id="mXEPQpgxA3Jt67eOJuLf-0" value="Data" style="rounded=0;whiteSpace=wrap;html=1;labelBackgroundColor=none;sketch=0;fontSize=11;strokeColor=default;fontStyle=0;shadow=0;glass=0;fontColor=default;fillColor=default;" parent="NRFoNHu8XifHmaJofXyo-1" vertex="1">
                    <mxGeometry x="-680" y="1450" width="200" height="40" as="geometry"/>
                </mxCell>
                <mxCell id="mXEPQpgxA3Jt67eOJuLf-1" value="Domain" style="rounded=0;whiteSpace=wrap;html=1;labelBackgroundColor=none;sketch=0;fontSize=11;strokeColor=default;fontStyle=0;shadow=0;glass=0;fontColor=default;fillColor=default;" parent="NRFoNHu8XifHmaJofXyo-1" vertex="1">
                    <mxGeometry x="-680" y="1390" width="200" height="40" as="geometry"/>
                </mxCell>
                <mxCell id="mXEPQpgxA3Jt67eOJuLf-2" value="Presentation" style="rounded=0;whiteSpace=wrap;html=1;labelBackgroundColor=none;sketch=0;fontSize=11;strokeColor=default;fillStyle=hachure;fontStyle=0;shadow=0;glass=0;fontColor=default;fillColor=default;" parent="NRFoNHu8XifHmaJofXyo-1" vertex="1">
                    <mxGeometry x="-680" y="1330" width="200" height="40" as="geometry"/>
                </mxCell>
                <mxCell id="mXEPQpgxA3Jt67eOJuLf-3" value="" style="endArrow=classic;html=1;shadow=0;fontFamily=Helvetica;fontSize=13;fontColor=#666666;strokeColor=default;" parent="NRFoNHu8XifHmaJofXyo-1" source="mXEPQpgxA3Jt67eOJuLf-2" target="mXEPQpgxA3Jt67eOJuLf-1" edge="1">
                    <mxGeometry width="50" height="50" relative="1" as="geometry">
                        <mxPoint x="-670" y="1360" as="sourcePoint"/>
                        <mxPoint x="-430" y="1360" as="targetPoint"/>
                    </mxGeometry>
                </mxCell>
                <mxCell id="mXEPQpgxA3Jt67eOJuLf-4" value="" style="endArrow=classic;html=1;shadow=0;fontFamily=Helvetica;fontSize=13;fontColor=#666666;strokeColor=default;" parent="NRFoNHu8XifHmaJofXyo-1" source="mXEPQpgxA3Jt67eOJuLf-1" target="mXEPQpgxA3Jt67eOJuLf-0" edge="1">
                    <mxGeometry width="50" height="50" relative="1" as="geometry">
                        <mxPoint x="-670" y="1459.8600000000001" as="sourcePoint"/>
                        <mxPoint x="-430" y="1459.8600000000001" as="targetPoint"/>
                    </mxGeometry>
                </mxCell>
                <mxCell id="mXEPQpgxA3Jt67eOJuLf-5" value="Figure 14.1" style="text;html=1;align=center;verticalAlign=middle;resizable=0;points=[];autosize=1;fontSize=12;fontColor=default;" parent="NRFoNHu8XifHmaJofXyo-1" vertex="1">
                    <mxGeometry x="-620" y="1560" width="80" height="20" as="geometry"/>
                </mxCell>
                <mxCell id="mXEPQpgxA3Jt67eOJuLf-6" value="" style="group;fontColor=default;" parent="NRFoNHu8XifHmaJofXyo-1" vertex="1" connectable="0">
                    <mxGeometry x="-300" y="1550" width="80" height="40" as="geometry"/>
                </mxCell>
                <mxCell id="mXEPQpgxA3Jt67eOJuLf-7" value="Figure 14.2" style="text;html=1;align=center;verticalAlign=middle;resizable=0;points=[];autosize=1;fontSize=12;fontColor=default;" parent="mXEPQpgxA3Jt67eOJuLf-6" vertex="1">
                    <mxGeometry width="80" height="20" as="geometry"/>
                </mxCell>
                <mxCell id="mXEPQpgxA3Jt67eOJuLf-8" value="Figure 15.1" style="text;html=1;align=center;verticalAlign=middle;resizable=0;points=[];autosize=1;fontSize=12;fontColor=default;" parent="mXEPQpgxA3Jt67eOJuLf-6" vertex="1">
                    <mxGeometry y="20" width="80" height="20" as="geometry"/>
                </mxCell>
                <mxCell id="mXEPQpgxA3Jt67eOJuLf-9" value="Data" style="rounded=0;whiteSpace=wrap;html=1;labelBackgroundColor=none;sketch=0;fontSize=11;strokeColor=default;fontStyle=0;shadow=0;glass=0;fontColor=default;fillColor=default;dashed=1;" parent="NRFoNHu8XifHmaJofXyo-1" vertex="1">
                    <mxGeometry x="-260" y="1450" width="200" height="40" as="geometry"/>
                </mxCell>
                <mxCell id="mXEPQpgxA3Jt67eOJuLf-10" value="Domain" style="rounded=0;whiteSpace=wrap;html=1;labelBackgroundColor=none;sketch=0;fontSize=11;strokeColor=default;fontStyle=0;shadow=0;glass=0;fontColor=default;fillColor=default;dashed=1;" parent="NRFoNHu8XifHmaJofXyo-1" vertex="1">
                    <mxGeometry x="-260" y="1390" width="200" height="40" as="geometry"/>
                </mxCell>
                <mxCell id="mXEPQpgxA3Jt67eOJuLf-11" value="Presentation" style="rounded=0;whiteSpace=wrap;html=1;labelBackgroundColor=none;sketch=0;fontSize=11;strokeColor=default;fillStyle=hachure;fontStyle=0;shadow=0;glass=0;fontColor=default;fillColor=default;dashed=1;" parent="NRFoNHu8XifHmaJofXyo-1" vertex="1">
                    <mxGeometry x="-260" y="1330" width="200" height="40" as="geometry"/>
                </mxCell>
                <mxCell id="mXEPQpgxA3Jt67eOJuLf-12" value="" style="endArrow=classic;html=1;shadow=0;fontFamily=Helvetica;fontSize=13;fontColor=#666666;strokeColor=default;" parent="NRFoNHu8XifHmaJofXyo-1" source="mXEPQpgxA3Jt67eOJuLf-11" target="mXEPQpgxA3Jt67eOJuLf-10" edge="1">
                    <mxGeometry width="50" height="50" relative="1" as="geometry">
                        <mxPoint x="-250" y="1360" as="sourcePoint"/>
                        <mxPoint x="-10" y="1360" as="targetPoint"/>
                    </mxGeometry>
                </mxCell>
                <mxCell id="mXEPQpgxA3Jt67eOJuLf-13" value="" style="endArrow=classic;html=1;shadow=0;fontFamily=Helvetica;fontSize=13;fontColor=#666666;strokeColor=default;" parent="NRFoNHu8XifHmaJofXyo-1" source="mXEPQpgxA3Jt67eOJuLf-10" target="mXEPQpgxA3Jt67eOJuLf-9" edge="1">
                    <mxGeometry width="50" height="50" relative="1" as="geometry">
                        <mxPoint x="-250" y="1459.8600000000001" as="sourcePoint"/>
                        <mxPoint x="-10" y="1459.8600000000001" as="targetPoint"/>
                    </mxGeometry>
                </mxCell>
                <mxCell id="mXEPQpgxA3Jt67eOJuLf-14" value="Feature" style="rounded=1;whiteSpace=wrap;html=1;strokeColor=default;fontSize=13;fontColor=default;align=center;horizontal=0;shadow=0;fontStyle=1;glass=0;fillColor=default;" parent="NRFoNHu8XifHmaJofXyo-1" vertex="1">
                    <mxGeometry x="-300" y="1320" width="40" height="180" as="geometry"/>
                </mxCell>
                <mxCell id="YCwFqdiY-_8cN_q8ZS8l-0" value="..." style="aspect=fixed;html=1;points=[];align=center;image;fontSize=11;image=img/lib/azure2/general/Folder_Blank.svg;dashed=1;sketch=0;strokeColor=#B3B3B3;fillColor=#FFFFFF;fontColor=default;fontStyle=0;labelBackgroundColor=none;" parent="NRFoNHu8XifHmaJofXyo-1" vertex="1">
                    <mxGeometry x="1435" y="1553.1900000000003" width="70" height="56.81" as="geometry"/>
                </mxCell>
                <mxCell id="YCwFqdiY-_8cN_q8ZS8l-1" style="edgeStyle=orthogonalEdgeStyle;rounded=0;orthogonalLoop=1;jettySize=auto;html=1;fontSize=13;fontColor=#666666;entryX=-0.011;entryY=0.548;entryDx=0;entryDy=0;entryPerimeter=0;" parent="NRFoNHu8XifHmaJofXyo-1" source="HMKlNcfsrmp8i-vNm9QX-59" target="YCwFqdiY-_8cN_q8ZS8l-0" edge="1">
                    <mxGeometry relative="1" as="geometry">
                        <mxPoint x="1359.75" y="1454.9999999999998" as="sourcePoint"/>
                        <mxPoint x="1420.25" y="1564.9999999999998" as="targetPoint"/>
                        <Array as="points">
                            <mxPoint x="1394" y="1455"/>
                            <mxPoint x="1394" y="1584"/>
                        </Array>
                    </mxGeometry>
                </mxCell>
                <mxCell id="YCwFqdiY-_8cN_q8ZS8l-2" value="Queries" style="rounded=0;whiteSpace=wrap;html=1;sketch=0;strokeColor=default;fillColor=default;fontSize=11;align=center;fontColor=default;" parent="NRFoNHu8XifHmaJofXyo-1" vertex="1">
                    <mxGeometry x="1570" y="1495" width="110" height="30" as="geometry"/>
                </mxCell>
                <mxCell id="YCwFqdiY-_8cN_q8ZS8l-3" value="Results" style="rounded=0;whiteSpace=wrap;html=1;sketch=0;strokeColor=default;fillColor=default;fontSize=11;align=center;fontColor=default;" parent="NRFoNHu8XifHmaJofXyo-1" vertex="1">
                    <mxGeometry x="1570" y="1540" width="110" height="30" as="geometry"/>
                </mxCell>
                <mxCell id="YCwFqdiY-_8cN_q8ZS8l-4" value="..." style="rounded=0;whiteSpace=wrap;html=1;sketch=0;strokeColor=default;fillColor=default;fontSize=11;align=center;fontColor=default;" parent="NRFoNHu8XifHmaJofXyo-1" vertex="1">
                    <mxGeometry x="1570" y="1580" width="110" height="30" as="geometry"/>
                </mxCell>
                <mxCell id="YCwFqdiY-_8cN_q8ZS8l-5" style="edgeStyle=elbowEdgeStyle;rounded=0;orthogonalLoop=1;jettySize=auto;html=1;fontSize=13;fontColor=#666666;" parent="NRFoNHu8XifHmaJofXyo-1" source="HMKlNcfsrmp8i-vNm9QX-60" target="YCwFqdiY-_8cN_q8ZS8l-2" edge="1">
                    <mxGeometry relative="1" as="geometry">
                        <Array as="points">
                            <mxPoint x="1535" y="1461.81"/>
                        </Array>
                        <mxPoint x="1510" y="1411.805" as="sourcePoint"/>
                        <mxPoint x="1570" y="1510" as="targetPoint"/>
                    </mxGeometry>
                </mxCell>
                <mxCell id="YCwFqdiY-_8cN_q8ZS8l-6" style="edgeStyle=elbowEdgeStyle;rounded=0;orthogonalLoop=1;jettySize=auto;html=1;fontSize=13;fontColor=#666666;" parent="NRFoNHu8XifHmaJofXyo-1" source="HMKlNcfsrmp8i-vNm9QX-60" target="YCwFqdiY-_8cN_q8ZS8l-3" edge="1">
                    <mxGeometry relative="1" as="geometry">
                        <Array as="points">
                            <mxPoint x="1535" y="1461.81"/>
                        </Array>
                        <mxPoint x="1510" y="1369.9950000000001" as="sourcePoint"/>
                        <mxPoint x="1570" y="1510" as="targetPoint"/>
                    </mxGeometry>
                </mxCell>
                <mxCell id="YCwFqdiY-_8cN_q8ZS8l-7" style="edgeStyle=elbowEdgeStyle;rounded=0;orthogonalLoop=1;jettySize=auto;html=1;fontSize=13;fontColor=#666666;" parent="NRFoNHu8XifHmaJofXyo-1" source="HMKlNcfsrmp8i-vNm9QX-60" target="YCwFqdiY-_8cN_q8ZS8l-4" edge="1">
                    <mxGeometry relative="1" as="geometry">
                        <Array as="points">
                            <mxPoint x="1535" y="1461.81"/>
                        </Array>
                        <mxPoint x="1510" y="1369.9950000000001" as="sourcePoint"/>
                        <mxPoint x="1570" y="1555" as="targetPoint"/>
                    </mxGeometry>
                </mxCell>
                <mxCell id="p7JFbgdbGZ6Ct4QzUKqN-0" value="" style="rounded=0;whiteSpace=wrap;html=1;labelBackgroundColor=none;sketch=0;fontSize=11;strokeColor=default;fontStyle=0;shadow=0;glass=0;fontColor=default;fillColor=default;dashed=1;labelPosition=center;verticalLabelPosition=top;align=center;verticalAlign=bottom;" parent="NRFoNHu8XifHmaJofXyo-1" vertex="1">
                    <mxGeometry x="2480" y="1500" width="590" height="90" as="geometry"/>
                </mxCell>
                <mxCell id="p7JFbgdbGZ6Ct4QzUKqN-1" value="" style="rounded=0;whiteSpace=wrap;html=1;labelBackgroundColor=none;sketch=0;fontSize=11;strokeColor=default;fontStyle=0;shadow=0;glass=0;fontColor=default;fillColor=default;dashed=1;" parent="NRFoNHu8XifHmaJofXyo-1" vertex="1">
                    <mxGeometry x="2480" y="1450" width="590" height="40" as="geometry"/>
                </mxCell>
                <mxCell id="p7JFbgdbGZ6Ct4QzUKqN-2" value="" style="rounded=0;whiteSpace=wrap;html=1;labelBackgroundColor=none;sketch=0;fontSize=11;strokeColor=default;fillStyle=hachure;fontStyle=0;shadow=0;glass=0;fontColor=default;fillColor=default;dashed=1;" parent="NRFoNHu8XifHmaJofXyo-1" vertex="1">
                    <mxGeometry x="2480" y="1360" width="590" height="80" as="geometry"/>
                </mxCell>
                <mxCell id="p7JFbgdbGZ6Ct4QzUKqN-3" value="AddStocks" style="rounded=0;whiteSpace=wrap;html=1;horizontal=0;fontSize=11;fontStyle=1;shadow=1;" parent="NRFoNHu8XifHmaJofXyo-1" vertex="1">
                    <mxGeometry x="2500" y="1380" width="40" height="200" as="geometry"/>
                </mxCell>
                <mxCell id="p7JFbgdbGZ6Ct4QzUKqN-4" value="RemoveStocks" style="rounded=0;whiteSpace=wrap;html=1;horizontal=0;fontSize=11;fontStyle=1;shadow=1;" parent="NRFoNHu8XifHmaJofXyo-1" vertex="1">
                    <mxGeometry x="2550" y="1380" width="40" height="200" as="geometry"/>
                </mxCell>
                <mxCell id="p7JFbgdbGZ6Ct4QzUKqN-5" value="StocksController" style="rounded=0;whiteSpace=wrap;html=1;fontSize=11;fontStyle=2;shadow=1;" parent="NRFoNHu8XifHmaJofXyo-1" vertex="1">
                    <mxGeometry x="2490" y="1390" width="110" height="40" as="geometry"/>
                </mxCell>
                <mxCell id="p7JFbgdbGZ6Ct4QzUKqN-6" value="ListAllProducts" style="rounded=0;whiteSpace=wrap;html=1;horizontal=0;fontSize=11;fontStyle=1;shadow=1;" parent="NRFoNHu8XifHmaJofXyo-1" vertex="1">
                    <mxGeometry x="2810" y="1380" width="40" height="200" as="geometry"/>
                </mxCell>
                <mxCell id="p7JFbgdbGZ6Ct4QzUKqN-7" value="AddProduct" style="rounded=0;whiteSpace=wrap;html=1;horizontal=0;fontSize=11;shadow=1;" parent="NRFoNHu8XifHmaJofXyo-1" vertex="1">
                    <mxGeometry x="2860" y="1380" width="40" height="200" as="geometry"/>
                </mxCell>
                <mxCell id="p7JFbgdbGZ6Ct4QzUKqN-8" value="UpdateProduct" style="rounded=0;whiteSpace=wrap;html=1;horizontal=0;fontSize=11;shadow=1;" parent="NRFoNHu8XifHmaJofXyo-1" vertex="1">
                    <mxGeometry x="2910" y="1380" width="40" height="200" as="geometry"/>
                </mxCell>
                <mxCell id="p7JFbgdbGZ6Ct4QzUKqN-9" value="DeleteProduct" style="rounded=0;whiteSpace=wrap;html=1;horizontal=0;fontSize=11;shadow=1;" parent="NRFoNHu8XifHmaJofXyo-1" vertex="1">
                    <mxGeometry x="2960" y="1380" width="40" height="200" as="geometry"/>
                </mxCell>
                <mxCell id="p7JFbgdbGZ6Ct4QzUKqN-10" value="GetOneProduct" style="rounded=0;whiteSpace=wrap;html=1;horizontal=0;fontSize=11;shadow=1;" parent="NRFoNHu8XifHmaJofXyo-1" vertex="1">
                    <mxGeometry x="3010" y="1380" width="40" height="200" as="geometry"/>
                </mxCell>
                <mxCell id="p7JFbgdbGZ6Ct4QzUKqN-11" value="ProductContext" style="rounded=0;whiteSpace=wrap;html=1;labelBackgroundColor=none;sketch=0;fontSize=11;strokeColor=default;fillStyle=hachure;fontStyle=2;shadow=1;glass=0;fontColor=default;fillColor=default;" parent="NRFoNHu8XifHmaJofXyo-1" vertex="1">
                    <mxGeometry x="2490" y="1530" width="570" height="40" as="geometry"/>
                </mxCell>
                <mxCell id="p7JFbgdbGZ6Ct4QzUKqN-12" value="ProductsController" style="rounded=0;whiteSpace=wrap;html=1;labelBackgroundColor=none;sketch=0;fontSize=11;strokeColor=default;fillStyle=hachure;fontStyle=2;shadow=1;glass=0;fontColor=default;fillColor=default;" parent="NRFoNHu8XifHmaJofXyo-1" vertex="1">
                    <mxGeometry x="2800" y="1390" width="260" height="40" as="geometry"/>
                </mxCell>
                <mxCell id="p7JFbgdbGZ6Ct4QzUKqN-13" value="Data" style="text;html=1;align=center;verticalAlign=middle;resizable=0;points=[];autosize=1;strokeColor=none;fillColor=none;fontSize=11;" parent="NRFoNHu8XifHmaJofXyo-1" vertex="1">
                    <mxGeometry x="2680" y="1500" width="50" height="30" as="geometry"/>
                </mxCell>
                <mxCell id="p7JFbgdbGZ6Ct4QzUKqN-14" value="Domain" style="text;html=1;align=center;verticalAlign=middle;resizable=0;points=[];autosize=1;strokeColor=none;fillColor=none;fontSize=11;" parent="NRFoNHu8XifHmaJofXyo-1" vertex="1">
                    <mxGeometry x="2675" y="1455" width="60" height="30" as="geometry"/>
                </mxCell>
                <mxCell id="p7JFbgdbGZ6Ct4QzUKqN-15" value="Presentation" style="text;html=1;align=center;verticalAlign=middle;resizable=0;points=[];autosize=1;strokeColor=none;fillColor=none;fontSize=11;" parent="NRFoNHu8XifHmaJofXyo-1" vertex="1">
                    <mxGeometry x="2660" y="1385" width="90" height="30" as="geometry"/>
                </mxCell>
                <mxCell id="ln8PZBf_CkngDdTTPPHA-0" value="Handler" style="rounded=0;whiteSpace=wrap;html=1;horizontal=0;align=left;" parent="NRFoNHu8XifHmaJofXyo-1" vertex="1">
                    <mxGeometry x="4280" y="1431.81" width="40" height="160" as="geometry"/>
                </mxCell>
                <mxCell id="ln8PZBf_CkngDdTTPPHA-1" value="MediatR Pipeline" style="rounded=0;whiteSpace=wrap;html=1;labelBackgroundColor=default;align=center;verticalAlign=bottom;sketch=1;fillStyle=cross-hatch;fillColor=#E6E6E6;fontColor=default;opacity=50;" parent="NRFoNHu8XifHmaJofXyo-1" vertex="1">
                    <mxGeometry x="4800" y="1360" width="220" height="300" as="geometry"/>
                </mxCell>
                <mxCell id="ln8PZBf_CkngDdTTPPHA-2" value="MVC Pipeline" style="rounded=0;whiteSpace=wrap;html=1;labelBackgroundColor=default;align=center;verticalAlign=bottom;glass=0;sketch=1;fillStyle=hachure;fillColor=#E6E6E6;fontColor=default;opacity=50;" parent="NRFoNHu8XifHmaJofXyo-1" vertex="1">
                    <mxGeometry x="4530" y="1360" width="260" height="300" as="geometry"/>
                </mxCell>
                <mxCell id="ln8PZBf_CkngDdTTPPHA-3" value="Behaviors" style="rounded=0;whiteSpace=wrap;html=1;horizontal=0;align=left;" parent="NRFoNHu8XifHmaJofXyo-1" vertex="1">
                    <mxGeometry x="4240" y="1431.81" width="40" height="160" as="geometry"/>
                </mxCell>
                <mxCell id="ln8PZBf_CkngDdTTPPHA-4" value="Filters" style="rounded=0;whiteSpace=wrap;html=1;horizontal=0;align=left;" parent="NRFoNHu8XifHmaJofXyo-1" vertex="1">
                    <mxGeometry x="4030" y="1361.81" width="40" height="230" as="geometry"/>
                </mxCell>
                <mxCell id="ln8PZBf_CkngDdTTPPHA-5" value="Controller" style="rounded=0;whiteSpace=wrap;html=1;horizontal=0;align=left;" parent="NRFoNHu8XifHmaJofXyo-1" vertex="1">
                    <mxGeometry x="4070" y="1361.81" width="40" height="230" as="geometry"/>
                </mxCell>
                <mxCell id="ln8PZBf_CkngDdTTPPHA-6" style="edgeStyle=orthogonalEdgeStyle;rounded=0;orthogonalLoop=1;jettySize=auto;html=1;" parent="NRFoNHu8XifHmaJofXyo-1" source="ln8PZBf_CkngDdTTPPHA-8" target="ln8PZBf_CkngDdTTPPHA-10" edge="1">
                    <mxGeometry relative="1" as="geometry"/>
                </mxCell>
                <mxCell id="ln8PZBf_CkngDdTTPPHA-7" value="HTTP Request" style="edgeLabel;html=1;align=center;verticalAlign=middle;resizable=0;points=[];labelBorderColor=none;labelBackgroundColor=default;fontColor=default;" parent="ln8PZBf_CkngDdTTPPHA-6" vertex="1" connectable="0">
                    <mxGeometry x="-0.2222" relative="1" as="geometry">
                        <mxPoint x="13" as="offset"/>
                    </mxGeometry>
                </mxCell>
                <mxCell id="ln8PZBf_CkngDdTTPPHA-8" value="Actor" style="shape=umlActor;verticalLabelPosition=bottom;verticalAlign=top;html=1;outlineConnect=0;" parent="NRFoNHu8XifHmaJofXyo-1" vertex="1">
                    <mxGeometry x="3840" y="1381.81" width="30" height="60" as="geometry"/>
                </mxCell>
                <mxCell id="ln8PZBf_CkngDdTTPPHA-9" style="edgeStyle=orthogonalEdgeStyle;rounded=0;orthogonalLoop=1;jettySize=auto;html=1;" parent="NRFoNHu8XifHmaJofXyo-1" source="ln8PZBf_CkngDdTTPPHA-5" target="ln8PZBf_CkngDdTTPPHA-12" edge="1">
                    <mxGeometry relative="1" as="geometry"/>
                </mxCell>
                <mxCell id="ln8PZBf_CkngDdTTPPHA-10" value="1: MVC Pipeline" style="rounded=0;whiteSpace=wrap;html=1;verticalAlign=top;" parent="NRFoNHu8XifHmaJofXyo-1" vertex="1">
                    <mxGeometry x="3990" y="1381.81" width="130" height="60" as="geometry"/>
                </mxCell>
                <mxCell id="ln8PZBf_CkngDdTTPPHA-11" style="rounded=0;jumpStyle=none;orthogonalLoop=1;jettySize=auto;html=1;entryX=0.75;entryY=1;entryDx=0;entryDy=0;dashed=1;exitX=0;exitY=0.5;exitDx=0;exitDy=0;edgeStyle=elbowEdgeStyle;elbow=vertical;" parent="NRFoNHu8XifHmaJofXyo-1" source="ln8PZBf_CkngDdTTPPHA-10" target="ln8PZBf_CkngDdTTPPHA-10" edge="1">
                    <mxGeometry relative="1" as="geometry">
                        <mxPoint x="4230" y="1371.81" as="sourcePoint"/>
                        <Array as="points">
                            <mxPoint x="4040" y="1411.81"/>
                        </Array>
                    </mxGeometry>
                </mxCell>
                <mxCell id="ln8PZBf_CkngDdTTPPHA-12" value="2: MediatR Pipeline" style="rounded=0;whiteSpace=wrap;html=1;verticalAlign=top;" parent="NRFoNHu8XifHmaJofXyo-1" vertex="1">
                    <mxGeometry x="4200" y="1446.81" width="130" height="60" as="geometry"/>
                </mxCell>
                <mxCell id="ln8PZBf_CkngDdTTPPHA-13" style="edgeStyle=orthogonalEdgeStyle;rounded=0;orthogonalLoop=1;jettySize=auto;html=1;fontSize=10;" parent="NRFoNHu8XifHmaJofXyo-1" source="ln8PZBf_CkngDdTTPPHA-15" target="ln8PZBf_CkngDdTTPPHA-19" edge="1">
                    <mxGeometry relative="1" as="geometry">
                        <mxPoint x="4660" y="1470" as="targetPoint"/>
                    </mxGeometry>
                </mxCell>
                <mxCell id="ln8PZBf_CkngDdTTPPHA-14" value="1: HTTP Request" style="edgeLabel;html=1;align=center;verticalAlign=middle;resizable=0;points=[];labelBorderColor=none;fontSize=10;labelBackgroundColor=default;fontColor=default;" parent="ln8PZBf_CkngDdTTPPHA-13" vertex="1" connectable="0">
                    <mxGeometry x="-0.2222" relative="1" as="geometry">
                        <mxPoint x="9" as="offset"/>
                    </mxGeometry>
                </mxCell>
                <mxCell id="ln8PZBf_CkngDdTTPPHA-15" value="" style="shape=umlActor;verticalLabelPosition=bottom;verticalAlign=top;html=1;outlineConnect=0;fontSize=10;" parent="NRFoNHu8XifHmaJofXyo-1" vertex="1">
                    <mxGeometry x="4430" y="1440" width="30" height="60" as="geometry"/>
                </mxCell>
                <mxCell id="ln8PZBf_CkngDdTTPPHA-16" value="" style="edgeStyle=orthogonalEdgeStyle;rounded=0;orthogonalLoop=1;jettySize=auto;html=1;fontSize=10;" parent="NRFoNHu8XifHmaJofXyo-1" source="ln8PZBf_CkngDdTTPPHA-19" target="ln8PZBf_CkngDdTTPPHA-21" edge="1">
                    <mxGeometry relative="1" as="geometry"/>
                </mxCell>
                <mxCell id="ln8PZBf_CkngDdTTPPHA-17" style="edgeStyle=none;rounded=0;jumpStyle=none;orthogonalLoop=1;jettySize=auto;html=1;exitX=0.5;exitY=1;exitDx=0;exitDy=0;dashed=1;fontSize=10;" parent="NRFoNHu8XifHmaJofXyo-1" source="ln8PZBf_CkngDdTTPPHA-19" edge="1">
                    <mxGeometry relative="1" as="geometry">
                        <mxPoint x="4550" y="1560" as="targetPoint"/>
                        <Array as="points">
                            <mxPoint x="4610" y="1560"/>
                        </Array>
                    </mxGeometry>
                </mxCell>
                <mxCell id="ln8PZBf_CkngDdTTPPHA-18" value="5d: return OkObjectResult" style="edgeLabel;html=1;align=center;verticalAlign=middle;resizable=0;points=[];labelBorderColor=none;labelBackgroundColor=default;fontSize=10;fontColor=default;" parent="ln8PZBf_CkngDdTTPPHA-17" vertex="1" connectable="0">
                    <mxGeometry x="-0.1111" y="2" relative="1" as="geometry">
                        <mxPoint x="6.739999999999998" y="-32" as="offset"/>
                    </mxGeometry>
                </mxCell>
                <mxCell id="ln8PZBf_CkngDdTTPPHA-19" value="2: Controller" style="rounded=0;whiteSpace=wrap;html=1;align=center;fontSize=10;" parent="NRFoNHu8XifHmaJofXyo-1" vertex="1">
                    <mxGeometry x="4570" y="1450" width="80" height="40" as="geometry"/>
                </mxCell>
                <mxCell id="ln8PZBf_CkngDdTTPPHA-20" value="" style="edgeStyle=orthogonalEdgeStyle;rounded=0;orthogonalLoop=1;jettySize=auto;html=1;fontSize=10;" parent="NRFoNHu8XifHmaJofXyo-1" source="ln8PZBf_CkngDdTTPPHA-21" target="ln8PZBf_CkngDdTTPPHA-23" edge="1">
                    <mxGeometry relative="1" as="geometry"/>
                </mxCell>
                <mxCell id="ln8PZBf_CkngDdTTPPHA-21" value="3: Mediator" style="rounded=0;whiteSpace=wrap;html=1;align=center;fontSize=10;" parent="NRFoNHu8XifHmaJofXyo-1" vertex="1">
                    <mxGeometry x="4710" y="1450" width="100" height="40" as="geometry"/>
                </mxCell>
                <mxCell id="ln8PZBf_CkngDdTTPPHA-22" value="" style="edgeStyle=orthogonalEdgeStyle;rounded=0;orthogonalLoop=1;jettySize=auto;html=1;fontSize=10;" parent="NRFoNHu8XifHmaJofXyo-1" source="ln8PZBf_CkngDdTTPPHA-23" target="ln8PZBf_CkngDdTTPPHA-28" edge="1">
                    <mxGeometry relative="1" as="geometry"/>
                </mxCell>
                <mxCell id="ln8PZBf_CkngDdTTPPHA-23" value="4: IPipelineBehavior" style="rounded=0;whiteSpace=wrap;html=1;align=center;fontSize=10;" parent="NRFoNHu8XifHmaJofXyo-1" vertex="1">
                    <mxGeometry x="4830" y="1450" width="100" height="40" as="geometry"/>
                </mxCell>
                <mxCell id="ln8PZBf_CkngDdTTPPHA-24" value="" style="rounded=0;orthogonalLoop=1;jettySize=auto;html=1;fontSize=10;entryX=0.699;entryY=0.999;entryDx=0;entryDy=0;entryPerimeter=0;" parent="NRFoNHu8XifHmaJofXyo-1" source="ln8PZBf_CkngDdTTPPHA-28" target="ln8PZBf_CkngDdTTPPHA-31" edge="1">
                    <mxGeometry relative="1" as="geometry"/>
                </mxCell>
                <mxCell id="ln8PZBf_CkngDdTTPPHA-25" value="5: Yes" style="edgeLabel;html=1;align=center;verticalAlign=middle;resizable=0;points=[];labelBorderColor=none;fontSize=10;labelBackgroundColor=default;fontColor=default;" parent="ln8PZBf_CkngDdTTPPHA-24" vertex="1" connectable="0">
                    <mxGeometry x="0.2222" y="1" relative="1" as="geometry">
                        <mxPoint x="1.08" y="8.32" as="offset"/>
                    </mxGeometry>
                </mxCell>
                <mxCell id="ln8PZBf_CkngDdTTPPHA-26" value="" style="edgeStyle=orthogonalEdgeStyle;rounded=0;orthogonalLoop=1;jettySize=auto;html=1;entryX=1;entryY=0.5;entryDx=0;entryDy=0;exitX=0.5;exitY=1;exitDx=0;exitDy=0;fontSize=10;" parent="NRFoNHu8XifHmaJofXyo-1" source="ln8PZBf_CkngDdTTPPHA-28" target="ln8PZBf_CkngDdTTPPHA-33" edge="1">
                    <mxGeometry relative="1" as="geometry"/>
                </mxCell>
                <mxCell id="ln8PZBf_CkngDdTTPPHA-27" value="6: No" style="edgeLabel;html=1;align=center;verticalAlign=middle;resizable=0;points=[];labelBorderColor=none;fontSize=10;labelBackgroundColor=default;fontColor=default;" parent="ln8PZBf_CkngDdTTPPHA-26" vertex="1" connectable="0">
                    <mxGeometry x="-0.2889" relative="1" as="geometry">
                        <mxPoint as="offset"/>
                    </mxGeometry>
                </mxCell>
                <mxCell id="ln8PZBf_CkngDdTTPPHA-28" value="Is Valid?" style="rhombus;whiteSpace=wrap;html=1;rounded=0;fontSize=10;" parent="NRFoNHu8XifHmaJofXyo-1" vertex="1">
                    <mxGeometry x="4950" y="1440" width="60" height="60" as="geometry"/>
                </mxCell>
                <mxCell id="ln8PZBf_CkngDdTTPPHA-29" style="edgeStyle=orthogonalEdgeStyle;rounded=0;orthogonalLoop=1;jettySize=auto;html=1;entryX=0.5;entryY=0;entryDx=0;entryDy=0;fontSize=10;" parent="NRFoNHu8XifHmaJofXyo-1" source="ln8PZBf_CkngDdTTPPHA-31" target="ln8PZBf_CkngDdTTPPHA-19" edge="1">
                    <mxGeometry relative="1" as="geometry"/>
                </mxCell>
                <mxCell id="ln8PZBf_CkngDdTTPPHA-30" value="5c: return Result" style="edgeLabel;html=1;align=center;verticalAlign=middle;resizable=0;points=[];labelBorderColor=none;fontSize=10;labelBackgroundColor=default;fontColor=default;" parent="ln8PZBf_CkngDdTTPPHA-29" vertex="1" connectable="0">
                    <mxGeometry x="0.1095" y="3" relative="1" as="geometry">
                        <mxPoint x="65.51999999999998" y="-3" as="offset"/>
                    </mxGeometry>
                </mxCell>
                <mxCell id="ln8PZBf_CkngDdTTPPHA-31" value="5b: Execute Handler" style="whiteSpace=wrap;html=1;rounded=0;fontSize=10;" parent="NRFoNHu8XifHmaJofXyo-1" vertex="1">
                    <mxGeometry x="4910" y="1370" width="100" height="40" as="geometry"/>
                </mxCell>
                <mxCell id="ln8PZBf_CkngDdTTPPHA-32" value="" style="edgeStyle=orthogonalEdgeStyle;rounded=0;orthogonalLoop=1;jettySize=auto;html=1;fontSize=10;" parent="NRFoNHu8XifHmaJofXyo-1" source="ln8PZBf_CkngDdTTPPHA-33" target="ln8PZBf_CkngDdTTPPHA-36" edge="1">
                    <mxGeometry relative="1" as="geometry"/>
                </mxCell>
                <mxCell id="ln8PZBf_CkngDdTTPPHA-33" value="6a: throw&amp;nbsp;ValidationException" style="whiteSpace=wrap;html=1;rounded=0;fontSize=10;" parent="NRFoNHu8XifHmaJofXyo-1" vertex="1">
                    <mxGeometry x="4810" y="1570" width="140" height="40" as="geometry"/>
                </mxCell>
                <mxCell id="ln8PZBf_CkngDdTTPPHA-34" style="edgeStyle=orthogonalEdgeStyle;rounded=0;orthogonalLoop=1;jettySize=auto;html=1;dashed=1;fontSize=10;" parent="NRFoNHu8XifHmaJofXyo-1" source="ln8PZBf_CkngDdTTPPHA-36" edge="1">
                    <mxGeometry relative="1" as="geometry">
                        <mxPoint x="4720" y="1590" as="sourcePoint"/>
                        <mxPoint x="4530" y="1560" as="targetPoint"/>
                        <Array as="points">
                            <mxPoint x="4546" y="1590"/>
                            <mxPoint x="4546" y="1560"/>
                        </Array>
                    </mxGeometry>
                </mxCell>
                <mxCell id="ln8PZBf_CkngDdTTPPHA-35" value="6c: set&lt;br style=&quot;font-size: 10px;&quot;&gt;BadRequestObjectResult" style="edgeLabel;html=1;align=center;verticalAlign=middle;resizable=0;points=[];labelBorderColor=#000000;fontSize=10;" parent="ln8PZBf_CkngDdTTPPHA-34" vertex="1" connectable="0">
                    <mxGeometry x="-0.2064" y="1" relative="1" as="geometry">
                        <mxPoint x="1.4299999999999997" y="-1" as="offset"/>
                    </mxGeometry>
                </mxCell>
                <mxCell id="ln8PZBf_CkngDdTTPPHA-36" value="6b: IExceptionFilter" style="whiteSpace=wrap;html=1;rounded=0;fontSize=10;" parent="NRFoNHu8XifHmaJofXyo-1" vertex="1">
                    <mxGeometry x="4680" y="1570" width="90" height="40" as="geometry"/>
                </mxCell>
                <mxCell id="ln8PZBf_CkngDdTTPPHA-37" value="" style="endArrow=classic;html=1;exitX=0;exitY=0.655;exitDx=0;exitDy=0;rounded=0;exitPerimeter=0;edgeStyle=elbowEdgeStyle;elbow=vertical;fontSize=10;" parent="NRFoNHu8XifHmaJofXyo-1" source="ln8PZBf_CkngDdTTPPHA-2" target="ln8PZBf_CkngDdTTPPHA-15" edge="1">
                    <mxGeometry width="50" height="50" relative="1" as="geometry">
                        <mxPoint x="4680" y="1330" as="sourcePoint"/>
                        <mxPoint x="4440" y="1520" as="targetPoint"/>
                        <Array as="points">
                            <mxPoint x="4520" y="1560"/>
                        </Array>
                    </mxGeometry>
                </mxCell>
                <mxCell id="ln8PZBf_CkngDdTTPPHA-38" value="7: HTTP Response" style="edgeLabel;html=1;align=center;verticalAlign=middle;resizable=0;points=[];labelBorderColor=none;fontSize=10;labelBackgroundColor=default;fontColor=default;" parent="ln8PZBf_CkngDdTTPPHA-37" vertex="1" connectable="0">
                    <mxGeometry x="0.1879" relative="1" as="geometry">
                        <mxPoint x="35" as="offset"/>
                    </mxGeometry>
                </mxCell>
                <mxCell id="ln8PZBf_CkngDdTTPPHA-39" style="rounded=0;orthogonalLoop=1;jettySize=auto;html=1;jumpStyle=none;dashed=1;entryX=0;entryY=0.75;entryDx=0;entryDy=0;exitX=0.667;exitY=1.001;exitDx=0;exitDy=0;exitPerimeter=0;" parent="NRFoNHu8XifHmaJofXyo-1" source="ln8PZBf_CkngDdTTPPHA-12" target="ln8PZBf_CkngDdTTPPHA-12" edge="1">
                    <mxGeometry relative="1" as="geometry">
                        <mxPoint x="3990" y="1561.81" as="targetPoint"/>
                        <mxPoint x="4340" y="1561.81" as="sourcePoint"/>
                        <Array as="points">
                            <mxPoint x="4287" y="1491.81"/>
                        </Array>
                    </mxGeometry>
                </mxCell>
                <mxCell id="ln8PZBf_CkngDdTTPPHA-40" style="edgeStyle=orthogonalEdgeStyle;rounded=0;orthogonalLoop=1;jettySize=auto;html=1;jumpStyle=none;exitX=0;exitY=0.75;exitDx=0;exitDy=0;" parent="NRFoNHu8XifHmaJofXyo-1" source="ln8PZBf_CkngDdTTPPHA-10" edge="1">
                    <mxGeometry relative="1" as="geometry">
                        <mxPoint x="3850" y="1471.81" as="targetPoint"/>
                        <mxPoint x="4030" y="1526.81" as="sourcePoint"/>
                        <Array as="points">
                            <mxPoint x="3980" y="1426.81"/>
                            <mxPoint x="3980" y="1491.81"/>
                            <mxPoint x="3850" y="1491.81"/>
                        </Array>
                    </mxGeometry>
                </mxCell>
                <mxCell id="ln8PZBf_CkngDdTTPPHA-41" value="HTTP Response" style="edgeLabel;html=1;align=center;verticalAlign=middle;resizable=0;points=[];labelBorderColor=none;labelBackgroundColor=default;fontColor=default;" parent="ln8PZBf_CkngDdTTPPHA-40" vertex="1" connectable="0">
                    <mxGeometry x="-0.0787" y="-1" relative="1" as="geometry">
                        <mxPoint x="-31.6" as="offset"/>
                    </mxGeometry>
                </mxCell>
                <mxCell id="ln8PZBf_CkngDdTTPPHA-42" style="edgeStyle=orthogonalEdgeStyle;rounded=0;orthogonalLoop=1;jettySize=auto;html=1;jumpStyle=none;dashed=1;exitX=0.75;exitY=1;exitDx=0;exitDy=0;entryX=1;entryY=0.5;entryDx=0;entryDy=0;" parent="NRFoNHu8XifHmaJofXyo-1" source="ln8PZBf_CkngDdTTPPHA-10" target="ln8PZBf_CkngDdTTPPHA-5" edge="1">
                    <mxGeometry relative="1" as="geometry">
                        <mxPoint x="4550" y="1496.81" as="targetPoint"/>
                        <mxPoint x="4760" y="1441.81" as="sourcePoint"/>
                        <Array as="points">
                            <mxPoint x="4088" y="1476.81"/>
                        </Array>
                    </mxGeometry>
                </mxCell>
                <mxCell id="ln8PZBf_CkngDdTTPPHA-43" style="rounded=0;orthogonalLoop=1;jettySize=auto;html=1;jumpStyle=none;dashed=1;entryX=0.853;entryY=0.99;entryDx=0;entryDy=0;exitX=0;exitY=0.5;exitDx=0;exitDy=0;entryPerimeter=0;" parent="NRFoNHu8XifHmaJofXyo-1" source="ln8PZBf_CkngDdTTPPHA-12" target="ln8PZBf_CkngDdTTPPHA-12" edge="1">
                    <mxGeometry relative="1" as="geometry">
                        <mxPoint x="4120" y="1481.81" as="targetPoint"/>
                        <mxPoint x="4210" y="1381.81" as="sourcePoint"/>
                        <Array as="points">
                            <mxPoint x="4311" y="1476.81"/>
                        </Array>
                    </mxGeometry>
                </mxCell>
                <mxCell id="ln8PZBf_CkngDdTTPPHA-44" style="rounded=0;orthogonalLoop=1;jettySize=auto;html=1;jumpStyle=none;exitX=0;exitY=0.75;exitDx=0;exitDy=0;entryX=1.004;entryY=0.565;entryDx=0;entryDy=0;entryPerimeter=0;" parent="NRFoNHu8XifHmaJofXyo-1" source="ln8PZBf_CkngDdTTPPHA-12" target="ln8PZBf_CkngDdTTPPHA-5" edge="1">
                    <mxGeometry relative="1" as="geometry">
                        <mxPoint x="4110" y="1531.81" as="targetPoint"/>
                        <mxPoint x="4350" y="1631.81" as="sourcePoint"/>
                    </mxGeometry>
                </mxCell>
                <mxCell id="ln8PZBf_CkngDdTTPPHA-45" value="return Result" style="edgeLabel;html=1;align=center;verticalAlign=middle;resizable=0;points=[];labelBorderColor=none;labelBackgroundColor=default;fontColor=default;" parent="ln8PZBf_CkngDdTTPPHA-44" vertex="1" connectable="0">
                    <mxGeometry x="-0.0787" y="-1" relative="1" as="geometry">
                        <mxPoint as="offset"/>
                    </mxGeometry>
                </mxCell>
                <mxCell id="ln8PZBf_CkngDdTTPPHA-46" style="rounded=0;jumpStyle=none;orthogonalLoop=1;jettySize=auto;html=1;entryX=0.661;entryY=1.02;entryDx=0;entryDy=0;dashed=1;exitX=1.004;exitY=0.565;exitDx=0;exitDy=0;elbow=vertical;entryPerimeter=0;exitPerimeter=0;" parent="NRFoNHu8XifHmaJofXyo-1" source="ln8PZBf_CkngDdTTPPHA-5" target="ln8PZBf_CkngDdTTPPHA-10" edge="1">
                    <mxGeometry relative="1" as="geometry">
                        <mxPoint x="3870" y="1581.81" as="sourcePoint"/>
                        <mxPoint x="3967.5" y="1611.81" as="targetPoint"/>
                        <Array as="points">
                            <mxPoint x="4076" y="1491.81"/>
                        </Array>
                    </mxGeometry>
                </mxCell>
                <mxCell id="ln8PZBf_CkngDdTTPPHA-47" style="rounded=0;jumpStyle=none;orthogonalLoop=1;jettySize=auto;html=1;entryX=0;entryY=0.75;entryDx=0;entryDy=0;dashed=1;exitX=0.666;exitY=1.008;exitDx=0;exitDy=0;edgeStyle=elbowEdgeStyle;elbow=vertical;exitPerimeter=0;" parent="NRFoNHu8XifHmaJofXyo-1" source="ln8PZBf_CkngDdTTPPHA-10" target="ln8PZBf_CkngDdTTPPHA-10" edge="1">
                    <mxGeometry relative="1" as="geometry">
                        <mxPoint x="4000" y="1421.81" as="sourcePoint"/>
                        <mxPoint x="4097.5" y="1451.81" as="targetPoint"/>
                        <Array as="points">
                            <mxPoint x="4040" y="1426.81"/>
                        </Array>
                    </mxGeometry>
                </mxCell>
                <mxCell id="ln8PZBf_CkngDdTTPPHA-48" value="return Ok" style="edgeLabel;html=1;align=center;verticalAlign=middle;resizable=0;points=[];labelBorderColor=none;labelBackgroundColor=default;fontColor=default;" parent="ln8PZBf_CkngDdTTPPHA-47" vertex="1" connectable="0">
                    <mxGeometry x="0.3729" y="-2" relative="1" as="geometry">
                        <mxPoint x="19" y="1" as="offset"/>
                    </mxGeometry>
                </mxCell>
                <mxCell id="ln8PZBf_CkngDdTTPPHA-49" value="Handler" style="rounded=0;whiteSpace=wrap;html=1;horizontal=0;align=left;" parent="NRFoNHu8XifHmaJofXyo-1" vertex="1">
                    <mxGeometry x="3720" y="1431.81" width="40" height="160" as="geometry"/>
                </mxCell>
                <mxCell id="ln8PZBf_CkngDdTTPPHA-50" style="edgeStyle=orthogonalEdgeStyle;rounded=0;jumpStyle=none;orthogonalLoop=1;jettySize=auto;html=1;exitX=1;exitY=0.5;exitDx=0;exitDy=0;entryX=1;entryY=0.75;entryDx=0;entryDy=0;dashed=1;" parent="NRFoNHu8XifHmaJofXyo-1" source="ln8PZBf_CkngDdTTPPHA-60" target="ln8PZBf_CkngDdTTPPHA-60" edge="1">
                    <mxGeometry relative="1" as="geometry">
                        <mxPoint x="3750" y="1541.81" as="targetPoint"/>
                        <Array as="points">
                            <mxPoint x="3750" y="1476.81"/>
                            <mxPoint x="3750" y="1491.81"/>
                        </Array>
                    </mxGeometry>
                </mxCell>
                <mxCell id="ln8PZBf_CkngDdTTPPHA-51" value="Behaviors" style="rounded=0;whiteSpace=wrap;html=1;horizontal=0;align=left;" parent="NRFoNHu8XifHmaJofXyo-1" vertex="1">
                    <mxGeometry x="3680" y="1431.81" width="40" height="160" as="geometry"/>
                </mxCell>
                <mxCell id="ln8PZBf_CkngDdTTPPHA-52" value="Filters" style="rounded=0;whiteSpace=wrap;html=1;horizontal=0;align=left;" parent="NRFoNHu8XifHmaJofXyo-1" vertex="1">
                    <mxGeometry x="3430" y="1361.81" width="40" height="230" as="geometry"/>
                </mxCell>
                <mxCell id="ln8PZBf_CkngDdTTPPHA-53" value="Controller" style="rounded=0;whiteSpace=wrap;html=1;horizontal=0;align=left;" parent="NRFoNHu8XifHmaJofXyo-1" vertex="1">
                    <mxGeometry x="3470" y="1361.81" width="40" height="230" as="geometry"/>
                </mxCell>
                <mxCell id="ln8PZBf_CkngDdTTPPHA-54" style="edgeStyle=orthogonalEdgeStyle;rounded=0;orthogonalLoop=1;jettySize=auto;html=1;" parent="NRFoNHu8XifHmaJofXyo-1" source="ln8PZBf_CkngDdTTPPHA-56" target="ln8PZBf_CkngDdTTPPHA-58" edge="1">
                    <mxGeometry relative="1" as="geometry"/>
                </mxCell>
                <mxCell id="ln8PZBf_CkngDdTTPPHA-55" value="HTTP Request" style="edgeLabel;html=1;align=center;verticalAlign=middle;resizable=0;points=[];labelBorderColor=none;labelBackgroundColor=default;fontColor=default;" parent="ln8PZBf_CkngDdTTPPHA-54" vertex="1" connectable="0">
                    <mxGeometry x="-0.2222" relative="1" as="geometry">
                        <mxPoint x="13" as="offset"/>
                    </mxGeometry>
                </mxCell>
                <mxCell id="ln8PZBf_CkngDdTTPPHA-56" value="Actor" style="shape=umlActor;verticalLabelPosition=bottom;verticalAlign=top;html=1;outlineConnect=0;" parent="NRFoNHu8XifHmaJofXyo-1" vertex="1">
                    <mxGeometry x="3240" y="1381.81" width="30" height="60" as="geometry"/>
                </mxCell>
                <mxCell id="ln8PZBf_CkngDdTTPPHA-57" style="edgeStyle=orthogonalEdgeStyle;rounded=0;orthogonalLoop=1;jettySize=auto;html=1;" parent="NRFoNHu8XifHmaJofXyo-1" source="ln8PZBf_CkngDdTTPPHA-53" target="ln8PZBf_CkngDdTTPPHA-60" edge="1">
                    <mxGeometry relative="1" as="geometry"/>
                </mxCell>
                <mxCell id="ln8PZBf_CkngDdTTPPHA-58" value="1: MVC Pipeline" style="rounded=0;whiteSpace=wrap;html=1;verticalAlign=top;" parent="NRFoNHu8XifHmaJofXyo-1" vertex="1">
                    <mxGeometry x="3390" y="1381.81" width="130" height="60" as="geometry"/>
                </mxCell>
                <mxCell id="ln8PZBf_CkngDdTTPPHA-59" style="rounded=0;jumpStyle=none;orthogonalLoop=1;jettySize=auto;html=1;entryX=0.75;entryY=1;entryDx=0;entryDy=0;dashed=1;exitX=0;exitY=0.5;exitDx=0;exitDy=0;edgeStyle=elbowEdgeStyle;elbow=vertical;" parent="NRFoNHu8XifHmaJofXyo-1" source="ln8PZBf_CkngDdTTPPHA-58" target="ln8PZBf_CkngDdTTPPHA-58" edge="1">
                    <mxGeometry relative="1" as="geometry">
                        <mxPoint x="3630" y="1371.81" as="sourcePoint"/>
                        <Array as="points">
                            <mxPoint x="3440" y="1411.81"/>
                        </Array>
                    </mxGeometry>
                </mxCell>
                <mxCell id="ln8PZBf_CkngDdTTPPHA-60" value="2: MediatR Pipeline" style="rounded=0;whiteSpace=wrap;html=1;verticalAlign=top;" parent="NRFoNHu8XifHmaJofXyo-1" vertex="1">
                    <mxGeometry x="3600" y="1446.81" width="130" height="60" as="geometry"/>
                </mxCell>
                <mxCell id="ln8PZBf_CkngDdTTPPHA-61" style="rounded=0;orthogonalLoop=1;jettySize=auto;html=1;jumpStyle=none;dashed=1;entryX=0;entryY=0.75;entryDx=0;entryDy=0;exitX=1;exitY=0.75;exitDx=0;exitDy=0;" parent="NRFoNHu8XifHmaJofXyo-1" source="ln8PZBf_CkngDdTTPPHA-60" target="ln8PZBf_CkngDdTTPPHA-60" edge="1">
                    <mxGeometry relative="1" as="geometry">
                        <mxPoint x="3390" y="1561.81" as="targetPoint"/>
                        <mxPoint x="3740" y="1561.81" as="sourcePoint"/>
                    </mxGeometry>
                </mxCell>
                <mxCell id="ln8PZBf_CkngDdTTPPHA-62" style="edgeStyle=orthogonalEdgeStyle;rounded=0;orthogonalLoop=1;jettySize=auto;html=1;jumpStyle=none;exitX=0;exitY=0.75;exitDx=0;exitDy=0;" parent="NRFoNHu8XifHmaJofXyo-1" source="ln8PZBf_CkngDdTTPPHA-58" edge="1">
                    <mxGeometry relative="1" as="geometry">
                        <mxPoint x="3250" y="1471.81" as="targetPoint"/>
                        <mxPoint x="3430" y="1526.81" as="sourcePoint"/>
                        <Array as="points">
                            <mxPoint x="3380" y="1426.81"/>
                            <mxPoint x="3380" y="1491.81"/>
                            <mxPoint x="3250" y="1491.81"/>
                        </Array>
                    </mxGeometry>
                </mxCell>
                <mxCell id="ln8PZBf_CkngDdTTPPHA-63" value="HTTP Response" style="edgeLabel;html=1;align=center;verticalAlign=middle;resizable=0;points=[];labelBorderColor=none;labelBackgroundColor=default;fontColor=default;" parent="ln8PZBf_CkngDdTTPPHA-62" vertex="1" connectable="0">
                    <mxGeometry x="-0.0787" y="-1" relative="1" as="geometry">
                        <mxPoint x="-31.6" as="offset"/>
                    </mxGeometry>
                </mxCell>
                <mxCell id="ln8PZBf_CkngDdTTPPHA-64" style="edgeStyle=orthogonalEdgeStyle;rounded=0;orthogonalLoop=1;jettySize=auto;html=1;jumpStyle=none;dashed=1;exitX=0.75;exitY=1;exitDx=0;exitDy=0;entryX=1;entryY=0.5;entryDx=0;entryDy=0;" parent="NRFoNHu8XifHmaJofXyo-1" source="ln8PZBf_CkngDdTTPPHA-58" target="ln8PZBf_CkngDdTTPPHA-53" edge="1">
                    <mxGeometry relative="1" as="geometry">
                        <mxPoint x="3950" y="1496.81" as="targetPoint"/>
                        <mxPoint x="4160" y="1441.81" as="sourcePoint"/>
                        <Array as="points">
                            <mxPoint x="3488" y="1476.81"/>
                        </Array>
                    </mxGeometry>
                </mxCell>
                <mxCell id="ln8PZBf_CkngDdTTPPHA-65" style="rounded=0;orthogonalLoop=1;jettySize=auto;html=1;jumpStyle=none;dashed=1;entryX=1;entryY=0.5;entryDx=0;entryDy=0;exitX=0;exitY=0.5;exitDx=0;exitDy=0;" parent="NRFoNHu8XifHmaJofXyo-1" source="ln8PZBf_CkngDdTTPPHA-60" target="ln8PZBf_CkngDdTTPPHA-60" edge="1">
                    <mxGeometry relative="1" as="geometry">
                        <mxPoint x="3520" y="1481.81" as="targetPoint"/>
                        <mxPoint x="3610" y="1381.81" as="sourcePoint"/>
                    </mxGeometry>
                </mxCell>
                <mxCell id="ln8PZBf_CkngDdTTPPHA-66" style="rounded=0;orthogonalLoop=1;jettySize=auto;html=1;jumpStyle=none;exitX=0;exitY=0.75;exitDx=0;exitDy=0;entryX=1.004;entryY=0.565;entryDx=0;entryDy=0;entryPerimeter=0;" parent="NRFoNHu8XifHmaJofXyo-1" source="ln8PZBf_CkngDdTTPPHA-60" target="ln8PZBf_CkngDdTTPPHA-53" edge="1">
                    <mxGeometry relative="1" as="geometry">
                        <mxPoint x="3510" y="1531.81" as="targetPoint"/>
                        <mxPoint x="3750" y="1631.81" as="sourcePoint"/>
                    </mxGeometry>
                </mxCell>
                <mxCell id="ln8PZBf_CkngDdTTPPHA-67" value="return Result" style="edgeLabel;html=1;align=center;verticalAlign=middle;resizable=0;points=[];labelBorderColor=none;labelBackgroundColor=default;fontColor=default;" parent="ln8PZBf_CkngDdTTPPHA-66" vertex="1" connectable="0">
                    <mxGeometry x="-0.0787" y="-1" relative="1" as="geometry">
                        <mxPoint as="offset"/>
                    </mxGeometry>
                </mxCell>
                <mxCell id="ln8PZBf_CkngDdTTPPHA-68" style="rounded=0;jumpStyle=none;orthogonalLoop=1;jettySize=auto;html=1;entryX=0.661;entryY=1.02;entryDx=0;entryDy=0;dashed=1;exitX=1.004;exitY=0.565;exitDx=0;exitDy=0;elbow=vertical;entryPerimeter=0;exitPerimeter=0;" parent="NRFoNHu8XifHmaJofXyo-1" source="ln8PZBf_CkngDdTTPPHA-53" target="ln8PZBf_CkngDdTTPPHA-58" edge="1">
                    <mxGeometry relative="1" as="geometry">
                        <mxPoint x="3270" y="1581.81" as="sourcePoint"/>
                        <mxPoint x="3367.5" y="1611.81" as="targetPoint"/>
                        <Array as="points">
                            <mxPoint x="3476" y="1491.81"/>
                        </Array>
                    </mxGeometry>
                </mxCell>
                <mxCell id="ln8PZBf_CkngDdTTPPHA-69" style="rounded=0;jumpStyle=none;orthogonalLoop=1;jettySize=auto;html=1;entryX=0;entryY=0.75;entryDx=0;entryDy=0;dashed=1;exitX=0.666;exitY=1.008;exitDx=0;exitDy=0;edgeStyle=elbowEdgeStyle;elbow=vertical;exitPerimeter=0;" parent="NRFoNHu8XifHmaJofXyo-1" source="ln8PZBf_CkngDdTTPPHA-58" target="ln8PZBf_CkngDdTTPPHA-58" edge="1">
                    <mxGeometry relative="1" as="geometry">
                        <mxPoint x="3400" y="1421.81" as="sourcePoint"/>
                        <mxPoint x="3497.5" y="1451.81" as="targetPoint"/>
                        <Array as="points">
                            <mxPoint x="3440" y="1426.81"/>
                        </Array>
                    </mxGeometry>
                </mxCell>
                <mxCell id="ln8PZBf_CkngDdTTPPHA-70" value="return Ok" style="edgeLabel;html=1;align=center;verticalAlign=middle;resizable=0;points=[];labelBorderColor=none;labelBackgroundColor=default;fontColor=default;" parent="ln8PZBf_CkngDdTTPPHA-69" vertex="1" connectable="0">
                    <mxGeometry x="0.3729" y="-2" relative="1" as="geometry">
                        <mxPoint x="19" y="1" as="offset"/>
                    </mxGeometry>
                </mxCell>
                <mxCell id="ln8PZBf_CkngDdTTPPHA-71" style="edgeStyle=orthogonalEdgeStyle;rounded=0;jumpStyle=none;orthogonalLoop=1;jettySize=auto;html=1;exitX=0.853;exitY=1.003;exitDx=0;exitDy=0;dashed=1;entryX=0.671;entryY=1.001;entryDx=0;entryDy=0;exitPerimeter=0;entryPerimeter=0;" parent="NRFoNHu8XifHmaJofXyo-1" source="ln8PZBf_CkngDdTTPPHA-12" target="ln8PZBf_CkngDdTTPPHA-12" edge="1">
                    <mxGeometry relative="1" as="geometry">
                        <mxPoint x="4329.72" y="1543.5700000000002" as="targetPoint"/>
                        <mxPoint x="4340" y="1486.81" as="sourcePoint"/>
                        <Array as="points">
                            <mxPoint x="4311" y="1533.81"/>
                            <mxPoint x="4287" y="1533.81"/>
                            <mxPoint x="4287" y="1506.81"/>
                        </Array>
                    </mxGeometry>
                </mxCell>
                <mxCell id="ln8PZBf_CkngDdTTPPHA-72" value="Figure 15.8" style="text;html=1;align=center;verticalAlign=middle;resizable=0;points=[];autosize=1;fontSize=12;fontColor=default;" parent="NRFoNHu8XifHmaJofXyo-1" vertex="1">
                    <mxGeometry x="4685" y="1180" width="80" height="20" as="geometry"/>
                </mxCell>
                <mxCell id="ln8PZBf_CkngDdTTPPHA-73" value="600 px MAX width" style="rounded=0;whiteSpace=wrap;html=1;fontSize=12;align=center;fontStyle=1" parent="NRFoNHu8XifHmaJofXyo-1" vertex="1">
                    <mxGeometry x="4430" y="1700" width="600" height="40" as="geometry"/>
                </mxCell>
                <mxCell id="2Ei6t0j3schyepPZUMK0-0" value="Sign-in" style="rounded=1;whiteSpace=wrap;html=1;sketch=0;fillColor=default;fontSize=13;align=center;verticalAlign=middle;fontStyle=1;fontColor=default;strokeColor=default;horizontal=0;" vertex="1" parent="NRFoNHu8XifHmaJofXyo-1">
                    <mxGeometry x="1890" y="1770" width="40" height="180" as="geometry"/>
                </mxCell>
                <mxCell id="2Ei6t0j3schyepPZUMK0-1" value="Create a product" style="rounded=1;whiteSpace=wrap;html=1;sketch=0;fillColor=default;fontSize=13;align=center;verticalAlign=middle;fontStyle=1;fontColor=default;strokeColor=default;horizontal=0;" vertex="1" parent="NRFoNHu8XifHmaJofXyo-1">
                    <mxGeometry x="1840" y="1770" width="40" height="180" as="geometry"/>
                </mxCell>
                <mxCell id="2Ei6t0j3schyepPZUMK0-2" value="Generate code" style="rounded=1;whiteSpace=wrap;html=1;sketch=0;fillColor=default;fontSize=13;align=center;verticalAlign=middle;fontStyle=1;fontColor=default;strokeColor=default;horizontal=0;" vertex="1" parent="NRFoNHu8XifHmaJofXyo-1">
                    <mxGeometry x="1790" y="1770" width="40" height="180" as="geometry"/>
                </mxCell>
                <mxCell id="2Ei6t0j3schyepPZUMK0-14" value="Publish blog post" style="rounded=1;whiteSpace=wrap;html=1;sketch=0;fillColor=default;fontSize=13;align=center;verticalAlign=middle;fontStyle=1;fontColor=default;strokeColor=default;horizontal=0;" vertex="1" parent="NRFoNHu8XifHmaJofXyo-1">
                    <mxGeometry x="1990" y="1770" width="40" height="180" as="geometry"/>
                </mxCell>
                <mxCell id="2Ei6t0j3schyepPZUMK0-25" value="Data" style="rounded=0;whiteSpace=wrap;html=1;labelBackgroundColor=none;sketch=0;fontSize=11;strokeColor=default;fontStyle=0;shadow=0;glass=0;fontColor=default;fillColor=default;dashed=1;" vertex="1" parent="NRFoNHu8XifHmaJofXyo-1">
                    <mxGeometry x="2080" y="1900" width="120" height="40" as="geometry"/>
                </mxCell>
                <mxCell id="2Ei6t0j3schyepPZUMK0-26" value="Domain" style="rounded=0;whiteSpace=wrap;html=1;labelBackgroundColor=none;sketch=0;fontSize=11;strokeColor=default;fontStyle=0;shadow=0;glass=0;fontColor=default;fillColor=default;dashed=1;" vertex="1" parent="NRFoNHu8XifHmaJofXyo-1">
                    <mxGeometry x="2080" y="1840" width="120" height="40" as="geometry"/>
                </mxCell>
                <mxCell id="2Ei6t0j3schyepPZUMK0-27" value="Presentation" style="rounded=0;whiteSpace=wrap;html=1;labelBackgroundColor=none;sketch=0;fontSize=11;strokeColor=default;fillStyle=hachure;fontStyle=0;shadow=0;glass=0;fontColor=default;fillColor=default;dashed=1;" vertex="1" parent="NRFoNHu8XifHmaJofXyo-1">
                    <mxGeometry x="2080" y="1780" width="120" height="40" as="geometry"/>
                </mxCell>
                <mxCell id="2Ei6t0j3schyepPZUMK0-28" value="" style="endArrow=classic;html=1;shadow=0;fontFamily=Helvetica;fontSize=13;fontColor=#666666;strokeColor=default;" edge="1" parent="NRFoNHu8XifHmaJofXyo-1" source="2Ei6t0j3schyepPZUMK0-27" target="2Ei6t0j3schyepPZUMK0-26">
                    <mxGeometry width="50" height="50" relative="1" as="geometry">
                        <mxPoint x="2090" y="1810" as="sourcePoint"/>
                        <mxPoint x="2330" y="1810" as="targetPoint"/>
                    </mxGeometry>
                </mxCell>
                <mxCell id="2Ei6t0j3schyepPZUMK0-29" value="" style="endArrow=classic;html=1;shadow=0;fontFamily=Helvetica;fontSize=13;fontColor=#666666;strokeColor=default;" edge="1" parent="NRFoNHu8XifHmaJofXyo-1" source="2Ei6t0j3schyepPZUMK0-26" target="2Ei6t0j3schyepPZUMK0-25">
                    <mxGeometry width="50" height="50" relative="1" as="geometry">
                        <mxPoint x="2090" y="1909.8600000000001" as="sourcePoint"/>
                        <mxPoint x="2330" y="1909.8600000000001" as="targetPoint"/>
                    </mxGeometry>
                </mxCell>
                <mxCell id="2Ei6t0j3schyepPZUMK0-31" value="..." style="rounded=1;whiteSpace=wrap;html=1;sketch=0;fillColor=default;fontSize=13;align=center;verticalAlign=middle;fontStyle=1;fontColor=default;strokeColor=default;horizontal=0;" vertex="1" parent="NRFoNHu8XifHmaJofXyo-1">
                    <mxGeometry x="2040" y="1770" width="40" height="180" as="geometry"/>
                </mxCell>
                <mxCell id="2Ei6t0j3schyepPZUMK0-32" value="Add item to cart" style="rounded=1;whiteSpace=wrap;html=1;sketch=0;fillColor=default;fontSize=13;align=center;verticalAlign=middle;fontStyle=1;fontColor=default;strokeColor=default;horizontal=0;" vertex="1" parent="NRFoNHu8XifHmaJofXyo-1">
                    <mxGeometry x="1940" y="1770" width="40" height="180" as="geometry"/>
                </mxCell>
                <mxCell id="2Ei6t0j3schyepPZUMK0-61" value="" style="triangle;whiteSpace=wrap;html=1;rotation=-90;" vertex="1" parent="NRFoNHu8XifHmaJofXyo-1">
                    <mxGeometry x="1280" y="2080" width="240" height="320" as="geometry"/>
                </mxCell>
                <mxCell id="2Ei6t0j3schyepPZUMK0-62" value="" style="triangle;whiteSpace=wrap;html=1;rotation=-90;" vertex="1" parent="NRFoNHu8XifHmaJofXyo-1">
                    <mxGeometry x="1325" y="2095" width="150" height="200" as="geometry"/>
                </mxCell>
                <mxCell id="2Ei6t0j3schyepPZUMK0-63" value="" style="triangle;whiteSpace=wrap;html=1;rotation=-90;horizontal=1;" vertex="1" parent="NRFoNHu8XifHmaJofXyo-1">
                    <mxGeometry x="1365" y="2108.33" width="70" height="93.33" as="geometry"/>
                </mxCell>
                <mxCell id="2Ei6t0j3schyepPZUMK0-64" value="Global" style="text;html=1;align=center;verticalAlign=middle;resizable=0;points=[];autosize=1;strokeColor=none;fillColor=none;" vertex="1" parent="NRFoNHu8XifHmaJofXyo-1">
                    <mxGeometry x="1370" y="2150" width="60" height="30" as="geometry"/>
                </mxCell>
                <mxCell id="2Ei6t0j3schyepPZUMK0-65" value="Cross-slices" style="text;html=1;align=center;verticalAlign=middle;resizable=0;points=[];autosize=1;strokeColor=none;fillColor=none;" vertex="1" parent="NRFoNHu8XifHmaJofXyo-1">
                    <mxGeometry x="1355" y="2215" width="90" height="30" as="geometry"/>
                </mxCell>
                <mxCell id="2Ei6t0j3schyepPZUMK0-66" value="&lt;span style=&quot;&quot;&gt;Slices&lt;/span&gt;" style="text;html=1;align=center;verticalAlign=middle;resizable=0;points=[];autosize=1;strokeColor=none;fillColor=none;" vertex="1" parent="NRFoNHu8XifHmaJofXyo-1">
                    <mxGeometry x="1370" y="2305" width="60" height="30" as="geometry"/>
                </mxCell>
                <mxCell id="2Ei6t0j3schyepPZUMK0-67" value="" style="endArrow=block;startArrow=block;html=1;rounded=0;endFill=1;startFill=1;" edge="1" parent="NRFoNHu8XifHmaJofXyo-1">
                    <mxGeometry width="50" height="50" relative="1" as="geometry">
                        <mxPoint x="1579.5" y="2360" as="sourcePoint"/>
                        <mxPoint x="1579.5" y="2120" as="targetPoint"/>
                    </mxGeometry>
                </mxCell>
                <mxCell id="2Ei6t0j3schyepPZUMK0-70" value="" style="endArrow=block;startArrow=block;html=1;rounded=0;endFill=1;startFill=1;" edge="1" parent="NRFoNHu8XifHmaJofXyo-1">
                    <mxGeometry width="50" height="50" relative="1" as="geometry">
                        <mxPoint x="1560" y="2380" as="sourcePoint"/>
                        <mxPoint x="1240" y="2380" as="targetPoint"/>
                    </mxGeometry>
                </mxCell>
                <mxCell id="2Ei6t0j3schyepPZUMK0-72" value="&lt;div&gt;&lt;span style=&quot;text-align: right; background-color: initial;&quot;&gt;Loose-coupling between slices and global code&lt;/span&gt;&lt;br&gt;&lt;/div&gt;" style="text;html=1;strokeColor=none;fillColor=none;align=left;verticalAlign=middle;whiteSpace=wrap;rounded=0;labelBackgroundColor=none;fontSize=12;fontColor=default;spacing=2;" vertex="1" parent="NRFoNHu8XifHmaJofXyo-1">
                    <mxGeometry x="1600" y="2120" width="160" height="40" as="geometry"/>
                </mxCell>
                <mxCell id="2Ei6t0j3schyepPZUMK0-73" value="&lt;div&gt;&lt;span style=&quot;background-color: initial;&quot;&gt;Highly cohesive slices&lt;/span&gt;&lt;br&gt;&lt;/div&gt;&lt;div&gt;&lt;span style=&quot;text-align: right;&quot;&gt;Tight-coupling within a slice&lt;/span&gt;&lt;span style=&quot;background-color: initial;&quot;&gt;&lt;br&gt;&lt;/span&gt;&lt;/div&gt;" style="text;html=1;strokeColor=none;fillColor=none;align=left;verticalAlign=middle;whiteSpace=wrap;rounded=0;labelBackgroundColor=none;fontSize=12;fontColor=default;spacing=2;" vertex="1" parent="NRFoNHu8XifHmaJofXyo-1">
                    <mxGeometry x="1600" y="2320" width="160" height="40" as="geometry"/>
                </mxCell>
                <mxCell id="2Ei6t0j3schyepPZUMK0-74" value="&lt;span style=&quot;&quot;&gt;Quantity of code&lt;/span&gt;" style="text;html=1;strokeColor=none;fillColor=none;align=center;verticalAlign=middle;whiteSpace=wrap;rounded=0;labelBackgroundColor=none;fontSize=12;fontColor=default;" vertex="1" parent="NRFoNHu8XifHmaJofXyo-1">
                    <mxGeometry x="1240" y="2380" width="320" height="40" as="geometry"/>
                </mxCell>
                <mxCell id="2Ei6t0j3schyepPZUMK0-75" value="&lt;div style=&quot;&quot;&gt;&lt;br&gt;&lt;/div&gt;" style="text;html=1;strokeColor=none;fillColor=none;align=right;verticalAlign=middle;whiteSpace=wrap;rounded=0;labelBackgroundColor=none;fontSize=12;fontColor=default;" vertex="1" parent="NRFoNHu8XifHmaJofXyo-1">
                    <mxGeometry x="1080" y="2340" width="100" height="20" as="geometry"/>
                </mxCell>
                <mxCell id="2Ei6t0j3schyepPZUMK0-78" value="Cohesive cross-slices code with limited tight coupling between the slices" style="text;html=1;strokeColor=none;fillColor=none;align=left;verticalAlign=middle;whiteSpace=wrap;rounded=0;labelBackgroundColor=none;fontSize=12;fontColor=default;spacing=2;" vertex="1" parent="NRFoNHu8XifHmaJofXyo-1">
                    <mxGeometry x="1600" y="2200" width="160" height="80" as="geometry"/>
                </mxCell>
            </root>
        </mxGraphModel>
    </diagram>
    <diagram id="WeTWr4gC9FGoRz4ITgJu" name="Mediator">
        <mxGraphModel dx="2084" dy="1839" grid="1" gridSize="10" guides="1" tooltips="1" connect="1" arrows="1" fold="1" page="0" pageScale="1" pageWidth="850" pageHeight="1100" math="0" shadow="0">
            <root>
                <mxCell id="0"/>
                <mxCell id="1" parent="0"/>
                <mxCell id="qLh6wpqrCz9U0z2CMlPT-15" style="edgeStyle=orthogonalEdgeStyle;rounded=0;orthogonalLoop=1;jettySize=auto;html=1;endArrow=block;endFill=0;endSize=12;dashed=1;" parent="1" source="qLh6wpqrCz9U0z2CMlPT-1" target="LLegwwf7M3faXV5nhpJP-3" edge="1">
                    <mxGeometry relative="1" as="geometry">
                        <mxPoint x="95" y="230" as="targetPoint"/>
                    </mxGeometry>
                </mxCell>
                <mxCell id="qLh6wpqrCz9U0z2CMlPT-16" style="edgeStyle=orthogonalEdgeStyle;rounded=0;orthogonalLoop=1;jettySize=auto;html=1;endArrow=none;endFill=0;endSize=12;startArrow=diamondThin;startFill=0;startSize=15;" parent="1" source="qLh6wpqrCz9U0z2CMlPT-2" target="LLegwwf7M3faXV5nhpJP-5" edge="1">
                    <mxGeometry relative="1" as="geometry">
                        <mxPoint x="375" y="230" as="targetPoint"/>
                    </mxGeometry>
                </mxCell>
                <mxCell id="qLh6wpqrCz9U0z2CMlPT-27" style="edgeStyle=orthogonalEdgeStyle;rounded=0;orthogonalLoop=1;jettySize=auto;html=1;endArrow=block;endFill=0;endSize=12;dashed=1;" parent="1" source="qLh6wpqrCz9U0z2CMlPT-5" target="LLegwwf7M3faXV5nhpJP-13" edge="1">
                    <mxGeometry relative="1" as="geometry">
                        <mxPoint x="375" y="370" as="sourcePoint"/>
                        <mxPoint x="645.0476190476193" y="620" as="targetPoint"/>
                    </mxGeometry>
                </mxCell>
                <mxCell id="qLh6wpqrCz9U0z2CMlPT-30" style="edgeStyle=orthogonalEdgeStyle;rounded=0;orthogonalLoop=1;jettySize=auto;html=1;endArrow=block;endFill=0;endSize=12;dashed=1;" parent="1" source="qLh6wpqrCz9U0z2CMlPT-28" target="LLegwwf7M3faXV5nhpJP-13" edge="1">
                    <mxGeometry relative="1" as="geometry">
                        <mxPoint x="655" y="700" as="sourcePoint"/>
                        <mxPoint x="645.0476190476193" y="620" as="targetPoint"/>
                    </mxGeometry>
                </mxCell>
                <mxCell id="qLh6wpqrCz9U0z2CMlPT-34" style="edgeStyle=orthogonalEdgeStyle;rounded=0;orthogonalLoop=1;jettySize=auto;html=1;endArrow=open;endFill=0;endSize=12;" parent="1" source="LLegwwf7M3faXV5nhpJP-11" target="LLegwwf7M3faXV5nhpJP-13" edge="1">
                    <mxGeometry relative="1" as="geometry">
                        <mxPoint x="550" y="585.0476190476193" as="targetPoint"/>
                        <mxPoint x="480" y="585" as="sourcePoint"/>
                    </mxGeometry>
                </mxCell>
                <mxCell id="qLh6wpqrCz9U0z2CMlPT-28" value="ConcreteColleague2" style="swimlane;fontStyle=1;align=center;verticalAlign=top;childLayout=stackLayout;horizontal=1;startSize=26;horizontalStack=0;resizeParent=1;resizeParentMax=0;resizeLast=0;collapsible=0;marginBottom=0;fillColor=default;swimlaneFillColor=default;strokeColor=default;fontColor=default;" parent="1" vertex="1">
                    <mxGeometry x="650" y="680" width="190" height="52" as="geometry"/>
                </mxCell>
                <mxCell id="qLh6wpqrCz9U0z2CMlPT-29" value="+ Receive(Message): void" style="text;align=left;verticalAlign=top;spacingLeft=4;spacingRight=4;overflow=hidden;rotatable=0;points=[[0,0.5],[1,0.5]];portConstraint=eastwest;fillColor=none;fontColor=default;strokeColor=default;" parent="qLh6wpqrCz9U0z2CMlPT-28" vertex="1">
                    <mxGeometry y="26" width="190" height="26" as="geometry"/>
                </mxCell>
                <mxCell id="qLh6wpqrCz9U0z2CMlPT-5" value="ConcreteColleague1" style="swimlane;fontStyle=1;align=center;verticalAlign=top;childLayout=stackLayout;horizontal=1;startSize=26;horizontalStack=0;resizeParent=1;resizeParentMax=0;resizeLast=0;collapsible=0;marginBottom=0;fillColor=default;swimlaneFillColor=default;strokeColor=default;fontColor=default;" parent="1" vertex="1">
                    <mxGeometry x="450" y="680" width="190" height="78" as="geometry"/>
                </mxCell>
                <mxCell id="qLh6wpqrCz9U0z2CMlPT-32" value="- mediator: IMediator" style="text;align=left;verticalAlign=top;spacingLeft=4;spacingRight=4;overflow=hidden;rotatable=0;points=[[0,0.5],[1,0.5]];portConstraint=eastwest;fillColor=none;fontColor=default;strokeColor=default;" parent="qLh6wpqrCz9U0z2CMlPT-5" vertex="1">
                    <mxGeometry y="26" width="190" height="26" as="geometry"/>
                </mxCell>
                <mxCell id="qLh6wpqrCz9U0z2CMlPT-8" value="+ Receive(Message): void" style="text;align=left;verticalAlign=top;spacingLeft=4;spacingRight=4;overflow=hidden;rotatable=0;points=[[0,0.5],[1,0.5]];portConstraint=eastwest;fillColor=none;fontColor=default;strokeColor=default;" parent="qLh6wpqrCz9U0z2CMlPT-5" vertex="1">
                    <mxGeometry y="52" width="190" height="26" as="geometry"/>
                </mxCell>
                <mxCell id="qLh6wpqrCz9U0z2CMlPT-36" style="edgeStyle=orthogonalEdgeStyle;rounded=0;orthogonalLoop=1;jettySize=auto;html=1;startArrow=diamondThin;startFill=0;startSize=15;endArrow=none;endFill=0;endSize=12;" parent="1" source="qLh6wpqrCz9U0z2CMlPT-32" target="LLegwwf7M3faXV5nhpJP-11" edge="1">
                    <mxGeometry relative="1" as="geometry">
                        <mxPoint x="385.04761904761926" y="620" as="targetPoint"/>
                    </mxGeometry>
                </mxCell>
                <mxCell id="qLh6wpqrCz9U0z2CMlPT-37" value=":IMediator" style="shape=umlLifeline;perimeter=lifelinePerimeter;whiteSpace=wrap;html=1;container=1;collapsible=0;recursiveResize=0;outlineConnect=0;fillColor=#ffffff;" parent="1" vertex="1">
                    <mxGeometry x="-200" y="840" width="100" height="180" as="geometry"/>
                </mxCell>
                <mxCell id="qLh6wpqrCz9U0z2CMlPT-43" value="" style="html=1;points=[];perimeter=orthogonalPerimeter;fillColor=#ffffff;" parent="qLh6wpqrCz9U0z2CMlPT-37" vertex="1">
                    <mxGeometry x="45" y="60" width="10" height="100" as="geometry"/>
                </mxCell>
                <mxCell id="qLh6wpqrCz9U0z2CMlPT-38" value="colleague1&lt;br&gt;:IColleague" style="shape=umlLifeline;perimeter=lifelinePerimeter;whiteSpace=wrap;html=1;container=1;collapsible=0;recursiveResize=0;outlineConnect=0;fillColor=#ffffff;" parent="1" vertex="1">
                    <mxGeometry x="-80" y="840" width="100" height="180" as="geometry"/>
                </mxCell>
                <mxCell id="qLh6wpqrCz9U0z2CMlPT-46" value="" style="html=1;points=[];perimeter=orthogonalPerimeter;fillColor=#ffffff;" parent="qLh6wpqrCz9U0z2CMlPT-38" vertex="1">
                    <mxGeometry x="45" y="80" width="10" height="30" as="geometry"/>
                </mxCell>
                <mxCell id="qLh6wpqrCz9U0z2CMlPT-39" value="colleague2&lt;br&gt;:IColleague" style="shape=umlLifeline;perimeter=lifelinePerimeter;whiteSpace=wrap;html=1;container=1;collapsible=0;recursiveResize=0;outlineConnect=0;fillColor=default;strokeColor=default;fontColor=default;" parent="1" vertex="1">
                    <mxGeometry x="40" y="840" width="100" height="180" as="geometry"/>
                </mxCell>
                <mxCell id="qLh6wpqrCz9U0z2CMlPT-47" value="" style="html=1;points=[];perimeter=orthogonalPerimeter;fillColor=default;strokeColor=default;" parent="qLh6wpqrCz9U0z2CMlPT-39" vertex="1">
                    <mxGeometry x="45" y="130" width="10" height="30" as="geometry"/>
                </mxCell>
                <mxCell id="kBxDytpTJEtKaplyMq0G-7" value=":IMediator" style="shape=umlLifeline;perimeter=lifelinePerimeter;whiteSpace=wrap;html=1;container=1;collapsible=0;recursiveResize=0;outlineConnect=0;fillColor=default;strokeColor=default;" vertex="1" parent="qLh6wpqrCz9U0z2CMlPT-39">
                    <mxGeometry x="-240" width="100" height="180" as="geometry"/>
                </mxCell>
                <mxCell id="kBxDytpTJEtKaplyMq0G-8" value="" style="html=1;points=[];perimeter=orthogonalPerimeter;fillColor=default;strokeColor=default;" vertex="1" parent="kBxDytpTJEtKaplyMq0G-7">
                    <mxGeometry x="45" y="60" width="10" height="100" as="geometry"/>
                </mxCell>
                <mxCell id="kBxDytpTJEtKaplyMq0G-9" value="colleague1&lt;br&gt;:IColleague" style="shape=umlLifeline;perimeter=lifelinePerimeter;whiteSpace=wrap;html=1;container=1;collapsible=0;recursiveResize=0;outlineConnect=0;fillColor=default;strokeColor=default;" vertex="1" parent="qLh6wpqrCz9U0z2CMlPT-39">
                    <mxGeometry x="-120" width="100" height="180" as="geometry"/>
                </mxCell>
                <mxCell id="kBxDytpTJEtKaplyMq0G-10" value="" style="html=1;points=[];perimeter=orthogonalPerimeter;fillColor=default;strokeColor=default;" vertex="1" parent="kBxDytpTJEtKaplyMq0G-9">
                    <mxGeometry x="45" y="80" width="10" height="30" as="geometry"/>
                </mxCell>
                <mxCell id="qLh6wpqrCz9U0z2CMlPT-41" value="" style="shape=umlLifeline;participant=umlActor;perimeter=lifelinePerimeter;whiteSpace=wrap;html=1;container=1;collapsible=0;recursiveResize=0;verticalAlign=top;spacingTop=36;labelBackgroundColor=#ffffff;outlineConnect=0;fillColor=default;strokeColor=default;" parent="1" vertex="1">
                    <mxGeometry x="-280" y="840" width="20" height="180" as="geometry"/>
                </mxCell>
                <mxCell id="qLh6wpqrCz9U0z2CMlPT-42" value="" style="html=1;points=[];perimeter=orthogonalPerimeter;fillColor=default;strokeColor=default;" parent="qLh6wpqrCz9U0z2CMlPT-41" vertex="1">
                    <mxGeometry x="5" y="60" width="10" height="80" as="geometry"/>
                </mxCell>
                <mxCell id="qLh6wpqrCz9U0z2CMlPT-44" value="Send(Message)" style="html=1;verticalAlign=bottom;startArrow=none;endArrow=block;startSize=8;startFill=0;" parent="1" source="qLh6wpqrCz9U0z2CMlPT-42" target="qLh6wpqrCz9U0z2CMlPT-43" edge="1">
                    <mxGeometry relative="1" as="geometry">
                        <mxPoint x="-250" y="910" as="sourcePoint"/>
                        <Array as="points">
                            <mxPoint x="-210" y="910"/>
                        </Array>
                    </mxGeometry>
                </mxCell>
                <mxCell id="qLh6wpqrCz9U0z2CMlPT-45" value="Receive(Message)" style="html=1;verticalAlign=bottom;startArrow=none;endArrow=block;startSize=8;startFill=0;" parent="1" source="qLh6wpqrCz9U0z2CMlPT-43" target="qLh6wpqrCz9U0z2CMlPT-46" edge="1">
                    <mxGeometry relative="1" as="geometry">
                        <mxPoint x="-140" y="930" as="sourcePoint"/>
                        <mxPoint x="-70" y="950" as="targetPoint"/>
                        <Array as="points">
                            <mxPoint x="-85" y="930"/>
                        </Array>
                    </mxGeometry>
                </mxCell>
                <mxCell id="qLh6wpqrCz9U0z2CMlPT-48" value="Receive(Message)" style="html=1;verticalAlign=bottom;startArrow=none;endArrow=block;startSize=8;startFill=0;" parent="1" source="qLh6wpqrCz9U0z2CMlPT-43" target="qLh6wpqrCz9U0z2CMlPT-47" edge="1">
                    <mxGeometry relative="1" as="geometry">
                        <mxPoint x="-90" y="970" as="sourcePoint"/>
                        <mxPoint x="-15" y="990" as="targetPoint"/>
                        <Array as="points">
                            <mxPoint x="-60" y="980"/>
                            <mxPoint x="70" y="980"/>
                        </Array>
                        <mxPoint as="offset"/>
                    </mxGeometry>
                </mxCell>
                <mxCell id="qLh6wpqrCz9U0z2CMlPT-49" value=":IMediator" style="shape=umlLifeline;perimeter=lifelinePerimeter;whiteSpace=wrap;html=1;container=1;collapsible=0;recursiveResize=0;outlineConnect=0;fillColor=default;strokeColor=default;fontColor=default;" parent="1" vertex="1">
                    <mxGeometry x="-200" y="1080" width="100" height="140" as="geometry"/>
                </mxCell>
                <mxCell id="qLh6wpqrCz9U0z2CMlPT-50" value="" style="html=1;points=[];perimeter=orthogonalPerimeter;fillColor=default;strokeColor=default;" parent="qLh6wpqrCz9U0z2CMlPT-49" vertex="1">
                    <mxGeometry x="45" y="60" width="10" height="60" as="geometry"/>
                </mxCell>
                <mxCell id="qLh6wpqrCz9U0z2CMlPT-51" value="colleague1&lt;br&gt;:IColleague" style="shape=umlLifeline;perimeter=lifelinePerimeter;whiteSpace=wrap;html=1;container=1;collapsible=0;recursiveResize=0;outlineConnect=0;fillColor=default;strokeColor=default;fontColor=default;" parent="1" vertex="1">
                    <mxGeometry x="-80" y="1080" width="100" height="140" as="geometry"/>
                </mxCell>
                <mxCell id="qLh6wpqrCz9U0z2CMlPT-56" value="" style="html=1;points=[];perimeter=orthogonalPerimeter;fillColor=default;strokeColor=default;" parent="qLh6wpqrCz9U0z2CMlPT-51" vertex="1">
                    <mxGeometry x="45" y="60" width="10" height="60" as="geometry"/>
                </mxCell>
                <mxCell id="qLh6wpqrCz9U0z2CMlPT-53" value="colleague2&lt;br&gt;:IColleague" style="shape=umlLifeline;perimeter=lifelinePerimeter;whiteSpace=wrap;html=1;container=1;collapsible=0;recursiveResize=0;outlineConnect=0;fillColor=default;strokeColor=default;fontColor=default;" parent="1" vertex="1">
                    <mxGeometry x="40" y="1080" width="100" height="140" as="geometry"/>
                </mxCell>
                <mxCell id="qLh6wpqrCz9U0z2CMlPT-54" value="" style="html=1;points=[];perimeter=orthogonalPerimeter;fillColor=default;strokeColor=default;" parent="qLh6wpqrCz9U0z2CMlPT-53" vertex="1">
                    <mxGeometry x="45" y="90" width="10" height="30" as="geometry"/>
                </mxCell>
                <mxCell id="qLh6wpqrCz9U0z2CMlPT-57" value="Send(Message)" style="html=1;verticalAlign=bottom;startArrow=none;endArrow=block;startSize=8;startFill=0;" parent="1" source="qLh6wpqrCz9U0z2CMlPT-56" target="qLh6wpqrCz9U0z2CMlPT-50" edge="1">
                    <mxGeometry relative="1" as="geometry">
                        <mxPoint x="-250" y="1150" as="sourcePoint"/>
                        <Array as="points">
                            <mxPoint x="-80" y="1150"/>
                        </Array>
                        <mxPoint x="-210" y="1180" as="targetPoint"/>
                    </mxGeometry>
                </mxCell>
                <mxCell id="qLh6wpqrCz9U0z2CMlPT-59" value="Receive(Message)" style="html=1;verticalAlign=bottom;startArrow=none;endArrow=block;startSize=8;startFill=0;" parent="1" target="qLh6wpqrCz9U0z2CMlPT-54" edge="1">
                    <mxGeometry relative="1" as="geometry">
                        <mxPoint x="-145" y="1180" as="sourcePoint"/>
                        <mxPoint x="-15" y="1190" as="targetPoint"/>
                        <Array as="points">
                            <mxPoint x="-60" y="1180"/>
                            <mxPoint x="70" y="1180"/>
                        </Array>
                        <mxPoint as="offset"/>
                    </mxGeometry>
                </mxCell>
                <mxCell id="qLh6wpqrCz9U0z2CMlPT-1" value="ConcreteMediator" style="swimlane;fontStyle=1;align=center;verticalAlign=top;childLayout=stackLayout;horizontal=1;startSize=26;horizontalStack=0;resizeParent=1;resizeParentMax=0;resizeLast=0;collapsible=0;marginBottom=0;fillColor=default;fontColor=default;strokeColor=default;swimlaneFillColor=default;" parent="1" vertex="1">
                    <mxGeometry y="320" width="190" height="78" as="geometry"/>
                </mxCell>
                <mxCell id="qLh6wpqrCz9U0z2CMlPT-2" value="- colleagues: IColleagues[]" style="text;align=left;verticalAlign=top;spacingLeft=4;spacingRight=4;overflow=hidden;rotatable=0;points=[[0,0.5],[1,0.5]];portConstraint=eastwest;fillColor=none;strokeColor=default;" parent="qLh6wpqrCz9U0z2CMlPT-1" vertex="1">
                    <mxGeometry y="26" width="190" height="26" as="geometry"/>
                </mxCell>
                <mxCell id="qLh6wpqrCz9U0z2CMlPT-4" value="+ Send(Message): void" style="text;align=left;verticalAlign=top;spacingLeft=4;spacingRight=4;overflow=hidden;rotatable=0;points=[[0,0.5],[1,0.5]];portConstraint=eastwest;fillColor=none;strokeColor=default;" parent="qLh6wpqrCz9U0z2CMlPT-1" vertex="1">
                    <mxGeometry y="52" width="190" height="26" as="geometry"/>
                </mxCell>
                <mxCell id="qLh6wpqrCz9U0z2CMlPT-63" style="edgeStyle=orthogonalEdgeStyle;rounded=0;orthogonalLoop=1;jettySize=auto;html=1;endArrow=block;endFill=0;endSize=12;dashed=1;" parent="1" source="qLh6wpqrCz9U0z2CMlPT-65" target="LLegwwf7M3faXV5nhpJP-7" edge="1">
                    <mxGeometry relative="1" as="geometry">
                        <mxPoint x="775" y="180" as="targetPoint"/>
                    </mxGeometry>
                </mxCell>
                <mxCell id="qLh6wpqrCz9U0z2CMlPT-64" style="edgeStyle=orthogonalEdgeStyle;rounded=0;orthogonalLoop=1;jettySize=auto;html=1;endArrow=none;endFill=0;endSize=12;startArrow=diamondThin;startFill=0;startSize=15;exitX=0.75;exitY=0;exitDx=0;exitDy=0;entryX=0.264;entryY=0.997;entryDx=0;entryDy=0;entryPerimeter=0;" parent="1" source="qLh6wpqrCz9U0z2CMlPT-65" target="LLegwwf7M3faXV5nhpJP-10" edge="1">
                    <mxGeometry relative="1" as="geometry">
                        <mxPoint x="1010" y="180" as="targetPoint"/>
                    </mxGeometry>
                </mxCell>
                <mxCell id="qLh6wpqrCz9U0z2CMlPT-65" value="ConcreteMediator" style="swimlane;fontStyle=1;align=center;verticalAlign=top;childLayout=stackLayout;horizontal=1;startSize=26;horizontalStack=0;resizeParent=1;resizeParentMax=0;resizeLast=0;collapsible=0;marginBottom=0;fillColor=default;swimlaneFillColor=default;fontColor=default;strokeColor=default;" parent="1" vertex="1">
                    <mxGeometry x="680" y="270" width="190" height="78" as="geometry"/>
                </mxCell>
                <mxCell id="qLh6wpqrCz9U0z2CMlPT-66" value="- colleagues: IColleagues[]" style="text;align=left;verticalAlign=top;spacingLeft=4;spacingRight=4;overflow=hidden;rotatable=0;points=[[0,0.5],[1,0.5]];portConstraint=eastwest;fillColor=none;strokeColor=default;fontColor=default;" parent="qLh6wpqrCz9U0z2CMlPT-65" vertex="1">
                    <mxGeometry y="26" width="190" height="26" as="geometry"/>
                </mxCell>
                <mxCell id="qLh6wpqrCz9U0z2CMlPT-68" value="+ Send(Message): void" style="text;align=left;verticalAlign=top;spacingLeft=4;spacingRight=4;overflow=hidden;rotatable=0;points=[[0,0.5],[1,0.5]];portConstraint=eastwest;fillColor=none;strokeColor=default;fontColor=default;" parent="qLh6wpqrCz9U0z2CMlPT-65" vertex="1">
                    <mxGeometry y="52" width="190" height="26" as="geometry"/>
                </mxCell>
                <mxCell id="qLh6wpqrCz9U0z2CMlPT-70" style="rounded=0;orthogonalLoop=1;jettySize=auto;html=1;endArrow=block;endFill=0;endSize=12;dashed=1;" parent="1" source="qLh6wpqrCz9U0z2CMlPT-76" target="LLegwwf7M3faXV5nhpJP-9" edge="1">
                    <mxGeometry relative="1" as="geometry">
                        <mxPoint x="1055" y="176" as="sourcePoint"/>
                        <mxPoint x="1055" y="180" as="targetPoint"/>
                    </mxGeometry>
                </mxCell>
                <mxCell id="qLh6wpqrCz9U0z2CMlPT-80" style="edgeStyle=orthogonalEdgeStyle;rounded=0;orthogonalLoop=1;jettySize=auto;html=1;startArrow=diamondThin;startFill=0;startSize=15;endArrow=none;endFill=0;endSize=12;jumpStyle=gap;exitX=0;exitY=0.5;exitDx=0;exitDy=0;" parent="1" source="qLh6wpqrCz9U0z2CMlPT-77" target="LLegwwf7M3faXV5nhpJP-8" edge="1">
                    <mxGeometry relative="1" as="geometry">
                        <mxPoint x="870" y="162.5" as="targetPoint"/>
                        <Array as="points">
                            <mxPoint x="910" y="279"/>
                            <mxPoint x="910" y="163"/>
                        </Array>
                    </mxGeometry>
                </mxCell>
                <mxCell id="qLh6wpqrCz9U0z2CMlPT-76" value="ConcreateColleague1" style="swimlane;fontStyle=1;align=center;verticalAlign=top;childLayout=stackLayout;horizontal=1;startSize=26;horizontalStack=0;resizeParent=1;resizeParentMax=0;resizeLast=0;collapsible=0;marginBottom=0;fillColor=default;swimlaneFillColor=default;fontColor=default;strokeColor=default;" parent="1" vertex="1">
                    <mxGeometry x="960" y="240" width="190" height="78" as="geometry"/>
                </mxCell>
                <mxCell id="qLh6wpqrCz9U0z2CMlPT-77" value="- mediator: IMediator" style="text;align=left;verticalAlign=top;spacingLeft=4;spacingRight=4;overflow=hidden;rotatable=0;points=[[0,0.5],[1,0.5]];portConstraint=eastwest;fillColor=none;strokeColor=default;fontColor=default;" parent="qLh6wpqrCz9U0z2CMlPT-76" vertex="1">
                    <mxGeometry y="26" width="190" height="26" as="geometry"/>
                </mxCell>
                <mxCell id="qLh6wpqrCz9U0z2CMlPT-79" value="+ Receive(Message): void" style="text;align=left;verticalAlign=top;spacingLeft=4;spacingRight=4;overflow=hidden;rotatable=0;points=[[0,0.5],[1,0.5]];portConstraint=eastwest;fillColor=none;strokeColor=default;fontColor=default;" parent="qLh6wpqrCz9U0z2CMlPT-76" vertex="1">
                    <mxGeometry y="52" width="190" height="26" as="geometry"/>
                </mxCell>
                <mxCell id="qLh6wpqrCz9U0z2CMlPT-81" style="edgeStyle=orthogonalEdgeStyle;rounded=0;orthogonalLoop=1;jettySize=auto;html=1;endArrow=open;endFill=0;endSize=12;entryX=0;entryY=0.5;entryDx=0;entryDy=0;exitX=1;exitY=0.5;exitDx=0;exitDy=0;" parent="1" source="qLh6wpqrCz9U0z2CMlPT-68" target="qLh6wpqrCz9U0z2CMlPT-79" edge="1">
                    <mxGeometry relative="1" as="geometry">
                        <mxPoint x="870" y="127.5" as="sourcePoint"/>
                        <mxPoint x="960" y="127.5" as="targetPoint"/>
                    </mxGeometry>
                </mxCell>
                <mxCell id="gFyDSmiEamECZuDuTmNl-1" value="Figure 14.3" style="text;html=1;align=center;verticalAlign=middle;resizable=0;points=[];autosize=1;fontSize=12;fontColor=default;" parent="1" vertex="1">
                    <mxGeometry x="220" y="20" width="80" height="20" as="geometry"/>
                </mxCell>
                <mxCell id="gFyDSmiEamECZuDuTmNl-2" value="Figure 14.5" style="text;html=1;align=center;verticalAlign=middle;resizable=0;points=[];autosize=1;fontSize=12;fontColor=#000000;" parent="1" vertex="1">
                    <mxGeometry x="570" y="800" width="80" height="20" as="geometry"/>
                </mxCell>
                <mxCell id="AL8ufDaA2baDiRTDEuV--1" value="Figure 14.7" style="text;html=1;align=center;verticalAlign=middle;resizable=0;points=[];autosize=1;fontSize=12;fontColor=default;" parent="1" vertex="1">
                    <mxGeometry x="55" y="440" width="80" height="20" as="geometry"/>
                </mxCell>
                <mxCell id="bRMpz78bY9-C_sZuXuRD-12" style="edgeStyle=none;html=1;fontColor=default;endArrow=open;endFill=0;endSize=12;" edge="1" parent="1" source="bRMpz78bY9-C_sZuXuRD-1" target="bRMpz78bY9-C_sZuXuRD-5">
                    <mxGeometry relative="1" as="geometry"/>
                </mxCell>
                <mxCell id="bRMpz78bY9-C_sZuXuRD-1" value="&lt;&lt;Interface&gt;&gt;&#10;IMediator" style="swimlane;fontStyle=1;align=center;verticalAlign=top;childLayout=stackLayout;horizontal=1;startSize=40;horizontalStack=0;resizeParent=1;resizeParentMax=0;resizeLast=0;collapsible=0;marginBottom=0;swimlaneFillColor=default;" vertex="1" parent="1">
                    <mxGeometry x="160" y="-120" width="160" height="66" as="geometry"/>
                </mxCell>
                <mxCell id="bRMpz78bY9-C_sZuXuRD-4" value="+ Send(Message): void" style="text;strokeColor=default;fillColor=none;align=left;verticalAlign=top;spacingLeft=4;spacingRight=4;overflow=hidden;rotatable=0;points=[[0,0.5],[1,0.5]];portConstraint=eastwest;" vertex="1" parent="bRMpz78bY9-C_sZuXuRD-1">
                    <mxGeometry y="40" width="160" height="26" as="geometry"/>
                </mxCell>
                <mxCell id="bRMpz78bY9-C_sZuXuRD-5" value="&lt;&lt;Interface&gt;&gt;&#10;IColleague" style="swimlane;fontStyle=1;align=center;verticalAlign=top;childLayout=stackLayout;horizontal=1;startSize=40;horizontalStack=0;resizeParent=1;resizeParentMax=0;resizeLast=0;collapsible=0;marginBottom=0;swimlaneFillColor=default;" vertex="1" parent="1">
                    <mxGeometry x="370" y="-120" width="160" height="66" as="geometry"/>
                </mxCell>
                <mxCell id="bRMpz78bY9-C_sZuXuRD-6" value="+ Receive(Message): void" style="text;strokeColor=default;fillColor=none;align=left;verticalAlign=top;spacingLeft=4;spacingRight=4;overflow=hidden;rotatable=0;points=[[0,0.5],[1,0.5]];portConstraint=eastwest;" vertex="1" parent="bRMpz78bY9-C_sZuXuRD-5">
                    <mxGeometry y="40" width="160" height="26" as="geometry"/>
                </mxCell>
                <mxCell id="bRMpz78bY9-C_sZuXuRD-7" value="" style="endArrow=none;html=1;fontColor=default;" edge="1" parent="1">
                    <mxGeometry width="50" height="50" relative="1" as="geometry">
                        <mxPoint x="-600" y="-380" as="sourcePoint"/>
                        <mxPoint x="-550" y="-430" as="targetPoint"/>
                    </mxGeometry>
                </mxCell>
                <mxCell id="bRMpz78bY9-C_sZuXuRD-8" value="" style="endArrow=none;html=1;fontColor=default;" edge="1" parent="1">
                    <mxGeometry width="50" height="50" relative="1" as="geometry">
                        <mxPoint x="1500" y="1330" as="sourcePoint"/>
                        <mxPoint x="1550" y="1280" as="targetPoint"/>
                    </mxGeometry>
                </mxCell>
                <mxCell id="bRMpz78bY9-C_sZuXuRD-9" value="Consumer" style="html=1;fillColor=default;strokeColor=default;fontColor=default;" vertex="1" parent="1">
                    <mxGeometry y="-112" width="110" height="50" as="geometry"/>
                </mxCell>
                <mxCell id="bRMpz78bY9-C_sZuXuRD-10" style="edgeStyle=orthogonalEdgeStyle;rounded=0;orthogonalLoop=1;jettySize=auto;html=1;endArrow=open;endFill=0;endSize=12;" edge="1" parent="1" source="bRMpz78bY9-C_sZuXuRD-9" target="bRMpz78bY9-C_sZuXuRD-1">
                    <mxGeometry relative="1" as="geometry">
                        <mxPoint x="120" y="15" as="sourcePoint"/>
                        <mxPoint x="170" y="15" as="targetPoint"/>
                    </mxGeometry>
                </mxCell>
                <mxCell id="LLegwwf7M3faXV5nhpJP-1" value="600 px MAX width" style="rounded=0;whiteSpace=wrap;html=1;fontSize=12;align=center;fontStyle=1" vertex="1" parent="1">
                    <mxGeometry y="-240" width="600" height="40" as="geometry"/>
                </mxCell>
                <mxCell id="LLegwwf7M3faXV5nhpJP-2" style="edgeStyle=none;html=1;fontColor=default;endArrow=open;endFill=0;endSize=12;" edge="1" parent="1" source="LLegwwf7M3faXV5nhpJP-3" target="LLegwwf7M3faXV5nhpJP-5">
                    <mxGeometry relative="1" as="geometry"/>
                </mxCell>
                <mxCell id="LLegwwf7M3faXV5nhpJP-3" value="&lt;&lt;Interface&gt;&gt;&#10;IMediator" style="swimlane;fontStyle=1;align=center;verticalAlign=top;childLayout=stackLayout;horizontal=1;startSize=40;horizontalStack=0;resizeParent=1;resizeParentMax=0;resizeLast=0;collapsible=0;marginBottom=0;swimlaneFillColor=default;" vertex="1" parent="1">
                    <mxGeometry y="160" width="190" height="66" as="geometry"/>
                </mxCell>
                <mxCell id="LLegwwf7M3faXV5nhpJP-4" value="+ Send(Message): void" style="text;strokeColor=default;fillColor=none;align=left;verticalAlign=top;spacingLeft=4;spacingRight=4;overflow=hidden;rotatable=0;points=[[0,0.5],[1,0.5]];portConstraint=eastwest;" vertex="1" parent="LLegwwf7M3faXV5nhpJP-3">
                    <mxGeometry y="40" width="190" height="26" as="geometry"/>
                </mxCell>
                <mxCell id="LLegwwf7M3faXV5nhpJP-5" value="&lt;&lt;Interface&gt;&gt;&#10;IColleague" style="swimlane;fontStyle=1;align=center;verticalAlign=top;childLayout=stackLayout;horizontal=1;startSize=40;horizontalStack=0;resizeParent=1;resizeParentMax=0;resizeLast=0;collapsible=0;marginBottom=0;swimlaneFillColor=default;" vertex="1" parent="1">
                    <mxGeometry x="280" y="160" width="190" height="66" as="geometry"/>
                </mxCell>
                <mxCell id="LLegwwf7M3faXV5nhpJP-6" value="+ Receive(Message): void" style="text;strokeColor=default;fillColor=none;align=left;verticalAlign=top;spacingLeft=4;spacingRight=4;overflow=hidden;rotatable=0;points=[[0,0.5],[1,0.5]];portConstraint=eastwest;" vertex="1" parent="LLegwwf7M3faXV5nhpJP-5">
                    <mxGeometry y="40" width="190" height="26" as="geometry"/>
                </mxCell>
                <mxCell id="LLegwwf7M3faXV5nhpJP-7" value="&lt;&lt;Interface&gt;&gt;&#10;IMediator" style="swimlane;fontStyle=1;align=center;verticalAlign=top;childLayout=stackLayout;horizontal=1;startSize=40;horizontalStack=0;resizeParent=1;resizeParentMax=0;resizeLast=0;collapsible=0;marginBottom=0;swimlaneFillColor=default;" vertex="1" parent="1">
                    <mxGeometry x="680" y="110" width="190" height="66" as="geometry"/>
                </mxCell>
                <mxCell id="LLegwwf7M3faXV5nhpJP-8" value="+ Send(Message): void" style="text;strokeColor=default;fillColor=none;align=left;verticalAlign=top;spacingLeft=4;spacingRight=4;overflow=hidden;rotatable=0;points=[[0,0.5],[1,0.5]];portConstraint=eastwest;" vertex="1" parent="LLegwwf7M3faXV5nhpJP-7">
                    <mxGeometry y="40" width="190" height="26" as="geometry"/>
                </mxCell>
                <mxCell id="LLegwwf7M3faXV5nhpJP-9" value="&lt;&lt;Interface&gt;&gt;&#10;IColleague" style="swimlane;fontStyle=1;align=center;verticalAlign=top;childLayout=stackLayout;horizontal=1;startSize=40;horizontalStack=0;resizeParent=1;resizeParentMax=0;resizeLast=0;collapsible=0;marginBottom=0;swimlaneFillColor=default;" vertex="1" parent="1">
                    <mxGeometry x="960" y="110" width="190" height="66" as="geometry"/>
                </mxCell>
                <mxCell id="LLegwwf7M3faXV5nhpJP-10" value="+ Receive(Message): void" style="text;strokeColor=default;fillColor=none;align=left;verticalAlign=top;spacingLeft=4;spacingRight=4;overflow=hidden;rotatable=0;points=[[0,0.5],[1,0.5]];portConstraint=eastwest;" vertex="1" parent="LLegwwf7M3faXV5nhpJP-9">
                    <mxGeometry y="40" width="190" height="26" as="geometry"/>
                </mxCell>
                <mxCell id="LLegwwf7M3faXV5nhpJP-11" value="&lt;&lt;Interface&gt;&gt;&#10;IMediator" style="swimlane;fontStyle=1;align=center;verticalAlign=top;childLayout=stackLayout;horizontal=1;startSize=40;horizontalStack=0;resizeParent=1;resizeParentMax=0;resizeLast=0;collapsible=0;marginBottom=0;swimlaneFillColor=default;" vertex="1" parent="1">
                    <mxGeometry x="290" y="550" width="190" height="66" as="geometry"/>
                </mxCell>
                <mxCell id="LLegwwf7M3faXV5nhpJP-12" value="+ Send(Message): void" style="text;strokeColor=default;fillColor=none;align=left;verticalAlign=top;spacingLeft=4;spacingRight=4;overflow=hidden;rotatable=0;points=[[0,0.5],[1,0.5]];portConstraint=eastwest;" vertex="1" parent="LLegwwf7M3faXV5nhpJP-11">
                    <mxGeometry y="40" width="190" height="26" as="geometry"/>
                </mxCell>
                <mxCell id="LLegwwf7M3faXV5nhpJP-13" value="&lt;&lt;Interface&gt;&gt;&#10;IColleague" style="swimlane;fontStyle=1;align=center;verticalAlign=top;childLayout=stackLayout;horizontal=1;startSize=40;horizontalStack=0;resizeParent=1;resizeParentMax=0;resizeLast=0;collapsible=0;marginBottom=0;swimlaneFillColor=default;" vertex="1" parent="1">
                    <mxGeometry x="550" y="550" width="190" height="66" as="geometry"/>
                </mxCell>
                <mxCell id="LLegwwf7M3faXV5nhpJP-14" value="+ Receive(Message): void" style="text;strokeColor=default;fillColor=none;align=left;verticalAlign=top;spacingLeft=4;spacingRight=4;overflow=hidden;rotatable=0;points=[[0,0.5],[1,0.5]];portConstraint=eastwest;" vertex="1" parent="LLegwwf7M3faXV5nhpJP-13">
                    <mxGeometry y="40" width="190" height="26" as="geometry"/>
                </mxCell>
            </root>
        </mxGraphModel>
    </diagram>
    <diagram id="cSdPbn_I-SBBUXdTI7q3" name="CQS">
        <mxGraphModel dx="1317" dy="742" grid="1" gridSize="10" guides="1" tooltips="1" connect="1" arrows="1" fold="1" page="0" pageScale="1" pageWidth="850" pageHeight="1100" math="0" shadow="0">
            <root>
                <mxCell id="eAgyc-UkfNOGoqECpljJ-0"/>
                <mxCell id="eAgyc-UkfNOGoqECpljJ-1" parent="eAgyc-UkfNOGoqECpljJ-0"/>
                <mxCell id="eAgyc-UkfNOGoqECpljJ-124" value="handler&lt;br style=&quot;font-size: 10px;&quot;&gt;:SendChatMessage.Handler" style="shape=umlLifeline;perimeter=lifelinePerimeter;whiteSpace=wrap;html=1;container=1;collapsible=0;recursiveResize=0;outlineConnect=0;fillColor=default;fontSize=10;" parent="eAgyc-UkfNOGoqECpljJ-1" vertex="1">
                    <mxGeometry x="680" y="1010" width="140" height="440" as="geometry"/>
                </mxCell>
                <mxCell id="eAgyc-UkfNOGoqECpljJ-125" value="3" style="html=1;points=[];perimeter=orthogonalPerimeter;fillColor=default;fontSize=10;" parent="eAgyc-UkfNOGoqECpljJ-124" vertex="1">
                    <mxGeometry x="65" y="220" width="10" height="200" as="geometry"/>
                </mxCell>
                <mxCell id="eAgyc-UkfNOGoqECpljJ-121" value="chatCmd&lt;br style=&quot;font-size: 10px;&quot;&gt;:SendChatMessage.Command" style="shape=umlLifeline;perimeter=lifelinePerimeter;whiteSpace=wrap;html=1;container=1;collapsible=0;recursiveResize=0;outlineConnect=0;fillColor=default;fontSize=10;" parent="eAgyc-UkfNOGoqECpljJ-1" vertex="1">
                    <mxGeometry x="590" y="965" width="170" height="480" as="geometry"/>
                </mxCell>
                <mxCell id="eAgyc-UkfNOGoqECpljJ-122" value="" style="html=1;points=[];perimeter=orthogonalPerimeter;fillColor=default;fontSize=10;" parent="eAgyc-UkfNOGoqECpljJ-121" vertex="1">
                    <mxGeometry x="80" y="160" width="10" height="20" as="geometry"/>
                </mxCell>
                <mxCell id="eAgyc-UkfNOGoqECpljJ-142" value="loop(participants)" style="shape=umlFrame;whiteSpace=wrap;html=1;fillColor=default;width=100;height=30;fontSize=10;" parent="eAgyc-UkfNOGoqECpljJ-1" vertex="1">
                    <mxGeometry x="640" y="1340" width="320" height="70" as="geometry"/>
                </mxCell>
                <mxCell id="eAgyc-UkfNOGoqECpljJ-111" value="p:Participant" style="shape=umlLifeline;perimeter=lifelinePerimeter;whiteSpace=wrap;html=1;container=1;collapsible=0;recursiveResize=0;outlineConnect=0;fillColor=default;fontSize=10;" parent="eAgyc-UkfNOGoqECpljJ-1" vertex="1">
                    <mxGeometry x="500" y="1010" width="80" height="440" as="geometry"/>
                </mxCell>
                <mxCell id="eAgyc-UkfNOGoqECpljJ-112" value="" style="html=1;points=[];perimeter=orthogonalPerimeter;fillColor=default;fontSize=10;" parent="eAgyc-UkfNOGoqECpljJ-111" vertex="1">
                    <mxGeometry x="35" y="60" width="10" height="360" as="geometry"/>
                </mxCell>
                <mxCell id="eAgyc-UkfNOGoqECpljJ-16" style="edgeStyle=none;rounded=0;jumpStyle=gap;orthogonalLoop=1;jettySize=auto;html=1;startArrow=none;startFill=0;startSize=12;endArrow=open;endFill=0;endSize=12;" parent="eAgyc-UkfNOGoqECpljJ-1" source="eAgyc-UkfNOGoqECpljJ-2" target="eAgyc-UkfNOGoqECpljJ-3" edge="1">
                    <mxGeometry relative="1" as="geometry"/>
                </mxCell>
                <mxCell id="eAgyc-UkfNOGoqECpljJ-2" value="Consumer" style="html=1;fillColor=default;strokeColor=default;" parent="eAgyc-UkfNOGoqECpljJ-1" vertex="1">
                    <mxGeometry x="-160" y="280" width="110" height="50" as="geometry"/>
                </mxCell>
                <mxCell id="eAgyc-UkfNOGoqECpljJ-3" value="Command" style="swimlane;fontStyle=1;align=center;verticalAlign=top;childLayout=stackLayout;horizontal=1;startSize=26;horizontalStack=0;resizeParent=1;resizeParentMax=0;resizeLast=0;collapsible=0;marginBottom=0;fillColor=default;strokeColor=default;swimlaneFillColor=default;" parent="eAgyc-UkfNOGoqECpljJ-1" vertex="1">
                    <mxGeometry x="70" y="280" width="160" height="52" as="geometry"/>
                </mxCell>
                <mxCell id="eAgyc-UkfNOGoqECpljJ-4" value="+ field: type" style="text;strokeColor=default;fillColor=none;align=left;verticalAlign=top;spacingLeft=4;spacingRight=4;overflow=hidden;rotatable=0;points=[[0,0.5],[1,0.5]];portConstraint=eastwest;" parent="eAgyc-UkfNOGoqECpljJ-3" vertex="1">
                    <mxGeometry y="26" width="160" height="26" as="geometry"/>
                </mxCell>
                <mxCell id="eAgyc-UkfNOGoqECpljJ-17" value="cmd:Command" style="shape=umlLifeline;perimeter=lifelinePerimeter;whiteSpace=wrap;html=1;container=1;collapsible=0;recursiveResize=0;outlineConnect=0;fillColor=default;strokeColor=default;" parent="eAgyc-UkfNOGoqECpljJ-1" vertex="1">
                    <mxGeometry x="-100" y="400" width="110" height="190" as="geometry"/>
                </mxCell>
                <mxCell id="eAgyc-UkfNOGoqECpljJ-22" value="" style="html=1;points=[];perimeter=orthogonalPerimeter;fillColor=default;" parent="eAgyc-UkfNOGoqECpljJ-17" vertex="1">
                    <mxGeometry x="50" y="60" width="10" height="30" as="geometry"/>
                </mxCell>
                <mxCell id="eAgyc-UkfNOGoqECpljJ-18" value="h:Handler" style="shape=umlLifeline;perimeter=lifelinePerimeter;whiteSpace=wrap;html=1;container=1;collapsible=0;recursiveResize=0;outlineConnect=0;fillColor=default;strokeColor=default;" parent="eAgyc-UkfNOGoqECpljJ-1" vertex="1">
                    <mxGeometry x="20" y="400" width="100" height="190" as="geometry"/>
                </mxCell>
                <mxCell id="eAgyc-UkfNOGoqECpljJ-25" value="" style="html=1;points=[];perimeter=orthogonalPerimeter;fillColor=default;" parent="eAgyc-UkfNOGoqECpljJ-18" vertex="1">
                    <mxGeometry x="45" y="120" width="10" height="50" as="geometry"/>
                </mxCell>
                <mxCell id="eAgyc-UkfNOGoqECpljJ-19" value="" style="shape=umlLifeline;participant=umlActor;perimeter=lifelinePerimeter;whiteSpace=wrap;html=1;container=1;collapsible=0;recursiveResize=0;verticalAlign=top;spacingTop=36;labelBackgroundColor=#ffffff;outlineConnect=0;fillColor=default;" parent="eAgyc-UkfNOGoqECpljJ-1" vertex="1">
                    <mxGeometry x="-160" y="400" width="20" height="190" as="geometry"/>
                </mxCell>
                <mxCell id="eAgyc-UkfNOGoqECpljJ-20" value="" style="html=1;points=[];perimeter=orthogonalPerimeter;fillColor=default;" parent="eAgyc-UkfNOGoqECpljJ-19" vertex="1">
                    <mxGeometry x="5" y="60" width="10" height="110" as="geometry"/>
                </mxCell>
                <mxCell id="eAgyc-UkfNOGoqECpljJ-23" value="new()" style="html=1;verticalAlign=bottom;endArrow=block;entryX=0;entryY=0;" parent="eAgyc-UkfNOGoqECpljJ-1" source="eAgyc-UkfNOGoqECpljJ-20" target="eAgyc-UkfNOGoqECpljJ-22" edge="1">
                    <mxGeometry relative="1" as="geometry">
                        <mxPoint x="-110" y="460" as="sourcePoint"/>
                    </mxGeometry>
                </mxCell>
                <mxCell id="eAgyc-UkfNOGoqECpljJ-24" value="" style="html=1;verticalAlign=bottom;endArrow=open;dashed=1;endSize=8;exitX=0;exitY=0.95;" parent="eAgyc-UkfNOGoqECpljJ-1" source="eAgyc-UkfNOGoqECpljJ-22" target="eAgyc-UkfNOGoqECpljJ-20" edge="1">
                    <mxGeometry relative="1" as="geometry">
                        <mxPoint x="-110" y="536" as="targetPoint"/>
                    </mxGeometry>
                </mxCell>
                <mxCell id="eAgyc-UkfNOGoqECpljJ-26" value="h.Handle(cmd)" style="html=1;verticalAlign=bottom;endArrow=block;entryX=0;entryY=0;" parent="eAgyc-UkfNOGoqECpljJ-1" source="eAgyc-UkfNOGoqECpljJ-20" target="eAgyc-UkfNOGoqECpljJ-25" edge="1">
                    <mxGeometry relative="1" as="geometry">
                        <mxPoint x="-50" y="520" as="sourcePoint"/>
                    </mxGeometry>
                </mxCell>
                <mxCell id="eAgyc-UkfNOGoqECpljJ-28" value="Entities" style="shape=umlLifeline;perimeter=lifelinePerimeter;whiteSpace=wrap;html=1;container=1;collapsible=0;recursiveResize=0;outlineConnect=0;fillColor=default;strokeColor=default;" parent="eAgyc-UkfNOGoqECpljJ-1" vertex="1">
                    <mxGeometry x="130" y="400" width="100" height="190" as="geometry"/>
                </mxCell>
                <mxCell id="eAgyc-UkfNOGoqECpljJ-29" value="Apply changes" style="html=1;verticalAlign=bottom;endArrow=block;" parent="eAgyc-UkfNOGoqECpljJ-1" source="eAgyc-UkfNOGoqECpljJ-25" target="eAgyc-UkfNOGoqECpljJ-30" edge="1">
                    <mxGeometry width="80" relative="1" as="geometry">
                        <mxPoint x="80" y="539" as="sourcePoint"/>
                        <mxPoint x="160" y="539" as="targetPoint"/>
                    </mxGeometry>
                </mxCell>
                <mxCell id="eAgyc-UkfNOGoqECpljJ-30" value="" style="html=1;points=[];perimeter=orthogonalPerimeter;fillColor=default;" parent="eAgyc-UkfNOGoqECpljJ-1" vertex="1">
                    <mxGeometry x="175" y="540" width="10" height="30" as="geometry"/>
                </mxCell>
                <mxCell id="eAgyc-UkfNOGoqECpljJ-31" value="query:Query" style="shape=umlLifeline;perimeter=lifelinePerimeter;whiteSpace=wrap;html=1;container=1;collapsible=0;recursiveResize=0;outlineConnect=0;fillColor=default;strokeColor=default;" parent="eAgyc-UkfNOGoqECpljJ-1" vertex="1">
                    <mxGeometry x="-100" y="640" width="110" height="210" as="geometry"/>
                </mxCell>
                <mxCell id="eAgyc-UkfNOGoqECpljJ-32" value="" style="html=1;points=[];perimeter=orthogonalPerimeter;fillColor=default;" parent="eAgyc-UkfNOGoqECpljJ-31" vertex="1">
                    <mxGeometry x="50" y="60" width="10" height="30" as="geometry"/>
                </mxCell>
                <mxCell id="eAgyc-UkfNOGoqECpljJ-33" value="h:Handler" style="shape=umlLifeline;perimeter=lifelinePerimeter;whiteSpace=wrap;html=1;container=1;collapsible=0;recursiveResize=0;outlineConnect=0;fillColor=default;strokeColor=default;" parent="eAgyc-UkfNOGoqECpljJ-1" vertex="1">
                    <mxGeometry x="20" y="640" width="100" height="210" as="geometry"/>
                </mxCell>
                <mxCell id="eAgyc-UkfNOGoqECpljJ-34" value="" style="html=1;points=[];perimeter=orthogonalPerimeter;fillColor=default;" parent="eAgyc-UkfNOGoqECpljJ-33" vertex="1">
                    <mxGeometry x="45" y="120" width="10" height="70" as="geometry"/>
                </mxCell>
                <mxCell id="eAgyc-UkfNOGoqECpljJ-35" value="" style="shape=umlLifeline;participant=umlActor;perimeter=lifelinePerimeter;whiteSpace=wrap;html=1;container=1;collapsible=0;recursiveResize=0;verticalAlign=top;spacingTop=36;labelBackgroundColor=#ffffff;outlineConnect=0;fillColor=default;" parent="eAgyc-UkfNOGoqECpljJ-1" vertex="1">
                    <mxGeometry x="-160" y="640" width="20" height="210" as="geometry"/>
                </mxCell>
                <mxCell id="eAgyc-UkfNOGoqECpljJ-36" value="" style="html=1;points=[];perimeter=orthogonalPerimeter;fillColor=default;" parent="eAgyc-UkfNOGoqECpljJ-35" vertex="1">
                    <mxGeometry x="5" y="60" width="10" height="130" as="geometry"/>
                </mxCell>
                <mxCell id="eAgyc-UkfNOGoqECpljJ-37" value="new()" style="html=1;verticalAlign=bottom;endArrow=block;entryX=0;entryY=0;" parent="eAgyc-UkfNOGoqECpljJ-1" source="eAgyc-UkfNOGoqECpljJ-36" target="eAgyc-UkfNOGoqECpljJ-32" edge="1">
                    <mxGeometry relative="1" as="geometry">
                        <mxPoint x="-110" y="700" as="sourcePoint"/>
                    </mxGeometry>
                </mxCell>
                <mxCell id="eAgyc-UkfNOGoqECpljJ-38" value="" style="html=1;verticalAlign=bottom;endArrow=open;dashed=1;endSize=8;exitX=0;exitY=0.95;" parent="eAgyc-UkfNOGoqECpljJ-1" source="eAgyc-UkfNOGoqECpljJ-32" target="eAgyc-UkfNOGoqECpljJ-36" edge="1">
                    <mxGeometry relative="1" as="geometry">
                        <mxPoint x="-110" y="776" as="targetPoint"/>
                    </mxGeometry>
                </mxCell>
                <mxCell id="eAgyc-UkfNOGoqECpljJ-39" value="h.Handle(query)" style="html=1;verticalAlign=bottom;endArrow=block;entryX=0;entryY=0;" parent="eAgyc-UkfNOGoqECpljJ-1" source="eAgyc-UkfNOGoqECpljJ-36" target="eAgyc-UkfNOGoqECpljJ-34" edge="1">
                    <mxGeometry relative="1" as="geometry">
                        <mxPoint x="-50" y="760" as="sourcePoint"/>
                    </mxGeometry>
                </mxCell>
                <mxCell id="eAgyc-UkfNOGoqECpljJ-43" value="return result" style="html=1;verticalAlign=bottom;endArrow=open;dashed=1;endSize=8;exitX=0;exitY=0.88;exitDx=0;exitDy=0;exitPerimeter=0;" parent="eAgyc-UkfNOGoqECpljJ-1" source="eAgyc-UkfNOGoqECpljJ-34" target="eAgyc-UkfNOGoqECpljJ-36" edge="1">
                    <mxGeometry relative="1" as="geometry">
                        <mxPoint x="-40" y="880" as="sourcePoint"/>
                        <mxPoint x="-120" y="880" as="targetPoint"/>
                    </mxGeometry>
                </mxCell>
                <mxCell id="eAgyc-UkfNOGoqECpljJ-44" value="Entities" style="shape=umlLifeline;perimeter=lifelinePerimeter;whiteSpace=wrap;html=1;container=1;collapsible=0;recursiveResize=0;outlineConnect=0;fillColor=default;strokeColor=default;" parent="eAgyc-UkfNOGoqECpljJ-1" vertex="1">
                    <mxGeometry x="130" y="640" width="100" height="210" as="geometry"/>
                </mxCell>
                <mxCell id="eAgyc-UkfNOGoqECpljJ-45" value="" style="html=1;points=[];perimeter=orthogonalPerimeter;fillColor=default;" parent="eAgyc-UkfNOGoqECpljJ-44" vertex="1">
                    <mxGeometry x="45" y="140" width="10" height="30" as="geometry"/>
                </mxCell>
                <mxCell id="eAgyc-UkfNOGoqECpljJ-46" value="Query data" style="html=1;verticalAlign=bottom;endArrow=block;entryX=0;entryY=0;" parent="eAgyc-UkfNOGoqECpljJ-1" source="eAgyc-UkfNOGoqECpljJ-34" target="eAgyc-UkfNOGoqECpljJ-45" edge="1">
                    <mxGeometry relative="1" as="geometry">
                        <mxPoint x="80" y="780" as="sourcePoint"/>
                    </mxGeometry>
                </mxCell>
                <mxCell id="eAgyc-UkfNOGoqECpljJ-47" value="" style="html=1;verticalAlign=bottom;endArrow=open;dashed=1;endSize=8;exitX=0;exitY=0.95;" parent="eAgyc-UkfNOGoqECpljJ-1" source="eAgyc-UkfNOGoqECpljJ-45" target="eAgyc-UkfNOGoqECpljJ-34" edge="1">
                    <mxGeometry relative="1" as="geometry">
                        <mxPoint x="80" y="856" as="targetPoint"/>
                    </mxGeometry>
                </mxCell>
                <mxCell id="eAgyc-UkfNOGoqECpljJ-49" value="p:Participant" style="shape=umlLifeline;perimeter=lifelinePerimeter;whiteSpace=wrap;html=1;container=1;collapsible=0;recursiveResize=0;outlineConnect=0;fillColor=default;strokeColor=default;" parent="eAgyc-UkfNOGoqECpljJ-1" vertex="1">
                    <mxGeometry x="520" y="360" width="100" height="210" as="geometry"/>
                </mxCell>
                <mxCell id="eAgyc-UkfNOGoqECpljJ-54" value="" style="html=1;points=[];perimeter=orthogonalPerimeter;fillColor=default;" parent="eAgyc-UkfNOGoqECpljJ-49" vertex="1">
                    <mxGeometry x="45" y="60" width="10" height="130" as="geometry"/>
                </mxCell>
                <mxCell id="eAgyc-UkfNOGoqECpljJ-50" value="c:ChatRoom" style="shape=umlLifeline;perimeter=lifelinePerimeter;whiteSpace=wrap;html=1;container=1;collapsible=0;recursiveResize=0;outlineConnect=0;fillColor=default;strokeColor=default;" parent="eAgyc-UkfNOGoqECpljJ-1" vertex="1">
                    <mxGeometry x="900" y="310" width="100" height="260" as="geometry"/>
                </mxCell>
                <mxCell id="eAgyc-UkfNOGoqECpljJ-67" value="" style="html=1;points=[];perimeter=orthogonalPerimeter;fillColor=default;" parent="eAgyc-UkfNOGoqECpljJ-50" vertex="1">
                    <mxGeometry x="45" y="220" width="10" height="20" as="geometry"/>
                </mxCell>
                <mxCell id="eAgyc-UkfNOGoqECpljJ-52" value="" style="shape=umlLifeline;participant=umlActor;perimeter=lifelinePerimeter;whiteSpace=wrap;html=1;container=1;collapsible=0;recursiveResize=0;verticalAlign=top;spacingTop=36;labelBackgroundColor=#ffffff;outlineConnect=0;fillColor=default;" parent="eAgyc-UkfNOGoqECpljJ-1" vertex="1">
                    <mxGeometry x="420" y="360" width="20" height="210" as="geometry"/>
                </mxCell>
                <mxCell id="eAgyc-UkfNOGoqECpljJ-53" value="" style="html=1;points=[];perimeter=orthogonalPerimeter;fillColor=default;" parent="eAgyc-UkfNOGoqECpljJ-52" vertex="1">
                    <mxGeometry x="5" y="50" width="10" height="140" as="geometry"/>
                </mxCell>
                <mxCell id="eAgyc-UkfNOGoqECpljJ-55" value="Join(c)" style="html=1;verticalAlign=bottom;endArrow=block;entryX=0;entryY=0;" parent="eAgyc-UkfNOGoqECpljJ-1" source="eAgyc-UkfNOGoqECpljJ-53" target="eAgyc-UkfNOGoqECpljJ-54" edge="1">
                    <mxGeometry relative="1" as="geometry">
                        <mxPoint x="470" y="420" as="sourcePoint"/>
                    </mxGeometry>
                </mxCell>
                <mxCell id="eAgyc-UkfNOGoqECpljJ-57" value="m:Mediator" style="shape=umlLifeline;perimeter=lifelinePerimeter;whiteSpace=wrap;html=1;container=1;collapsible=0;recursiveResize=0;outlineConnect=0;fillColor=default;strokeColor=default;" parent="eAgyc-UkfNOGoqECpljJ-1" vertex="1">
                    <mxGeometry x="640" y="360" width="100" height="210" as="geometry"/>
                </mxCell>
                <mxCell id="eAgyc-UkfNOGoqECpljJ-58" value="" style="html=1;points=[];perimeter=orthogonalPerimeter;fillColor=default;" parent="eAgyc-UkfNOGoqECpljJ-57" vertex="1">
                    <mxGeometry x="45" y="130" width="10" height="60" as="geometry"/>
                </mxCell>
                <mxCell id="eAgyc-UkfNOGoqECpljJ-59" value="2: Send(joinCmd)" style="html=1;verticalAlign=bottom;endArrow=block;" parent="eAgyc-UkfNOGoqECpljJ-1" source="eAgyc-UkfNOGoqECpljJ-54" target="eAgyc-UkfNOGoqECpljJ-58" edge="1">
                    <mxGeometry relative="1" as="geometry">
                        <mxPoint x="575.0000000000002" y="490.5999999999999" as="sourcePoint"/>
                        <mxPoint x="574.72" y="485" as="targetPoint"/>
                    </mxGeometry>
                </mxCell>
                <mxCell id="eAgyc-UkfNOGoqECpljJ-60" value="joinCmd&lt;br&gt;:JoinChatRoom.Command" style="shape=umlLifeline;perimeter=lifelinePerimeter;whiteSpace=wrap;html=1;container=1;collapsible=0;recursiveResize=0;outlineConnect=0;fillColor=default;strokeColor=default;" parent="eAgyc-UkfNOGoqECpljJ-1" vertex="1">
                    <mxGeometry x="650" y="310" width="200" height="250" as="geometry"/>
                </mxCell>
                <mxCell id="eAgyc-UkfNOGoqECpljJ-73" value="" style="html=1;points=[];perimeter=orthogonalPerimeter;fillColor=default;" parent="eAgyc-UkfNOGoqECpljJ-60" vertex="1">
                    <mxGeometry x="95" y="120" width="10" height="30" as="geometry"/>
                </mxCell>
                <mxCell id="eAgyc-UkfNOGoqECpljJ-77" value="" style="shape=umlDestroy;whiteSpace=wrap;html=1;strokeWidth=3;fillColor=#ffffff;" parent="eAgyc-UkfNOGoqECpljJ-60" vertex="1">
                    <mxGeometry x="92.5" y="245" width="15" height="15" as="geometry"/>
                </mxCell>
                <mxCell id="eAgyc-UkfNOGoqECpljJ-61" value="handler&lt;br&gt;:JoinChatRoom.Handler" style="shape=umlLifeline;perimeter=lifelinePerimeter;whiteSpace=wrap;html=1;container=1;collapsible=0;recursiveResize=0;outlineConnect=0;fillColor=default;strokeColor=default;" parent="eAgyc-UkfNOGoqECpljJ-1" vertex="1">
                    <mxGeometry x="760" y="360" width="160" height="210" as="geometry"/>
                </mxCell>
                <mxCell id="eAgyc-UkfNOGoqECpljJ-62" value="" style="html=1;points=[];perimeter=orthogonalPerimeter;fillColor=default;" parent="eAgyc-UkfNOGoqECpljJ-61" vertex="1">
                    <mxGeometry x="75" y="160" width="10" height="30" as="geometry"/>
                </mxCell>
                <mxCell id="eAgyc-UkfNOGoqECpljJ-65" value="3: Handle(joinCmd)" style="html=1;verticalAlign=bottom;endArrow=block;" parent="eAgyc-UkfNOGoqECpljJ-1" source="eAgyc-UkfNOGoqECpljJ-58" target="eAgyc-UkfNOGoqECpljJ-62" edge="1">
                    <mxGeometry relative="1" as="geometry">
                        <mxPoint x="699.72" y="510" as="sourcePoint"/>
                        <mxPoint x="809.72" y="505.02" as="targetPoint"/>
                    </mxGeometry>
                </mxCell>
                <mxCell id="eAgyc-UkfNOGoqECpljJ-66" value="4: Add(p)" style="html=1;verticalAlign=bottom;endArrow=block;" parent="eAgyc-UkfNOGoqECpljJ-1" source="eAgyc-UkfNOGoqECpljJ-62" target="eAgyc-UkfNOGoqECpljJ-67" edge="1">
                    <mxGeometry relative="1" as="geometry">
                        <mxPoint x="1159.72" y="552.5" as="sourcePoint"/>
                        <mxPoint x="844.72" y="506.48" as="targetPoint"/>
                    </mxGeometry>
                </mxCell>
                <mxCell id="eAgyc-UkfNOGoqECpljJ-74" value="1: new(c, p)" style="html=1;verticalAlign=bottom;endArrow=block;entryX=0;entryY=0;" parent="eAgyc-UkfNOGoqECpljJ-1" source="eAgyc-UkfNOGoqECpljJ-54" target="eAgyc-UkfNOGoqECpljJ-73" edge="1">
                    <mxGeometry relative="1" as="geometry">
                        <mxPoint x="650" y="410" as="sourcePoint"/>
                    </mxGeometry>
                </mxCell>
                <mxCell id="eAgyc-UkfNOGoqECpljJ-79" value="" style="html=1;verticalAlign=bottom;endArrow=open;dashed=1;endSize=8;" parent="eAgyc-UkfNOGoqECpljJ-1" source="eAgyc-UkfNOGoqECpljJ-73" target="eAgyc-UkfNOGoqECpljJ-54" edge="1">
                    <mxGeometry relative="1" as="geometry">
                        <mxPoint x="600" y="449.76" as="targetPoint"/>
                        <mxPoint x="695" y="449.76" as="sourcePoint"/>
                        <Array as="points">
                            <mxPoint x="650" y="450"/>
                        </Array>
                    </mxGeometry>
                </mxCell>
                <mxCell id="eAgyc-UkfNOGoqECpljJ-80" value="p:Participant" style="shape=umlLifeline;perimeter=lifelinePerimeter;whiteSpace=wrap;html=1;container=1;collapsible=0;recursiveResize=0;outlineConnect=0;fillColor=default;strokeColor=default;" parent="eAgyc-UkfNOGoqECpljJ-1" vertex="1">
                    <mxGeometry x="520" y="650" width="100" height="270" as="geometry"/>
                </mxCell>
                <mxCell id="eAgyc-UkfNOGoqECpljJ-81" value="" style="html=1;points=[];perimeter=orthogonalPerimeter;fillColor=default;" parent="eAgyc-UkfNOGoqECpljJ-80" vertex="1">
                    <mxGeometry x="45" y="60" width="10" height="170" as="geometry"/>
                </mxCell>
                <mxCell id="eAgyc-UkfNOGoqECpljJ-82" value="c:ChatRoom" style="shape=umlLifeline;perimeter=lifelinePerimeter;whiteSpace=wrap;html=1;container=1;collapsible=0;recursiveResize=0;outlineConnect=0;fillColor=default;strokeColor=default;" parent="eAgyc-UkfNOGoqECpljJ-1" vertex="1">
                    <mxGeometry x="900" y="600" width="100" height="320" as="geometry"/>
                </mxCell>
                <mxCell id="eAgyc-UkfNOGoqECpljJ-83" value="" style="html=1;points=[];perimeter=orthogonalPerimeter;fillColor=default;" parent="eAgyc-UkfNOGoqECpljJ-82" vertex="1">
                    <mxGeometry x="45" y="220" width="10" height="30" as="geometry"/>
                </mxCell>
                <mxCell id="eAgyc-UkfNOGoqECpljJ-84" value="" style="shape=umlLifeline;participant=umlActor;perimeter=lifelinePerimeter;whiteSpace=wrap;html=1;container=1;collapsible=0;recursiveResize=0;verticalAlign=top;spacingTop=36;labelBackgroundColor=#ffffff;outlineConnect=0;fillColor=default;" parent="eAgyc-UkfNOGoqECpljJ-1" vertex="1">
                    <mxGeometry x="420" y="650" width="20" height="270" as="geometry"/>
                </mxCell>
                <mxCell id="eAgyc-UkfNOGoqECpljJ-85" value="" style="html=1;points=[];perimeter=orthogonalPerimeter;fillColor=default;" parent="eAgyc-UkfNOGoqECpljJ-84" vertex="1">
                    <mxGeometry x="5" y="50" width="10" height="190" as="geometry"/>
                </mxCell>
                <mxCell id="eAgyc-UkfNOGoqECpljJ-86" value="ListParticipantsOf(c)" style="html=1;verticalAlign=bottom;endArrow=block;entryX=0;entryY=0;" parent="eAgyc-UkfNOGoqECpljJ-1" source="eAgyc-UkfNOGoqECpljJ-85" target="eAgyc-UkfNOGoqECpljJ-81" edge="1">
                    <mxGeometry relative="1" as="geometry">
                        <mxPoint x="470" y="710" as="sourcePoint"/>
                    </mxGeometry>
                </mxCell>
                <mxCell id="eAgyc-UkfNOGoqECpljJ-87" value="m:Mediator" style="shape=umlLifeline;perimeter=lifelinePerimeter;whiteSpace=wrap;html=1;container=1;collapsible=0;recursiveResize=0;outlineConnect=0;fillColor=default;strokeColor=default;" parent="eAgyc-UkfNOGoqECpljJ-1" vertex="1">
                    <mxGeometry x="640" y="650" width="100" height="270" as="geometry"/>
                </mxCell>
                <mxCell id="eAgyc-UkfNOGoqECpljJ-88" value="" style="html=1;points=[];perimeter=orthogonalPerimeter;fillColor=default;" parent="eAgyc-UkfNOGoqECpljJ-87" vertex="1">
                    <mxGeometry x="45" y="130" width="10" height="90" as="geometry"/>
                </mxCell>
                <mxCell id="eAgyc-UkfNOGoqECpljJ-89" value="2: Send(listQuery)" style="html=1;verticalAlign=bottom;endArrow=block;" parent="eAgyc-UkfNOGoqECpljJ-1" source="eAgyc-UkfNOGoqECpljJ-81" target="eAgyc-UkfNOGoqECpljJ-88" edge="1">
                    <mxGeometry relative="1" as="geometry">
                        <mxPoint x="575.0000000000002" y="780.5999999999999" as="sourcePoint"/>
                        <mxPoint x="574.72" y="775" as="targetPoint"/>
                    </mxGeometry>
                </mxCell>
                <mxCell id="eAgyc-UkfNOGoqECpljJ-90" value="listQuery&lt;br&gt;:ListParticipants.Query" style="shape=umlLifeline;perimeter=lifelinePerimeter;whiteSpace=wrap;html=1;container=1;collapsible=0;recursiveResize=0;outlineConnect=0;fillColor=default;strokeColor=default;" parent="eAgyc-UkfNOGoqECpljJ-1" vertex="1">
                    <mxGeometry x="650" y="600" width="200" height="310" as="geometry"/>
                </mxCell>
                <mxCell id="eAgyc-UkfNOGoqECpljJ-91" value="" style="html=1;points=[];perimeter=orthogonalPerimeter;fillColor=default;" parent="eAgyc-UkfNOGoqECpljJ-90" vertex="1">
                    <mxGeometry x="95" y="120" width="10" height="30" as="geometry"/>
                </mxCell>
                <mxCell id="eAgyc-UkfNOGoqECpljJ-93" value="handler&lt;br&gt;:ListParticipants.Handler" style="shape=umlLifeline;perimeter=lifelinePerimeter;whiteSpace=wrap;html=1;container=1;collapsible=0;recursiveResize=0;outlineConnect=0;fillColor=default;strokeColor=default;" parent="eAgyc-UkfNOGoqECpljJ-1" vertex="1">
                    <mxGeometry x="760" y="650" width="160" height="270" as="geometry"/>
                </mxCell>
                <mxCell id="eAgyc-UkfNOGoqECpljJ-94" value="" style="html=1;points=[];perimeter=orthogonalPerimeter;fillColor=default;" parent="eAgyc-UkfNOGoqECpljJ-93" vertex="1">
                    <mxGeometry x="75" y="160" width="10" height="50" as="geometry"/>
                </mxCell>
                <mxCell id="eAgyc-UkfNOGoqECpljJ-95" value="3: Handle(listQuery)" style="html=1;verticalAlign=bottom;endArrow=block;" parent="eAgyc-UkfNOGoqECpljJ-1" source="eAgyc-UkfNOGoqECpljJ-88" target="eAgyc-UkfNOGoqECpljJ-94" edge="1">
                    <mxGeometry relative="1" as="geometry">
                        <mxPoint x="699.72" y="800" as="sourcePoint"/>
                        <mxPoint x="809.72" y="795.02" as="targetPoint"/>
                    </mxGeometry>
                </mxCell>
                <mxCell id="eAgyc-UkfNOGoqECpljJ-96" value="4: ListParticipants()" style="html=1;verticalAlign=bottom;endArrow=block;exitX=1.12;exitY=0.28;exitDx=0;exitDy=0;exitPerimeter=0;" parent="eAgyc-UkfNOGoqECpljJ-1" source="eAgyc-UkfNOGoqECpljJ-94" target="eAgyc-UkfNOGoqECpljJ-83" edge="1">
                    <mxGeometry relative="1" as="geometry">
                        <mxPoint x="1159.72" y="842.5" as="sourcePoint"/>
                        <mxPoint x="844.72" y="796.48" as="targetPoint"/>
                    </mxGeometry>
                </mxCell>
                <mxCell id="eAgyc-UkfNOGoqECpljJ-97" value="1: new(c, p)" style="html=1;verticalAlign=bottom;endArrow=block;entryX=0;entryY=0;" parent="eAgyc-UkfNOGoqECpljJ-1" source="eAgyc-UkfNOGoqECpljJ-81" target="eAgyc-UkfNOGoqECpljJ-91" edge="1">
                    <mxGeometry relative="1" as="geometry">
                        <mxPoint x="650" y="700" as="sourcePoint"/>
                    </mxGeometry>
                </mxCell>
                <mxCell id="eAgyc-UkfNOGoqECpljJ-98" value="" style="html=1;verticalAlign=bottom;endArrow=open;dashed=1;endSize=8;" parent="eAgyc-UkfNOGoqECpljJ-1" source="eAgyc-UkfNOGoqECpljJ-91" target="eAgyc-UkfNOGoqECpljJ-81" edge="1">
                    <mxGeometry relative="1" as="geometry">
                        <mxPoint x="600" y="739.76" as="targetPoint"/>
                        <mxPoint x="695" y="739.76" as="sourcePoint"/>
                        <Array as="points">
                            <mxPoint x="650" y="740"/>
                        </Array>
                    </mxGeometry>
                </mxCell>
                <mxCell id="eAgyc-UkfNOGoqECpljJ-99" value="" style="html=1;verticalAlign=bottom;endArrow=open;dashed=1;endSize=8;exitX=-0.04;exitY=0.907;exitDx=0;exitDy=0;exitPerimeter=0;" parent="eAgyc-UkfNOGoqECpljJ-1" source="eAgyc-UkfNOGoqECpljJ-83" target="eAgyc-UkfNOGoqECpljJ-94" edge="1">
                    <mxGeometry relative="1" as="geometry">
                        <mxPoint x="870" y="847" as="targetPoint"/>
                        <mxPoint x="1060" y="847" as="sourcePoint"/>
                        <Array as="points"/>
                    </mxGeometry>
                </mxCell>
                <mxCell id="eAgyc-UkfNOGoqECpljJ-104" value="return participants" style="edgeLabel;html=1;align=center;verticalAlign=middle;resizable=0;points=[];" parent="eAgyc-UkfNOGoqECpljJ-99" vertex="1" connectable="0">
                    <mxGeometry x="0.2129" y="-1" relative="1" as="geometry">
                        <mxPoint x="15" y="-7" as="offset"/>
                    </mxGeometry>
                </mxCell>
                <mxCell id="eAgyc-UkfNOGoqECpljJ-105" value="" style="html=1;verticalAlign=bottom;endArrow=open;dashed=1;endSize=8;exitX=0;exitY=0.946;exitDx=0;exitDy=0;exitPerimeter=0;" parent="eAgyc-UkfNOGoqECpljJ-1" source="eAgyc-UkfNOGoqECpljJ-94" target="eAgyc-UkfNOGoqECpljJ-88" edge="1">
                    <mxGeometry relative="1" as="geometry">
                        <mxPoint x="735.4" y="845" as="targetPoint"/>
                        <mxPoint x="835.0000000000001" y="845" as="sourcePoint"/>
                        <Array as="points"/>
                    </mxGeometry>
                </mxCell>
                <mxCell id="eAgyc-UkfNOGoqECpljJ-106" value="return participants" style="edgeLabel;html=1;align=center;verticalAlign=middle;resizable=0;points=[];" parent="eAgyc-UkfNOGoqECpljJ-105" vertex="1" connectable="0">
                    <mxGeometry x="0.2129" y="-1" relative="1" as="geometry">
                        <mxPoint x="15.8" y="-6.84" as="offset"/>
                    </mxGeometry>
                </mxCell>
                <mxCell id="eAgyc-UkfNOGoqECpljJ-107" value="" style="html=1;verticalAlign=bottom;endArrow=open;dashed=1;endSize=8;exitX=-0.056;exitY=0.981;exitDx=0;exitDy=0;exitPerimeter=0;" parent="eAgyc-UkfNOGoqECpljJ-1" source="eAgyc-UkfNOGoqECpljJ-88" target="eAgyc-UkfNOGoqECpljJ-81" edge="1">
                    <mxGeometry relative="1" as="geometry">
                        <mxPoint x="705" y="857.8400000000001" as="targetPoint"/>
                        <mxPoint x="710" y="890" as="sourcePoint"/>
                        <Array as="points"/>
                    </mxGeometry>
                </mxCell>
                <mxCell id="eAgyc-UkfNOGoqECpljJ-108" value="return participants" style="edgeLabel;html=1;align=center;verticalAlign=middle;resizable=0;points=[];" parent="eAgyc-UkfNOGoqECpljJ-107" vertex="1" connectable="0">
                    <mxGeometry x="0.2129" y="-1" relative="1" as="geometry">
                        <mxPoint x="15.8" y="-6.84" as="offset"/>
                    </mxGeometry>
                </mxCell>
                <mxCell id="eAgyc-UkfNOGoqECpljJ-109" value="" style="html=1;verticalAlign=bottom;endArrow=open;dashed=1;endSize=8;exitX=0.083;exitY=0.994;exitDx=0;exitDy=0;exitPerimeter=0;" parent="eAgyc-UkfNOGoqECpljJ-1" source="eAgyc-UkfNOGoqECpljJ-81" target="eAgyc-UkfNOGoqECpljJ-85" edge="1">
                    <mxGeometry relative="1" as="geometry">
                        <mxPoint x="460" y="850.0000000000001" as="targetPoint"/>
                        <mxPoint x="569.44" y="850.0000000000001" as="sourcePoint"/>
                        <Array as="points"/>
                    </mxGeometry>
                </mxCell>
                <mxCell id="eAgyc-UkfNOGoqECpljJ-110" value="return participants" style="edgeLabel;html=1;align=center;verticalAlign=middle;resizable=0;points=[];" parent="eAgyc-UkfNOGoqECpljJ-109" vertex="1" connectable="0">
                    <mxGeometry x="0.2129" y="-1" relative="1" as="geometry">
                        <mxPoint x="15.8" y="-6.84" as="offset"/>
                    </mxGeometry>
                </mxCell>
                <mxCell id="eAgyc-UkfNOGoqECpljJ-92" value="" style="shape=umlDestroy;whiteSpace=wrap;html=1;strokeWidth=3;fillColor=#ffffff;" parent="eAgyc-UkfNOGoqECpljJ-1" vertex="1">
                    <mxGeometry x="742.5" y="905" width="15" height="15" as="geometry"/>
                </mxCell>
                <mxCell id="eAgyc-UkfNOGoqECpljJ-113" value="c:ChatRoom" style="shape=umlLifeline;perimeter=lifelinePerimeter;whiteSpace=wrap;html=1;container=1;collapsible=0;recursiveResize=0;outlineConnect=0;fillColor=default;fontSize=10;" parent="eAgyc-UkfNOGoqECpljJ-1" vertex="1">
                    <mxGeometry x="830" y="1010" width="80" height="440" as="geometry"/>
                </mxCell>
                <mxCell id="eAgyc-UkfNOGoqECpljJ-114" value="" style="html=1;points=[];perimeter=orthogonalPerimeter;fillColor=default;fontSize=10;" parent="eAgyc-UkfNOGoqECpljJ-113" vertex="1">
                    <mxGeometry x="35" y="240" width="10" height="20" as="geometry"/>
                </mxCell>
                <mxCell id="eAgyc-UkfNOGoqECpljJ-136" value="" style="html=1;points=[];perimeter=orthogonalPerimeter;fillColor=default;fontSize=10;" parent="eAgyc-UkfNOGoqECpljJ-113" vertex="1">
                    <mxGeometry x="35" y="290" width="10" height="30" as="geometry"/>
                </mxCell>
                <mxCell id="eAgyc-UkfNOGoqECpljJ-115" value="" style="shape=umlLifeline;participant=umlActor;perimeter=lifelinePerimeter;whiteSpace=wrap;html=1;container=1;collapsible=0;recursiveResize=0;verticalAlign=top;spacingTop=36;labelBackgroundColor=#ffffff;outlineConnect=0;fillColor=default;" parent="eAgyc-UkfNOGoqECpljJ-1" vertex="1">
                    <mxGeometry x="400" y="1010" width="20" height="440" as="geometry"/>
                </mxCell>
                <mxCell id="eAgyc-UkfNOGoqECpljJ-116" value="" style="html=1;points=[];perimeter=orthogonalPerimeter;fillColor=default;fontSize=10;" parent="eAgyc-UkfNOGoqECpljJ-115" vertex="1">
                    <mxGeometry x="5" y="50" width="10" height="370" as="geometry"/>
                </mxCell>
                <mxCell id="eAgyc-UkfNOGoqECpljJ-117" value="SendMessageTo(c, text)" style="html=1;verticalAlign=bottom;endArrow=block;entryX=0;entryY=0;fontSize=10;" parent="eAgyc-UkfNOGoqECpljJ-1" source="eAgyc-UkfNOGoqECpljJ-116" target="eAgyc-UkfNOGoqECpljJ-112" edge="1">
                    <mxGeometry relative="1" as="geometry">
                        <mxPoint x="470" y="1070" as="sourcePoint"/>
                    </mxGeometry>
                </mxCell>
                <mxCell id="eAgyc-UkfNOGoqECpljJ-118" value="m:Mediator" style="shape=umlLifeline;perimeter=lifelinePerimeter;whiteSpace=wrap;html=1;container=1;collapsible=0;recursiveResize=0;outlineConnect=0;fillColor=default;fontSize=10;" parent="eAgyc-UkfNOGoqECpljJ-1" vertex="1">
                    <mxGeometry x="590" y="1010" width="80" height="440" as="geometry"/>
                </mxCell>
                <mxCell id="eAgyc-UkfNOGoqECpljJ-119" value="" style="html=1;points=[];perimeter=orthogonalPerimeter;fillColor=default;fontSize=10;" parent="eAgyc-UkfNOGoqECpljJ-118" vertex="1">
                    <mxGeometry x="35" y="170" width="10" height="250" as="geometry"/>
                </mxCell>
                <mxCell id="eAgyc-UkfNOGoqECpljJ-120" value="2: Send(chatCmd)" style="html=1;verticalAlign=bottom;endArrow=block;fontSize=10;exitX=1.075;exitY=0.304;exitDx=0;exitDy=0;exitPerimeter=0;" parent="eAgyc-UkfNOGoqECpljJ-1" source="eAgyc-UkfNOGoqECpljJ-112" target="eAgyc-UkfNOGoqECpljJ-119" edge="1">
                    <mxGeometry x="0.0659" y="2" relative="1" as="geometry">
                        <mxPoint x="575.0000000000002" y="1140.6" as="sourcePoint"/>
                        <mxPoint x="574.72" y="1135" as="targetPoint"/>
                        <mxPoint as="offset"/>
                    </mxGeometry>
                </mxCell>
                <mxCell id="eAgyc-UkfNOGoqECpljJ-126" value="Handle(chatCmd)" style="html=1;verticalAlign=bottom;endArrow=block;fontSize=10;entryX=-0.003;entryY=0;entryDx=0;entryDy=0;entryPerimeter=0;" parent="eAgyc-UkfNOGoqECpljJ-1" source="eAgyc-UkfNOGoqECpljJ-119" target="eAgyc-UkfNOGoqECpljJ-125" edge="1">
                    <mxGeometry relative="1" as="geometry">
                        <mxPoint x="699.72" y="1160" as="sourcePoint"/>
                        <mxPoint x="740" y="1230" as="targetPoint"/>
                    </mxGeometry>
                </mxCell>
                <mxCell id="eAgyc-UkfNOGoqECpljJ-128" value="1: new(c, msg)" style="html=1;verticalAlign=bottom;endArrow=block;entryX=0;entryY=0;fontSize=10;" parent="eAgyc-UkfNOGoqECpljJ-1" source="eAgyc-UkfNOGoqECpljJ-112" target="eAgyc-UkfNOGoqECpljJ-122" edge="1">
                    <mxGeometry relative="1" as="geometry">
                        <mxPoint x="650" y="1060" as="sourcePoint"/>
                    </mxGeometry>
                </mxCell>
                <mxCell id="eAgyc-UkfNOGoqECpljJ-129" value="" style="html=1;verticalAlign=bottom;endArrow=open;dashed=1;endSize=8;fontStyle=1;fontSize=10;" parent="eAgyc-UkfNOGoqECpljJ-1" source="eAgyc-UkfNOGoqECpljJ-122" target="eAgyc-UkfNOGoqECpljJ-112" edge="1">
                    <mxGeometry relative="1" as="geometry">
                        <mxPoint x="600" y="1099.76" as="targetPoint"/>
                        <mxPoint x="695" y="1099.76" as="sourcePoint"/>
                        <Array as="points">
                            <mxPoint x="660" y="1140"/>
                        </Array>
                    </mxGeometry>
                </mxCell>
                <mxCell id="eAgyc-UkfNOGoqECpljJ-131" value="msg&lt;br style=&quot;font-size: 10px;&quot;&gt;:ChatMessage" style="shape=umlLifeline;perimeter=lifelinePerimeter;whiteSpace=wrap;html=1;container=1;collapsible=0;recursiveResize=0;outlineConnect=0;fillColor=default;fontSize=10;" parent="eAgyc-UkfNOGoqECpljJ-1" vertex="1">
                    <mxGeometry x="790" y="960" width="70" height="490" as="geometry"/>
                </mxCell>
                <mxCell id="eAgyc-UkfNOGoqECpljJ-132" value="" style="html=1;points=[];perimeter=orthogonalPerimeter;fillColor=default;fontSize=10;" parent="eAgyc-UkfNOGoqECpljJ-131" vertex="1">
                    <mxGeometry x="30" y="120" width="10" height="20" as="geometry"/>
                </mxCell>
                <mxCell id="eAgyc-UkfNOGoqECpljJ-134" value="new(p, text)" style="html=1;verticalAlign=bottom;endArrow=block;fontSize=10;" parent="eAgyc-UkfNOGoqECpljJ-1" source="eAgyc-UkfNOGoqECpljJ-112" target="eAgyc-UkfNOGoqECpljJ-132" edge="1">
                    <mxGeometry relative="1" as="geometry">
                        <mxPoint x="585" y="1140" as="sourcePoint"/>
                        <mxPoint x="757.5" y="1140" as="targetPoint"/>
                        <Array as="points">
                            <mxPoint x="750" y="1080"/>
                        </Array>
                    </mxGeometry>
                </mxCell>
                <mxCell id="eAgyc-UkfNOGoqECpljJ-135" value="" style="html=1;verticalAlign=bottom;endArrow=open;dashed=1;endSize=8;fontSize=10;" parent="eAgyc-UkfNOGoqECpljJ-1" source="eAgyc-UkfNOGoqECpljJ-132" target="eAgyc-UkfNOGoqECpljJ-112" edge="1">
                    <mxGeometry relative="1" as="geometry">
                        <mxPoint x="585" y="1155" as="targetPoint"/>
                        <mxPoint x="757.5" y="1155" as="sourcePoint"/>
                        <Array as="points">
                            <mxPoint x="760" y="1100"/>
                        </Array>
                    </mxGeometry>
                </mxCell>
                <mxCell id="eAgyc-UkfNOGoqECpljJ-137" value="ListParticipants()" style="html=1;verticalAlign=bottom;endArrow=block;fontSize=10;exitX=1.028;exitY=0.35;exitDx=0;exitDy=0;exitPerimeter=0;" parent="eAgyc-UkfNOGoqECpljJ-1" source="eAgyc-UkfNOGoqECpljJ-125" target="eAgyc-UkfNOGoqECpljJ-136" edge="1">
                    <mxGeometry relative="1" as="geometry">
                        <mxPoint x="896.1999999999998" y="1304" as="sourcePoint"/>
                        <mxPoint x="894.72" y="1276.48" as="targetPoint"/>
                    </mxGeometry>
                </mxCell>
                <mxCell id="eAgyc-UkfNOGoqECpljJ-138" value="" style="html=1;verticalAlign=bottom;endArrow=open;dashed=1;endSize=8;fontSize=10;exitX=-0.019;exitY=0.991;exitDx=0;exitDy=0;exitPerimeter=0;" parent="eAgyc-UkfNOGoqECpljJ-1" source="eAgyc-UkfNOGoqECpljJ-136" target="eAgyc-UkfNOGoqECpljJ-125" edge="1">
                    <mxGeometry relative="1" as="geometry">
                        <mxPoint x="895" y="1327.21" as="targetPoint"/>
                        <mxPoint x="1110" y="1327" as="sourcePoint"/>
                    </mxGeometry>
                </mxCell>
                <mxCell id="eAgyc-UkfNOGoqECpljJ-139" value="return participants" style="edgeLabel;html=1;align=center;verticalAlign=middle;resizable=0;points=[];fontSize=10;" parent="eAgyc-UkfNOGoqECpljJ-138" vertex="1" connectable="0">
                    <mxGeometry x="0.2129" y="-1" relative="1" as="geometry">
                        <mxPoint x="15.680000000000001" y="-7.21" as="offset"/>
                    </mxGeometry>
                </mxCell>
                <mxCell id="eAgyc-UkfNOGoqECpljJ-140" value="NewMessageReceivedFrom(c, msg)" style="html=1;verticalAlign=bottom;endArrow=block;fontSize=10;" parent="eAgyc-UkfNOGoqECpljJ-1" edge="1">
                    <mxGeometry x="0.0353" y="4" relative="1" as="geometry">
                        <mxPoint x="755" y="1370" as="sourcePoint"/>
                        <mxPoint x="925" y="1370" as="targetPoint"/>
                        <Array as="points"/>
                        <mxPoint as="offset"/>
                    </mxGeometry>
                </mxCell>
                <mxCell id="eAgyc-UkfNOGoqECpljJ-143" value="participants:Participant[]" style="shape=umlLifeline;perimeter=lifelinePerimeter;whiteSpace=wrap;html=1;container=1;collapsible=0;recursiveResize=0;outlineConnect=0;fillColor=default;fontSize=10;" parent="eAgyc-UkfNOGoqECpljJ-1" vertex="1">
                    <mxGeometry x="870" y="960" width="120" height="490" as="geometry"/>
                </mxCell>
                <mxCell id="eAgyc-UkfNOGoqECpljJ-141" value="" style="html=1;points=[];perimeter=orthogonalPerimeter;fillColor=default;fontSize=10;" parent="eAgyc-UkfNOGoqECpljJ-143" vertex="1">
                    <mxGeometry x="55" y="410" width="10" height="30" as="geometry"/>
                </mxCell>
                <mxCell id="eAgyc-UkfNOGoqECpljJ-123" value="" style="shape=umlDestroy;whiteSpace=wrap;html=1;strokeWidth=3;fillColor=#ffffff;" parent="eAgyc-UkfNOGoqECpljJ-1" vertex="1">
                    <mxGeometry x="667.5" y="1435" width="15" height="15" as="geometry"/>
                </mxCell>
                <mxCell id="IFVzSzmniWK4iXHT0sJi-0" value="5:" style="text;html=1;align=center;verticalAlign=middle;resizable=0;points=[];autosize=1;" parent="eAgyc-UkfNOGoqECpljJ-1" vertex="1">
                    <mxGeometry x="712.5" y="550" width="30" height="20" as="geometry"/>
                </mxCell>
                <mxCell id="IFVzSzmniWK4iXHT0sJi-1" value="5:" style="text;html=1;align=center;verticalAlign=middle;resizable=0;points=[];autosize=1;" parent="eAgyc-UkfNOGoqECpljJ-1" vertex="1">
                    <mxGeometry x="710" y="902.5" width="30" height="20" as="geometry"/>
                </mxCell>
                <mxCell id="HSLaHae9vpiPBddcg3vr-0" value="600 px MAX width" style="rounded=0;whiteSpace=wrap;html=1;fontSize=12;align=center;fontStyle=1" parent="eAgyc-UkfNOGoqECpljJ-1" vertex="1">
                    <mxGeometry x="400" y="1480" width="600" height="40" as="geometry"/>
                </mxCell>
                <mxCell id="eAgyc-UkfNOGoqECpljJ-127" value="Add(msg)" style="html=1;verticalAlign=bottom;endArrow=block;fontSize=10;entryX=0.029;entryY=0.007;entryDx=0;entryDy=0;entryPerimeter=0;" parent="eAgyc-UkfNOGoqECpljJ-1" edge="1">
                    <mxGeometry x="-0.0026" relative="1" as="geometry">
                        <mxPoint x="755" y="1250.14" as="sourcePoint"/>
                        <mxPoint x="865.29" y="1250.14" as="targetPoint"/>
                        <mxPoint as="offset"/>
                    </mxGeometry>
                </mxCell>
                <mxCell id="HSLaHae9vpiPBddcg3vr-1" value="Figure 14.12" style="text;html=1;align=center;verticalAlign=middle;resizable=0;points=[];autosize=1;fontSize=12;fontColor=#000000;" parent="eAgyc-UkfNOGoqECpljJ-1" vertex="1">
                    <mxGeometry x="240" y="1200" width="80" height="20" as="geometry"/>
                </mxCell>
                <mxCell id="Vg9IOyRz5WC7dGHI28d3-0" value="" style="endArrow=none;html=1;dashed=1;fontColor=default;endSize=12;" edge="1" parent="eAgyc-UkfNOGoqECpljJ-1">
                    <mxGeometry width="50" height="50" relative="1" as="geometry">
                        <mxPoint x="-330" y="190" as="sourcePoint"/>
                        <mxPoint x="-280" y="140" as="targetPoint"/>
                    </mxGeometry>
                </mxCell>
                <mxCell id="Vg9IOyRz5WC7dGHI28d3-1" value="" style="endArrow=none;html=1;dashed=1;fontColor=default;endSize=12;" edge="1" parent="eAgyc-UkfNOGoqECpljJ-1">
                    <mxGeometry width="50" height="50" relative="1" as="geometry">
                        <mxPoint x="1060" y="1620" as="sourcePoint"/>
                        <mxPoint x="1110" y="1570" as="targetPoint"/>
                    </mxGeometry>
                </mxCell>
            </root>
        </mxGraphModel>
    </diagram>
</mxfile>